<ttFont>
    <TTGlyph name=".notdef" xMin="0" yMin="0" xMax="500" yMax="700">
      <contour>
        <pt x="500" y="0" on="1"/>
        <pt x="0" y="0" on="1"/>
        <pt x="0" y="700" on="1"/>
        <pt x="500" y="700" on="1"/>
      </contour>
      <contour>
        <pt x="450" y="50" on="1"/>
        <pt x="450" y="650" on="1"/>
        <pt x="50" y="650" on="1"/>
        <pt x="50" y="50" on="1"/>
      </contour>
      <contour>
        <pt x="425" y="133" on="1"/>
        <pt x="386" y="101" on="1"/>
        <pt x="250" y="305" on="1"/>
        <pt x="113" y="100" on="1"/>
        <pt x="73" y="129" on="1"/>
        <pt x="220" y="350" on="1"/>
        <pt x="73" y="571" on="1"/>
        <pt x="113" y="600" on="1"/>
        <pt x="250" y="395" on="1"/>
        <pt x="386" y="599" on="1"/>
        <pt x="425" y="567" on="1"/>
        <pt x="280" y="350" on="1"/>
      </contour>
    </TTGlyph>
    <TTGlyph name="A" xMin="18" yMin="0" xMax="517" yMax="700">
      <contour>
        <pt x="517" y="0" on="1"/>
        <pt x="411" y="0" on="1"/>
        <pt x="356" y="205" on="1"/>
        <pt x="172" y="205" on="1"/>
        <pt x="119" y="0" on="1"/>
        <pt x="18" y="0" on="1"/>
        <pt x="203" y="700" on="1"/>
        <pt x="322" y="700" on="1"/>
      </contour>
      <contour>
        <pt x="334" y="300" on="1"/>
        <pt x="262" y="550" on="1"/>
        <pt x="194" y="300" on="1"/>
      </contour>
    </TTGlyph>
    <TTGlyph name="AE" xMin="78" yMin="0" xMax="779" yMax="700">
      <contour>
        <pt x="777" y="0" on="1"/>
        <pt x="444" y="0" on="1"/>
        <pt x="445" y="212" on="1"/>
        <pt x="293" y="212" on="1"/>
        <pt x="183" y="0" on="1"/>
        <pt x="78" y="0" on="1"/>
        <pt x="444" y="700" on="1"/>
        <pt x="779" y="700" on="1"/>
        <pt x="779" y="610" on="1"/>
        <pt x="536" y="610" on="1"/>
        <pt x="536" y="413" on="1"/>
        <pt x="702" y="413" on="1"/>
        <pt x="673" y="325" on="1"/>
        <pt x="536" y="325" on="1"/>
        <pt x="536" y="83" on="1"/>
        <pt x="777" y="83" on="1"/>
      </contour>
      <contour>
        <pt x="445" y="300" on="1"/>
        <pt x="445" y="507" on="1"/>
        <pt x="338" y="300" on="1"/>
      </contour>
    </TTGlyph>
    <TTGlyph name="Aacute" xMin="18" yMin="0" xMax="517" yMax="872">
      <contour>
        <pt x="517" y="0" on="1"/>
        <pt x="411" y="0" on="1"/>
        <pt x="356" y="205" on="1"/>
        <pt x="172" y="205" on="1"/>
        <pt x="119" y="0" on="1"/>
        <pt x="18" y="0" on="1"/>
        <pt x="203" y="700" on="1"/>
        <pt x="322" y="700" on="1"/>
      </contour>
      <contour>
        <pt x="334" y="300" on="1"/>
        <pt x="262" y="550" on="1"/>
        <pt x="194" y="300" on="1"/>
      </contour>
      <contour>
        <pt x="297" y="731" on="1"/>
        <pt x="234" y="731" on="1"/>
        <pt x="282" y="842" on="1"/>
        <pt x="294" y="872" on="0"/>
        <pt x="327" y="872" on="1"/>
        <pt x="334" y="872" on="0"/>
        <pt x="341" y="869" on="1"/>
        <pt x="365" y="859" on="0"/>
        <pt x="365" y="820" on="0"/>
        <pt x="353" y="804" on="1"/>
      </contour>
    </TTGlyph>
    <TTGlyph name="Abreve" xMin="18" yMin="0" xMax="517" yMax="848">
      <contour>
        <pt x="517" y="0" on="1"/>
        <pt x="411" y="0" on="1"/>
        <pt x="356" y="205" on="1"/>
        <pt x="172" y="205" on="1"/>
        <pt x="119" y="0" on="1"/>
        <pt x="18" y="0" on="1"/>
        <pt x="203" y="700" on="1"/>
        <pt x="322" y="700" on="1"/>
      </contour>
      <contour>
        <pt x="334" y="300" on="1"/>
        <pt x="262" y="550" on="1"/>
        <pt x="194" y="300" on="1"/>
      </contour>
      <contour>
        <pt x="378" y="848" on="1"/>
        <pt x="378" y="843" on="1"/>
        <pt x="378" y="796" on="0"/>
        <pt x="312" y="730" on="0"/>
        <pt x="218" y="730" on="0"/>
        <pt x="152" y="796" on="0"/>
        <pt x="152" y="843" on="1"/>
        <pt x="152" y="848" on="1"/>
        <pt x="222" y="848" on="1"/>
        <pt x="222" y="843" on="1"/>
        <pt x="222" y="821" on="0"/>
        <pt x="246" y="796" on="0"/>
        <pt x="284" y="796" on="0"/>
        <pt x="309" y="822" on="0"/>
        <pt x="309" y="843" on="1"/>
        <pt x="309" y="848" on="1"/>
      </contour>
    </TTGlyph>
    <TTGlyph name="Acircumflex" xMin="18" yMin="0" xMax="517" yMax="912">
      <contour>
        <pt x="517" y="0" on="1"/>
        <pt x="411" y="0" on="1"/>
        <pt x="356" y="205" on="1"/>
        <pt x="172" y="205" on="1"/>
        <pt x="119" y="0" on="1"/>
        <pt x="18" y="0" on="1"/>
        <pt x="203" y="700" on="1"/>
        <pt x="322" y="700" on="1"/>
      </contour>
      <contour>
        <pt x="334" y="300" on="1"/>
        <pt x="262" y="550" on="1"/>
        <pt x="194" y="300" on="1"/>
      </contour>
      <contour>
        <pt x="409" y="771" on="1"/>
        <pt x="352" y="732" on="1"/>
        <pt x="266" y="822" on="1"/>
        <pt x="175" y="732" on="1"/>
        <pt x="119" y="771" on="1"/>
        <pt x="267" y="912" on="1"/>
      </contour>
    </TTGlyph>
    <TTGlyph name="Adieresis" xMin="18" yMin="0" xMax="517" yMax="813">
      <contour>
        <pt x="517" y="0" on="1"/>
        <pt x="411" y="0" on="1"/>
        <pt x="356" y="205" on="1"/>
        <pt x="172" y="205" on="1"/>
        <pt x="119" y="0" on="1"/>
        <pt x="18" y="0" on="1"/>
        <pt x="203" y="700" on="1"/>
        <pt x="322" y="700" on="1"/>
      </contour>
      <contour>
        <pt x="334" y="300" on="1"/>
        <pt x="262" y="550" on="1"/>
        <pt x="194" y="300" on="1"/>
      </contour>
      <contour>
        <pt x="232" y="788" on="0"/>
        <pt x="232" y="754" on="0"/>
        <pt x="208" y="731" on="0"/>
        <pt x="174" y="731" on="0"/>
        <pt x="151" y="754" on="0"/>
        <pt x="151" y="788" on="0"/>
        <pt x="174" y="812" on="0"/>
        <pt x="208" y="812" on="0"/>
      </contour>
      <contour>
        <pt x="349" y="731" on="0"/>
        <pt x="315" y="731" on="0"/>
        <pt x="291" y="755" on="0"/>
        <pt x="291" y="788" on="0"/>
        <pt x="316" y="813" on="0"/>
        <pt x="349" y="813" on="0"/>
        <pt x="373" y="789" on="0"/>
        <pt x="373" y="755" on="0"/>
      </contour>
    </TTGlyph>
    <TTGlyph name="Agrave" xMin="18" yMin="0" xMax="517" yMax="874">
      <contour>
        <pt x="517" y="0" on="1"/>
        <pt x="411" y="0" on="1"/>
        <pt x="356" y="205" on="1"/>
        <pt x="172" y="205" on="1"/>
        <pt x="119" y="0" on="1"/>
        <pt x="18" y="0" on="1"/>
        <pt x="203" y="700" on="1"/>
        <pt x="322" y="700" on="1"/>
      </contour>
      <contour>
        <pt x="334" y="300" on="1"/>
        <pt x="262" y="550" on="1"/>
        <pt x="194" y="300" on="1"/>
      </contour>
      <contour>
        <pt x="282" y="733" on="1"/>
        <pt x="219" y="733" on="1"/>
        <pt x="163" y="806" on="1"/>
        <pt x="151" y="822" on="0"/>
        <pt x="151" y="832" on="1"/>
        <pt x="151" y="861" on="0"/>
        <pt x="175" y="871" on="1"/>
        <pt x="182" y="874" on="0"/>
        <pt x="190" y="874" on="1"/>
        <pt x="222" y="874" on="0"/>
        <pt x="234" y="844" on="1"/>
      </contour>
    </TTGlyph>
    <TTGlyph name="Alpha" xMin="18" yMin="0" xMax="517" yMax="700">
      <contour>
        <pt x="517" y="0" on="1"/>
        <pt x="411" y="0" on="1"/>
        <pt x="356" y="205" on="1"/>
        <pt x="172" y="205" on="1"/>
        <pt x="119" y="0" on="1"/>
        <pt x="18" y="0" on="1"/>
        <pt x="203" y="700" on="1"/>
        <pt x="322" y="700" on="1"/>
      </contour>
      <contour>
        <pt x="334" y="300" on="1"/>
        <pt x="262" y="550" on="1"/>
        <pt x="194" y="300" on="1"/>
      </contour>
    </TTGlyph>
    <TTGlyph name="Alphatonos" xMin="80" yMin="0" xMax="586" yMax="708">
      <contour>
        <pt x="586" y="0" on="1"/>
        <pt x="480" y="0" on="1"/>
        <pt x="425" y="205" on="1"/>
        <pt x="241" y="205" on="1"/>
        <pt x="188" y="0" on="1"/>
        <pt x="87" y="0" on="1"/>
        <pt x="272" y="700" on="1"/>
        <pt x="391" y="700" on="1"/>
      </contour>
      <contour>
        <pt x="403" y="300" on="1"/>
        <pt x="331" y="550" on="1"/>
        <pt x="263" y="300" on="1"/>
      </contour>
      <contour>
        <pt x="143" y="567" on="1"/>
        <pt x="80" y="567" on="1"/>
        <pt x="128" y="678" on="1"/>
        <pt x="140" y="708" on="0"/>
        <pt x="173" y="708" on="1"/>
        <pt x="180" y="708" on="0"/>
        <pt x="187" y="705" on="1"/>
        <pt x="211" y="695" on="0"/>
        <pt x="211" y="656" on="0"/>
        <pt x="199" y="640" on="1"/>
      </contour>
    </TTGlyph>
    <TTGlyph name="Amacron" xMin="18" yMin="0" xMax="517" yMax="809">
      <contour>
        <pt x="517" y="0" on="1"/>
        <pt x="411" y="0" on="1"/>
        <pt x="356" y="205" on="1"/>
        <pt x="172" y="205" on="1"/>
        <pt x="119" y="0" on="1"/>
        <pt x="18" y="0" on="1"/>
        <pt x="203" y="700" on="1"/>
        <pt x="322" y="700" on="1"/>
      </contour>
      <contour>
        <pt x="334" y="300" on="1"/>
        <pt x="262" y="550" on="1"/>
        <pt x="194" y="300" on="1"/>
      </contour>
      <contour>
        <pt x="368" y="730" on="1"/>
        <pt x="151" y="730" on="1"/>
        <pt x="151" y="809" on="1"/>
        <pt x="368" y="809" on="1"/>
      </contour>
    </TTGlyph>
    <TTGlyph name="Aogonek" xMin="78" yMin="-213" xMax="611" yMax="700">
      <contour>
        <pt x="566" y="-115" on="1"/>
        <pt x="611" y="-163" on="1"/>
        <pt x="579" y="-213" on="0"/>
        <pt x="506" y="-213" on="1"/>
        <pt x="477" y="-213" on="0"/>
        <pt x="417" y="-170" on="0"/>
        <pt x="417" y="-128" on="1"/>
        <pt x="417" y="-125" on="0"/>
        <pt x="417" y="-122" on="1"/>
        <pt x="417" y="-59" on="0"/>
        <pt x="511" y="0" on="1"/>
        <pt x="471" y="0" on="1"/>
        <pt x="416" y="205" on="1"/>
        <pt x="232" y="205" on="1"/>
        <pt x="179" y="0" on="1"/>
        <pt x="78" y="0" on="1"/>
        <pt x="263" y="700" on="1"/>
        <pt x="382" y="700" on="1"/>
        <pt x="577" y="0" on="1"/>
        <pt x="576" y="0" on="1"/>
        <pt x="480" y="-80" on="0"/>
        <pt x="481" y="-121" on="1"/>
        <pt x="483" y="-152" on="0"/>
        <pt x="548" y="-152" on="0"/>
      </contour>
      <contour>
        <pt x="394" y="300" on="1"/>
        <pt x="322" y="550" on="1"/>
        <pt x="254" y="300" on="1"/>
      </contour>
    </TTGlyph>
    <TTGlyph name="Aring" xMin="18" yMin="0" xMax="517" yMax="879">
      <contour>
        <pt x="517" y="0" on="1"/>
        <pt x="411" y="0" on="1"/>
        <pt x="356" y="205" on="1"/>
        <pt x="172" y="205" on="1"/>
        <pt x="119" y="0" on="1"/>
        <pt x="18" y="0" on="1"/>
        <pt x="198" y="682" on="1"/>
        <pt x="154" y="715" on="0"/>
        <pt x="154" y="815" on="0"/>
        <pt x="218" y="879" on="0"/>
        <pt x="308" y="879" on="0"/>
        <pt x="372" y="815" on="0"/>
        <pt x="372" y="714" on="0"/>
        <pt x="327" y="681" on="1"/>
      </contour>
      <contour>
        <pt x="334" y="300" on="1"/>
        <pt x="262" y="550" on="1"/>
        <pt x="194" y="300" on="1"/>
      </contour>
      <contour>
        <pt x="306" y="752" on="0"/>
        <pt x="306" y="788" on="0"/>
        <pt x="281" y="813" on="0"/>
        <pt x="245" y="813" on="0"/>
        <pt x="220" y="788" on="0"/>
        <pt x="220" y="752" on="0"/>
        <pt x="245" y="727" on="0"/>
        <pt x="281" y="727" on="0"/>
      </contour>
    </TTGlyph>
    <TTGlyph name="Atilde" xMin="18" yMin="0" xMax="517" yMax="843">
      <contour>
        <pt x="517" y="0" on="1"/>
        <pt x="411" y="0" on="1"/>
        <pt x="356" y="205" on="1"/>
        <pt x="172" y="205" on="1"/>
        <pt x="119" y="0" on="1"/>
        <pt x="18" y="0" on="1"/>
        <pt x="203" y="700" on="1"/>
        <pt x="322" y="700" on="1"/>
      </contour>
      <contour>
        <pt x="334" y="300" on="1"/>
        <pt x="262" y="550" on="1"/>
        <pt x="194" y="300" on="1"/>
      </contour>
      <contour>
        <pt x="335" y="802" on="1"/>
        <pt x="374" y="802" on="0"/>
        <pt x="405" y="837" on="1"/>
        <pt x="441" y="781" on="1"/>
        <pt x="396" y="728" on="0"/>
        <pt x="345" y="728" on="1"/>
        <pt x="327" y="728" on="0"/>
        <pt x="281" y="747" on="0"/>
        <pt x="231" y="770" on="0"/>
        <pt x="206" y="770" on="1"/>
        <pt x="164" y="770" on="0"/>
        <pt x="130" y="734" on="1"/>
        <pt x="96" y="790" on="1"/>
        <pt x="143" y="843" on="0"/>
        <pt x="196" y="843" on="1"/>
        <pt x="214" y="843" on="0"/>
        <pt x="259" y="825" on="0"/>
        <pt x="310" y="802" on="0"/>
      </contour>
    </TTGlyph>
    <TTGlyph name="B" xMin="78" yMin="0" xMax="511" yMax="700">
      <contour>
        <pt x="301" y="0" on="1"/>
        <pt x="78" y="0" on="1"/>
        <pt x="78" y="700" on="1"/>
        <pt x="288" y="700" on="1"/>
        <pt x="370" y="700" on="0"/>
        <pt x="475" y="610" on="0"/>
        <pt x="475" y="432" on="0"/>
        <pt x="409" y="387" on="1"/>
        <pt x="408" y="386" on="0"/>
        <pt x="408" y="385" on="1"/>
        <pt x="408" y="384" on="1"/>
        <pt x="452" y="364" on="0"/>
        <pt x="511" y="275" on="0"/>
        <pt x="511" y="206" on="1"/>
        <pt x="511" y="127" on="0"/>
        <pt x="467" y="68" on="1"/>
        <pt x="444" y="37" on="0"/>
        <pt x="359" y="0" on="0"/>
      </contour>
      <contour>
        <pt x="169" y="413" on="1"/>
        <pt x="257" y="413" on="1"/>
        <pt x="371" y="413" on="0"/>
        <pt x="371" y="514" on="1"/>
        <pt x="371" y="568" on="0"/>
        <pt x="315" y="610" on="0"/>
        <pt x="262" y="610" on="1"/>
        <pt x="169" y="610" on="1"/>
      </contour>
      <contour>
        <pt x="169" y="84" on="1"/>
        <pt x="269" y="84" on="1"/>
        <pt x="337" y="84" on="0"/>
        <pt x="408" y="135" on="0"/>
        <pt x="408" y="271" on="0"/>
        <pt x="336" y="325" on="0"/>
        <pt x="281" y="325" on="1"/>
        <pt x="169" y="325" on="1"/>
      </contour>
    </TTGlyph>
    <TTGlyph name="Beta" xMin="78" yMin="0" xMax="511" yMax="700">
      <contour>
        <pt x="301" y="0" on="1"/>
        <pt x="78" y="0" on="1"/>
        <pt x="78" y="700" on="1"/>
        <pt x="288" y="700" on="1"/>
        <pt x="370" y="700" on="0"/>
        <pt x="475" y="610" on="0"/>
        <pt x="475" y="432" on="0"/>
        <pt x="409" y="387" on="1"/>
        <pt x="408" y="386" on="0"/>
        <pt x="408" y="385" on="1"/>
        <pt x="408" y="384" on="1"/>
        <pt x="452" y="364" on="0"/>
        <pt x="511" y="275" on="0"/>
        <pt x="511" y="206" on="1"/>
        <pt x="511" y="127" on="0"/>
        <pt x="467" y="68" on="1"/>
        <pt x="444" y="37" on="0"/>
        <pt x="359" y="0" on="0"/>
      </contour>
      <contour>
        <pt x="169" y="413" on="1"/>
        <pt x="257" y="413" on="1"/>
        <pt x="371" y="413" on="0"/>
        <pt x="371" y="514" on="1"/>
        <pt x="371" y="568" on="0"/>
        <pt x="315" y="610" on="0"/>
        <pt x="262" y="610" on="1"/>
        <pt x="169" y="610" on="1"/>
      </contour>
      <contour>
        <pt x="169" y="84" on="1"/>
        <pt x="269" y="84" on="1"/>
        <pt x="337" y="84" on="0"/>
        <pt x="408" y="135" on="0"/>
        <pt x="408" y="271" on="0"/>
        <pt x="336" y="325" on="0"/>
        <pt x="281" y="325" on="1"/>
        <pt x="169" y="325" on="1"/>
      </contour>
    </TTGlyph>
    <TTGlyph name="C" xMin="66" yMin="-10" xMax="427" yMax="710">
      <contour>
        <pt x="412" y="107" on="1"/>
        <pt x="427" y="23" on="1"/>
        <pt x="342" y="-10" on="0"/>
        <pt x="265" y="-10" on="1"/>
        <pt x="249" y="-10" on="0"/>
        <pt x="184" y="-4" on="0"/>
        <pt x="111" y="35" on="0"/>
        <pt x="66" y="120" on="0"/>
        <pt x="66" y="183" on="1"/>
        <pt x="66" y="504" on="1"/>
        <pt x="66" y="580" on="0"/>
        <pt x="109" y="658" on="0"/>
        <pt x="153" y="685" on="1"/>
        <pt x="198" y="710" on="0"/>
        <pt x="260" y="710" on="1"/>
        <pt x="337" y="710" on="0"/>
        <pt x="402" y="677" on="1"/>
        <pt x="376" y="599" on="1"/>
        <pt x="328" y="617" on="0"/>
        <pt x="225" y="617" on="0"/>
        <pt x="157" y="566" on="0"/>
        <pt x="157" y="513" on="1"/>
        <pt x="157" y="185" on="1"/>
        <pt x="157" y="140" on="0"/>
        <pt x="179" y="115" on="1"/>
        <pt x="207" y="83" on="0"/>
        <pt x="331" y="83" on="0"/>
      </contour>
    </TTGlyph>
    <TTGlyph name="Cacute" xMin="66" yMin="-10" xMax="427" yMax="875">
      <contour>
        <pt x="412" y="107" on="1"/>
        <pt x="427" y="23" on="1"/>
        <pt x="342" y="-10" on="0"/>
        <pt x="265" y="-10" on="1"/>
        <pt x="249" y="-10" on="0"/>
        <pt x="184" y="-4" on="0"/>
        <pt x="111" y="35" on="0"/>
        <pt x="66" y="120" on="0"/>
        <pt x="66" y="183" on="1"/>
        <pt x="66" y="504" on="1"/>
        <pt x="66" y="580" on="0"/>
        <pt x="109" y="658" on="0"/>
        <pt x="153" y="685" on="1"/>
        <pt x="198" y="710" on="0"/>
        <pt x="260" y="710" on="1"/>
        <pt x="337" y="710" on="0"/>
        <pt x="402" y="677" on="1"/>
        <pt x="376" y="599" on="1"/>
        <pt x="328" y="617" on="0"/>
        <pt x="225" y="617" on="0"/>
        <pt x="157" y="566" on="0"/>
        <pt x="157" y="513" on="1"/>
        <pt x="157" y="185" on="1"/>
        <pt x="157" y="140" on="0"/>
        <pt x="179" y="115" on="1"/>
        <pt x="207" y="83" on="0"/>
        <pt x="331" y="83" on="0"/>
      </contour>
      <contour>
        <pt x="290" y="734" on="1"/>
        <pt x="227" y="734" on="1"/>
        <pt x="275" y="845" on="1"/>
        <pt x="287" y="875" on="0"/>
        <pt x="320" y="875" on="1"/>
        <pt x="327" y="875" on="0"/>
        <pt x="334" y="872" on="1"/>
        <pt x="358" y="862" on="0"/>
        <pt x="358" y="823" on="0"/>
        <pt x="346" y="807" on="1"/>
      </contour>
    </TTGlyph>
    <TTGlyph name="Ccaron" xMin="66" yMin="-10" xMax="427" yMax="914">
      <contour>
        <pt x="412" y="107" on="1"/>
        <pt x="427" y="23" on="1"/>
        <pt x="342" y="-10" on="0"/>
        <pt x="265" y="-10" on="1"/>
        <pt x="249" y="-10" on="0"/>
        <pt x="184" y="-4" on="0"/>
        <pt x="111" y="35" on="0"/>
        <pt x="66" y="120" on="0"/>
        <pt x="66" y="183" on="1"/>
        <pt x="66" y="504" on="1"/>
        <pt x="66" y="580" on="0"/>
        <pt x="109" y="658" on="0"/>
        <pt x="153" y="685" on="1"/>
        <pt x="198" y="710" on="0"/>
        <pt x="260" y="710" on="1"/>
        <pt x="337" y="710" on="0"/>
        <pt x="402" y="677" on="1"/>
        <pt x="376" y="599" on="1"/>
        <pt x="328" y="617" on="0"/>
        <pt x="225" y="617" on="0"/>
        <pt x="157" y="566" on="0"/>
        <pt x="157" y="513" on="1"/>
        <pt x="157" y="185" on="1"/>
        <pt x="157" y="140" on="0"/>
        <pt x="179" y="115" on="1"/>
        <pt x="207" y="83" on="0"/>
        <pt x="331" y="83" on="0"/>
      </contour>
      <contour>
        <pt x="398" y="875" on="1"/>
        <pt x="256" y="734" on="1"/>
        <pt x="108" y="875" on="1"/>
        <pt x="164" y="914" on="1"/>
        <pt x="255" y="823" on="1"/>
        <pt x="341" y="914" on="1"/>
      </contour>
    </TTGlyph>
    <TTGlyph name="Ccedilla" xMin="66" yMin="-224" xMax="427" yMax="710">
      <contour>
        <pt x="412" y="107" on="1"/>
        <pt x="427" y="23" on="1"/>
        <pt x="345" y="-9" on="0"/>
        <pt x="266" y="-10" on="1"/>
        <pt x="242" y="-44" on="1"/>
        <pt x="258" y="-37" on="0"/>
        <pt x="311" y="-37" on="0"/>
        <pt x="361" y="-82" on="0"/>
        <pt x="361" y="-175" on="0"/>
        <pt x="278" y="-224" on="0"/>
        <pt x="183" y="-224" on="0"/>
        <pt x="128" y="-204" on="1"/>
        <pt x="159" y="-138" on="1"/>
        <pt x="196" y="-163" on="0"/>
        <pt x="228" y="-163" on="1"/>
        <pt x="297" y="-163" on="0"/>
        <pt x="297" y="-122" on="1"/>
        <pt x="297" y="-100" on="0"/>
        <pt x="277" y="-93" on="1"/>
        <pt x="271" y="-91" on="0"/>
        <pt x="246" y="-91" on="0"/>
        <pt x="222" y="-101" on="1"/>
        <pt x="181" y="-120" on="1"/>
        <pt x="152" y="-78" on="1"/>
        <pt x="208" y="-6" on="1"/>
        <pt x="143" y="6" on="0"/>
        <pt x="66" y="98" on="0"/>
        <pt x="66" y="183" on="1"/>
        <pt x="66" y="504" on="1"/>
        <pt x="66" y="580" on="0"/>
        <pt x="109" y="658" on="0"/>
        <pt x="153" y="685" on="1"/>
        <pt x="198" y="710" on="0"/>
        <pt x="260" y="710" on="1"/>
        <pt x="337" y="710" on="0"/>
        <pt x="402" y="677" on="1"/>
        <pt x="376" y="599" on="1"/>
        <pt x="328" y="617" on="0"/>
        <pt x="225" y="617" on="0"/>
        <pt x="157" y="566" on="0"/>
        <pt x="157" y="513" on="1"/>
        <pt x="157" y="185" on="1"/>
        <pt x="157" y="140" on="0"/>
        <pt x="179" y="115" on="1"/>
        <pt x="207" y="83" on="0"/>
        <pt x="331" y="83" on="0"/>
      </contour>
    </TTGlyph>
    <TTGlyph name="Ccircumflex" xMin="66" yMin="-10" xMax="427" yMax="912">
      <contour>
        <pt x="402" y="771" on="1"/>
        <pt x="345" y="732" on="1"/>
        <pt x="259" y="822" on="1"/>
        <pt x="168" y="732" on="1"/>
        <pt x="112" y="771" on="1"/>
        <pt x="260" y="912" on="1"/>
      </contour>
      <contour>
        <pt x="412" y="107" on="1"/>
        <pt x="427" y="23" on="1"/>
        <pt x="342" y="-10" on="0"/>
        <pt x="265" y="-10" on="1"/>
        <pt x="249" y="-10" on="0"/>
        <pt x="184" y="-4" on="0"/>
        <pt x="111" y="35" on="0"/>
        <pt x="66" y="120" on="0"/>
        <pt x="66" y="183" on="1"/>
        <pt x="66" y="504" on="1"/>
        <pt x="66" y="580" on="0"/>
        <pt x="109" y="658" on="0"/>
        <pt x="153" y="685" on="1"/>
        <pt x="198" y="710" on="0"/>
        <pt x="260" y="710" on="1"/>
        <pt x="337" y="710" on="0"/>
        <pt x="402" y="677" on="1"/>
        <pt x="376" y="599" on="1"/>
        <pt x="328" y="617" on="0"/>
        <pt x="225" y="617" on="0"/>
        <pt x="157" y="566" on="0"/>
        <pt x="157" y="513" on="1"/>
        <pt x="157" y="185" on="1"/>
        <pt x="157" y="140" on="0"/>
        <pt x="179" y="115" on="1"/>
        <pt x="207" y="83" on="0"/>
        <pt x="331" y="83" on="0"/>
      </contour>
    </TTGlyph>
    <TTGlyph name="Cdotaccent" xMin="66" yMin="-10" xMax="427" yMax="830">
      <contour>
        <pt x="412" y="107" on="1"/>
        <pt x="427" y="23" on="1"/>
        <pt x="342" y="-10" on="0"/>
        <pt x="265" y="-10" on="1"/>
        <pt x="249" y="-10" on="0"/>
        <pt x="184" y="-4" on="0"/>
        <pt x="111" y="35" on="0"/>
        <pt x="66" y="120" on="0"/>
        <pt x="66" y="183" on="1"/>
        <pt x="66" y="504" on="1"/>
        <pt x="66" y="580" on="0"/>
        <pt x="109" y="658" on="0"/>
        <pt x="153" y="685" on="1"/>
        <pt x="198" y="710" on="0"/>
        <pt x="260" y="710" on="1"/>
        <pt x="337" y="710" on="0"/>
        <pt x="402" y="677" on="1"/>
        <pt x="376" y="599" on="1"/>
        <pt x="328" y="617" on="0"/>
        <pt x="225" y="617" on="0"/>
        <pt x="157" y="566" on="0"/>
        <pt x="157" y="513" on="1"/>
        <pt x="157" y="185" on="1"/>
        <pt x="157" y="140" on="0"/>
        <pt x="179" y="115" on="1"/>
        <pt x="207" y="83" on="0"/>
        <pt x="331" y="83" on="0"/>
      </contour>
      <contour>
        <pt x="315" y="761" on="0"/>
        <pt x="285" y="730" on="0"/>
        <pt x="246" y="730" on="0"/>
        <pt x="215" y="761" on="0"/>
        <pt x="215" y="800" on="0"/>
        <pt x="246" y="830" on="0"/>
        <pt x="286" y="830" on="0"/>
        <pt x="315" y="800" on="0"/>
      </contour>
    </TTGlyph>
    <TTGlyph name="Chi" xMin="78" yMin="0" xMax="630" yMax="700">
      <contour>
        <pt x="630" y="0" on="1"/>
        <pt x="515" y="0" on="1"/>
        <pt x="351" y="261" on="1"/>
        <pt x="191" y="0" on="1"/>
        <pt x="78" y="0" on="1"/>
        <pt x="297" y="351" on="1"/>
        <pt x="92" y="700" on="1"/>
        <pt x="199" y="700" on="1"/>
        <pt x="355" y="446" on="1"/>
        <pt x="507" y="700" on="1"/>
        <pt x="614" y="700" on="1"/>
        <pt x="410" y="357" on="1"/>
      </contour>
    </TTGlyph>
    <TTGlyph name="D" xMin="78" yMin="0" xMax="498" yMax="701">
      <contour>
        <pt x="286" y="0" on="1"/>
        <pt x="78" y="0" on="1"/>
        <pt x="78" y="701" on="1"/>
        <pt x="266" y="701" on="1"/>
        <pt x="379" y="701" on="0"/>
        <pt x="498" y="577" on="0"/>
        <pt x="498" y="474" on="1"/>
        <pt x="498" y="200" on="1"/>
        <pt x="498" y="0" on="0"/>
      </contour>
      <contour>
        <pt x="407" y="190" on="1"/>
        <pt x="407" y="484" on="1"/>
        <pt x="407" y="549" on="0"/>
        <pt x="336" y="611" on="0"/>
        <pt x="276" y="611" on="1"/>
        <pt x="169" y="611" on="1"/>
        <pt x="169" y="83" on="1"/>
        <pt x="270" y="83" on="1"/>
        <pt x="346" y="83" on="0"/>
        <pt x="407" y="137" on="0"/>
      </contour>
    </TTGlyph>
    <TTGlyph name="Dcaron" xMin="78" yMin="0" xMax="498" yMax="914">
      <contour>
        <pt x="286" y="0" on="1"/>
        <pt x="78" y="0" on="1"/>
        <pt x="78" y="701" on="1"/>
        <pt x="266" y="701" on="1"/>
        <pt x="379" y="701" on="0"/>
        <pt x="498" y="577" on="0"/>
        <pt x="498" y="474" on="1"/>
        <pt x="498" y="200" on="1"/>
        <pt x="498" y="0" on="0"/>
      </contour>
      <contour>
        <pt x="407" y="190" on="1"/>
        <pt x="407" y="484" on="1"/>
        <pt x="407" y="549" on="0"/>
        <pt x="336" y="611" on="0"/>
        <pt x="276" y="611" on="1"/>
        <pt x="169" y="611" on="1"/>
        <pt x="169" y="83" on="1"/>
        <pt x="270" y="83" on="1"/>
        <pt x="346" y="83" on="0"/>
        <pt x="407" y="137" on="0"/>
      </contour>
      <contour>
        <pt x="416" y="875" on="1"/>
        <pt x="274" y="734" on="1"/>
        <pt x="126" y="875" on="1"/>
        <pt x="182" y="914" on="1"/>
        <pt x="273" y="823" on="1"/>
        <pt x="359" y="914" on="1"/>
      </contour>
    </TTGlyph>
    <TTGlyph name="Dcroat" xMin="78" yMin="0" xMax="498" yMax="809">
      <contour>
        <pt x="286" y="0" on="1"/>
        <pt x="78" y="0" on="1"/>
        <pt x="78" y="701" on="1"/>
        <pt x="266" y="701" on="1"/>
        <pt x="379" y="701" on="0"/>
        <pt x="498" y="577" on="0"/>
        <pt x="498" y="474" on="1"/>
        <pt x="498" y="200" on="1"/>
        <pt x="498" y="0" on="0"/>
      </contour>
      <contour>
        <pt x="407" y="190" on="1"/>
        <pt x="407" y="484" on="1"/>
        <pt x="407" y="549" on="0"/>
        <pt x="336" y="611" on="0"/>
        <pt x="276" y="611" on="1"/>
        <pt x="169" y="611" on="1"/>
        <pt x="169" y="83" on="1"/>
        <pt x="270" y="83" on="1"/>
        <pt x="346" y="83" on="0"/>
        <pt x="407" y="137" on="0"/>
      </contour>
      <contour>
        <pt x="392" y="730" on="1"/>
        <pt x="175" y="730" on="1"/>
        <pt x="175" y="809" on="1"/>
        <pt x="392" y="809" on="1"/>
      </contour>
    </TTGlyph>
    <TTGlyph name="Delta" xMin="78" yMin="0" xMax="583" yMax="700">
      <contour>
        <pt x="583" y="0" on="1"/>
        <pt x="78" y="0" on="1"/>
        <pt x="281" y="700" on="1"/>
        <pt x="371" y="700" on="1"/>
      </contour>
      <contour>
        <pt x="460" y="83" on="1"/>
        <pt x="329" y="528" on="1"/>
        <pt x="201" y="83" on="1"/>
      </contour>
    </TTGlyph>
    <TTGlyph name="E" xMin="78" yMin="0" xMax="412" yMax="700">
      <contour>
        <pt x="410" y="0" on="1"/>
        <pt x="78" y="0" on="1"/>
        <pt x="78" y="700" on="1"/>
        <pt x="412" y="700" on="1"/>
        <pt x="412" y="610" on="1"/>
        <pt x="169" y="610" on="1"/>
        <pt x="169" y="413" on="1"/>
        <pt x="325" y="413" on="1"/>
        <pt x="298" y="325" on="1"/>
        <pt x="169" y="325" on="1"/>
        <pt x="169" y="82" on="1"/>
        <pt x="410" y="82" on="1"/>
      </contour>
    </TTGlyph>
    <TTGlyph name="Eacute" xMin="78" yMin="0" xMax="412" yMax="871">
      <contour>
        <pt x="410" y="0" on="1"/>
        <pt x="78" y="0" on="1"/>
        <pt x="78" y="700" on="1"/>
        <pt x="412" y="700" on="1"/>
        <pt x="412" y="610" on="1"/>
        <pt x="169" y="610" on="1"/>
        <pt x="169" y="413" on="1"/>
        <pt x="325" y="413" on="1"/>
        <pt x="298" y="325" on="1"/>
        <pt x="169" y="325" on="1"/>
        <pt x="169" y="82" on="1"/>
        <pt x="410" y="82" on="1"/>
      </contour>
      <contour>
        <pt x="300" y="730" on="1"/>
        <pt x="237" y="730" on="1"/>
        <pt x="285" y="841" on="1"/>
        <pt x="297" y="871" on="0"/>
        <pt x="330" y="871" on="1"/>
        <pt x="337" y="871" on="0"/>
        <pt x="344" y="868" on="1"/>
        <pt x="368" y="858" on="0"/>
        <pt x="368" y="819" on="0"/>
        <pt x="356" y="803" on="1"/>
      </contour>
    </TTGlyph>
    <TTGlyph name="Ecaron" xMin="78" yMin="0" xMax="412" yMax="914">
      <contour>
        <pt x="410" y="0" on="1"/>
        <pt x="78" y="0" on="1"/>
        <pt x="78" y="700" on="1"/>
        <pt x="412" y="700" on="1"/>
        <pt x="412" y="610" on="1"/>
        <pt x="169" y="610" on="1"/>
        <pt x="169" y="413" on="1"/>
        <pt x="325" y="413" on="1"/>
        <pt x="298" y="325" on="1"/>
        <pt x="169" y="325" on="1"/>
        <pt x="169" y="82" on="1"/>
        <pt x="410" y="82" on="1"/>
      </contour>
      <contour>
        <pt x="392" y="875" on="1"/>
        <pt x="250" y="734" on="1"/>
        <pt x="102" y="875" on="1"/>
        <pt x="158" y="914" on="1"/>
        <pt x="249" y="823" on="1"/>
        <pt x="335" y="914" on="1"/>
      </contour>
    </TTGlyph>
    <TTGlyph name="Ecircumflex" xMin="78" yMin="0" xMax="412" yMax="912">
      <contour>
        <pt x="410" y="0" on="1"/>
        <pt x="78" y="0" on="1"/>
        <pt x="78" y="700" on="1"/>
        <pt x="412" y="700" on="1"/>
        <pt x="412" y="610" on="1"/>
        <pt x="169" y="610" on="1"/>
        <pt x="169" y="413" on="1"/>
        <pt x="325" y="413" on="1"/>
        <pt x="298" y="325" on="1"/>
        <pt x="169" y="325" on="1"/>
        <pt x="169" y="82" on="1"/>
        <pt x="410" y="82" on="1"/>
      </contour>
      <contour>
        <pt x="392" y="771" on="1"/>
        <pt x="335" y="732" on="1"/>
        <pt x="249" y="822" on="1"/>
        <pt x="158" y="732" on="1"/>
        <pt x="102" y="771" on="1"/>
        <pt x="250" y="912" on="1"/>
      </contour>
    </TTGlyph>
    <TTGlyph name="Edieresis" xMin="78" yMin="0" xMax="412" yMax="813">
      <contour>
        <pt x="410" y="0" on="1"/>
        <pt x="78" y="0" on="1"/>
        <pt x="78" y="700" on="1"/>
        <pt x="412" y="700" on="1"/>
        <pt x="412" y="610" on="1"/>
        <pt x="169" y="610" on="1"/>
        <pt x="169" y="413" on="1"/>
        <pt x="325" y="413" on="1"/>
        <pt x="298" y="325" on="1"/>
        <pt x="169" y="325" on="1"/>
        <pt x="169" y="82" on="1"/>
        <pt x="410" y="82" on="1"/>
      </contour>
      <contour>
        <pt x="212" y="788" on="0"/>
        <pt x="212" y="754" on="0"/>
        <pt x="188" y="731" on="0"/>
        <pt x="154" y="731" on="0"/>
        <pt x="131" y="754" on="0"/>
        <pt x="131" y="788" on="0"/>
        <pt x="154" y="812" on="0"/>
        <pt x="188" y="812" on="0"/>
      </contour>
      <contour>
        <pt x="329" y="731" on="0"/>
        <pt x="295" y="731" on="0"/>
        <pt x="271" y="755" on="0"/>
        <pt x="271" y="788" on="0"/>
        <pt x="296" y="813" on="0"/>
        <pt x="329" y="813" on="0"/>
        <pt x="353" y="789" on="0"/>
        <pt x="353" y="755" on="0"/>
      </contour>
    </TTGlyph>
    <TTGlyph name="Edotaccent" xMin="78" yMin="0" xMax="412" yMax="830">
      <contour>
        <pt x="410" y="0" on="1"/>
        <pt x="78" y="0" on="1"/>
        <pt x="78" y="700" on="1"/>
        <pt x="412" y="700" on="1"/>
        <pt x="412" y="610" on="1"/>
        <pt x="169" y="610" on="1"/>
        <pt x="169" y="413" on="1"/>
        <pt x="325" y="413" on="1"/>
        <pt x="298" y="325" on="1"/>
        <pt x="169" y="325" on="1"/>
        <pt x="169" y="82" on="1"/>
        <pt x="410" y="82" on="1"/>
      </contour>
      <contour>
        <pt x="305" y="761" on="0"/>
        <pt x="275" y="730" on="0"/>
        <pt x="236" y="730" on="0"/>
        <pt x="205" y="761" on="0"/>
        <pt x="205" y="800" on="0"/>
        <pt x="236" y="830" on="0"/>
        <pt x="276" y="830" on="0"/>
        <pt x="305" y="800" on="0"/>
      </contour>
    </TTGlyph>
    <TTGlyph name="Egrave" xMin="78" yMin="0" xMax="412" yMax="873">
      <contour>
        <pt x="410" y="0" on="1"/>
        <pt x="78" y="0" on="1"/>
        <pt x="78" y="700" on="1"/>
        <pt x="412" y="700" on="1"/>
        <pt x="412" y="610" on="1"/>
        <pt x="169" y="610" on="1"/>
        <pt x="169" y="413" on="1"/>
        <pt x="325" y="413" on="1"/>
        <pt x="298" y="325" on="1"/>
        <pt x="169" y="325" on="1"/>
        <pt x="169" y="82" on="1"/>
        <pt x="410" y="82" on="1"/>
      </contour>
      <contour>
        <pt x="276" y="732" on="1"/>
        <pt x="213" y="732" on="1"/>
        <pt x="157" y="805" on="1"/>
        <pt x="145" y="821" on="0"/>
        <pt x="145" y="830" on="1"/>
        <pt x="145" y="860" on="0"/>
        <pt x="169" y="870" on="1"/>
        <pt x="176" y="873" on="0"/>
        <pt x="184" y="873" on="1"/>
        <pt x="216" y="873" on="0"/>
        <pt x="228" y="843" on="1"/>
      </contour>
    </TTGlyph>
    <TTGlyph name="Emacron" xMin="78" yMin="0" xMax="412" yMax="809">
      <contour>
        <pt x="410" y="0" on="1"/>
        <pt x="78" y="0" on="1"/>
        <pt x="78" y="700" on="1"/>
        <pt x="412" y="700" on="1"/>
        <pt x="412" y="610" on="1"/>
        <pt x="169" y="610" on="1"/>
        <pt x="169" y="413" on="1"/>
        <pt x="325" y="413" on="1"/>
        <pt x="298" y="325" on="1"/>
        <pt x="169" y="325" on="1"/>
        <pt x="169" y="82" on="1"/>
        <pt x="410" y="82" on="1"/>
      </contour>
      <contour>
        <pt x="352" y="730" on="1"/>
        <pt x="135" y="730" on="1"/>
        <pt x="135" y="809" on="1"/>
        <pt x="352" y="809" on="1"/>
      </contour>
    </TTGlyph>
    <TTGlyph name="Eng" xMin="78" yMin="-37" xMax="570" yMax="700">
      <contour>
        <pt x="478" y="186" on="1"/>
        <pt x="478" y="612" on="1"/>
        <pt x="417" y="614" on="1"/>
        <pt x="417" y="700" on="1"/>
        <pt x="570" y="700" on="1"/>
        <pt x="570" y="147" on="1"/>
        <pt x="570" y="56" on="0"/>
        <pt x="478" y="-36" on="0"/>
        <pt x="411" y="-37" on="1"/>
        <pt x="400" y="-3" on="0"/>
        <pt x="383" y="37" on="1"/>
        <pt x="422" y="37" on="0"/>
        <pt x="445" y="56" on="1"/>
        <pt x="224" y="424" on="0"/>
        <pt x="169" y="516" on="1"/>
        <pt x="169" y="0" on="1"/>
        <pt x="78" y="0" on="1"/>
        <pt x="78" y="700" on="1"/>
        <pt x="169" y="700" on="1"/>
        <pt x="338" y="429" on="0"/>
      </contour>
    </TTGlyph>
    <TTGlyph name="Eogonek" xMin="78" yMin="-213" xMax="444" yMax="700">
      <contour>
        <pt x="399" y="-115" on="1"/>
        <pt x="444" y="-163" on="1"/>
        <pt x="412" y="-213" on="0"/>
        <pt x="339" y="-213" on="1"/>
        <pt x="310" y="-213" on="0"/>
        <pt x="250" y="-170" on="0"/>
        <pt x="250" y="-128" on="1"/>
        <pt x="250" y="-125" on="0"/>
        <pt x="250" y="-122" on="1"/>
        <pt x="250" y="-59" on="0"/>
        <pt x="344" y="0" on="1"/>
        <pt x="78" y="0" on="1"/>
        <pt x="78" y="700" on="1"/>
        <pt x="412" y="700" on="1"/>
        <pt x="412" y="610" on="1"/>
        <pt x="169" y="610" on="1"/>
        <pt x="169" y="413" on="1"/>
        <pt x="325" y="413" on="1"/>
        <pt x="298" y="325" on="1"/>
        <pt x="169" y="325" on="1"/>
        <pt x="169" y="82" on="1"/>
        <pt x="410" y="82" on="1"/>
        <pt x="410" y="0" on="1"/>
        <pt x="409" y="0" on="1"/>
        <pt x="313" y="-80" on="0"/>
        <pt x="314" y="-121" on="1"/>
        <pt x="316" y="-152" on="0"/>
        <pt x="380" y="-152" on="0"/>
      </contour>
    </TTGlyph>
    <TTGlyph name="Epsilon" xMin="78" yMin="0" xMax="412" yMax="700">
      <contour>
        <pt x="410" y="0" on="1"/>
        <pt x="78" y="0" on="1"/>
        <pt x="78" y="700" on="1"/>
        <pt x="412" y="700" on="1"/>
        <pt x="412" y="610" on="1"/>
        <pt x="169" y="610" on="1"/>
        <pt x="169" y="413" on="1"/>
        <pt x="325" y="413" on="1"/>
        <pt x="298" y="325" on="1"/>
        <pt x="169" y="325" on="1"/>
        <pt x="169" y="82" on="1"/>
        <pt x="410" y="82" on="1"/>
      </contour>
    </TTGlyph>
    <TTGlyph name="Epsilontonos" xMin="78" yMin="0" xMax="579" yMax="709">
      <contour>
        <pt x="141" y="568" on="1"/>
        <pt x="78" y="568" on="1"/>
        <pt x="126" y="679" on="1"/>
        <pt x="138" y="709" on="0"/>
        <pt x="171" y="709" on="1"/>
        <pt x="178" y="709" on="0"/>
        <pt x="185" y="706" on="1"/>
        <pt x="209" y="696" on="0"/>
        <pt x="209" y="657" on="0"/>
        <pt x="197" y="641" on="1"/>
      </contour>
      <contour>
        <pt x="577" y="0" on="1"/>
        <pt x="245" y="0" on="1"/>
        <pt x="245" y="700" on="1"/>
        <pt x="579" y="700" on="1"/>
        <pt x="579" y="610" on="1"/>
        <pt x="336" y="610" on="1"/>
        <pt x="336" y="413" on="1"/>
        <pt x="492" y="413" on="1"/>
        <pt x="465" y="325" on="1"/>
        <pt x="336" y="325" on="1"/>
        <pt x="336" y="82" on="1"/>
        <pt x="577" y="82" on="1"/>
      </contour>
    </TTGlyph>
    <TTGlyph name="Eta" xMin="80" yMin="0" xMax="510" yMax="700">
      <contour>
        <pt x="510" y="0" on="1"/>
        <pt x="420" y="0" on="1"/>
        <pt x="420" y="325" on="1"/>
        <pt x="171" y="325" on="1"/>
        <pt x="171" y="0" on="1"/>
        <pt x="80" y="0" on="1"/>
        <pt x="80" y="700" on="1"/>
        <pt x="171" y="700" on="1"/>
        <pt x="171" y="413" on="1"/>
        <pt x="420" y="413" on="1"/>
        <pt x="420" y="700" on="1"/>
        <pt x="510" y="700" on="1"/>
      </contour>
    </TTGlyph>
    <TTGlyph name="Etatonos" xMin="78" yMin="0" xMax="677" yMax="709">
      <contour>
        <pt x="141" y="568" on="1"/>
        <pt x="78" y="568" on="1"/>
        <pt x="126" y="679" on="1"/>
        <pt x="138" y="709" on="0"/>
        <pt x="171" y="709" on="1"/>
        <pt x="178" y="709" on="0"/>
        <pt x="185" y="706" on="1"/>
        <pt x="209" y="696" on="0"/>
        <pt x="209" y="657" on="0"/>
        <pt x="197" y="641" on="1"/>
      </contour>
      <contour>
        <pt x="677" y="0" on="1"/>
        <pt x="587" y="0" on="1"/>
        <pt x="587" y="325" on="1"/>
        <pt x="338" y="325" on="1"/>
        <pt x="338" y="0" on="1"/>
        <pt x="247" y="0" on="1"/>
        <pt x="247" y="700" on="1"/>
        <pt x="338" y="700" on="1"/>
        <pt x="338" y="413" on="1"/>
        <pt x="587" y="413" on="1"/>
        <pt x="587" y="700" on="1"/>
        <pt x="677" y="700" on="1"/>
      </contour>
    </TTGlyph>
    <TTGlyph name="Eth" xMin="78" yMin="0" xMax="605" yMax="701">
      <contour>
        <pt x="335" y="0" on="1"/>
        <pt x="127" y="0" on="1"/>
        <pt x="127" y="425" on="1"/>
        <pt x="78" y="425" on="1"/>
        <pt x="78" y="513" on="1"/>
        <pt x="127" y="513" on="1"/>
        <pt x="127" y="701" on="1"/>
        <pt x="315" y="701" on="1"/>
        <pt x="416" y="701" on="0"/>
        <pt x="533" y="599" on="0"/>
        <pt x="544" y="513" on="1"/>
        <pt x="605" y="513" on="1"/>
        <pt x="605" y="425" on="1"/>
        <pt x="547" y="425" on="1"/>
        <pt x="547" y="200" on="1"/>
        <pt x="547" y="0" on="0"/>
      </contour>
      <contour>
        <pt x="456" y="190" on="1"/>
        <pt x="456" y="425" on="1"/>
        <pt x="218" y="425" on="1"/>
        <pt x="218" y="83" on="1"/>
        <pt x="319" y="83" on="1"/>
        <pt x="395" y="83" on="0"/>
        <pt x="456" y="137" on="0"/>
      </contour>
      <contour>
        <pt x="325" y="611" on="1"/>
        <pt x="218" y="611" on="1"/>
        <pt x="218" y="513" on="1"/>
        <pt x="454" y="513" on="1"/>
        <pt x="438" y="611" on="0"/>
      </contour>
    </TTGlyph>
    <TTGlyph name="Euro" xMin="78" yMin="-14" xMax="498" yMax="706">
      <contour>
        <pt x="483" y="103" on="1"/>
        <pt x="498" y="19" on="1"/>
        <pt x="413" y="-14" on="0"/>
        <pt x="336" y="-14" on="1"/>
        <pt x="320" y="-14" on="0"/>
        <pt x="255" y="-8" on="0"/>
        <pt x="182" y="31" on="0"/>
        <pt x="137" y="116" on="0"/>
        <pt x="137" y="179" on="1"/>
        <pt x="137" y="217" on="1"/>
        <pt x="78" y="217" on="1"/>
        <pt x="78" y="305" on="1"/>
        <pt x="137" y="305" on="1"/>
        <pt x="137" y="353" on="1"/>
        <pt x="78" y="353" on="1"/>
        <pt x="78" y="441" on="1"/>
        <pt x="137" y="441" on="1"/>
        <pt x="137" y="500" on="1"/>
        <pt x="137" y="576" on="0"/>
        <pt x="180" y="654" on="0"/>
        <pt x="224" y="681" on="1"/>
        <pt x="269" y="706" on="0"/>
        <pt x="331" y="706" on="1"/>
        <pt x="408" y="706" on="0"/>
        <pt x="473" y="673" on="1"/>
        <pt x="447" y="595" on="1"/>
        <pt x="399" y="613" on="0"/>
        <pt x="296" y="613" on="0"/>
        <pt x="228" y="562" on="0"/>
        <pt x="228" y="509" on="1"/>
        <pt x="228" y="441" on="1"/>
        <pt x="398" y="441" on="1"/>
        <pt x="398" y="353" on="1"/>
        <pt x="228" y="353" on="1"/>
        <pt x="228" y="305" on="1"/>
        <pt x="398" y="305" on="1"/>
        <pt x="398" y="217" on="1"/>
        <pt x="228" y="217" on="1"/>
        <pt x="228" y="181" on="1"/>
        <pt x="228" y="136" on="0"/>
        <pt x="250" y="111" on="1"/>
        <pt x="278" y="79" on="0"/>
        <pt x="402" y="79" on="0"/>
      </contour>
    </TTGlyph>
    <TTGlyph name="F" xMin="78" yMin="0" xMax="412" yMax="700">
      <contour>
        <pt x="169" y="0" on="1"/>
        <pt x="78" y="0" on="1"/>
        <pt x="78" y="700" on="1"/>
        <pt x="412" y="700" on="1"/>
        <pt x="412" y="610" on="1"/>
        <pt x="169" y="610" on="1"/>
        <pt x="169" y="413" on="1"/>
        <pt x="320" y="413" on="1"/>
        <pt x="288" y="325" on="1"/>
        <pt x="169" y="325" on="1"/>
      </contour>
    </TTGlyph>
    <TTGlyph name="G" xMin="65" yMin="-10" xMax="476" yMax="709">
      <contour>
        <pt x="476" y="0" on="1"/>
        <pt x="394" y="0" on="1"/>
        <pt x="385" y="20" on="1"/>
        <pt x="341" y="-10" on="0"/>
        <pt x="276" y="-10" on="1"/>
        <pt x="188" y="-10" on="0"/>
        <pt x="65" y="90" on="0"/>
        <pt x="65" y="189" on="1"/>
        <pt x="65" y="503" on="1"/>
        <pt x="65" y="631" on="0"/>
        <pt x="152" y="684" on="1"/>
        <pt x="197" y="709" on="0"/>
        <pt x="259" y="709" on="1"/>
        <pt x="336" y="709" on="0"/>
        <pt x="401" y="676" on="1"/>
        <pt x="374" y="598" on="1"/>
        <pt x="323" y="617" on="0"/>
        <pt x="277" y="617" on="1"/>
        <pt x="156" y="617" on="0"/>
        <pt x="156" y="512" on="1"/>
        <pt x="156" y="187" on="1"/>
        <pt x="156" y="81" on="0"/>
        <pt x="275" y="81" on="1"/>
        <pt x="323" y="81" on="0"/>
        <pt x="386" y="133" on="0"/>
        <pt x="386" y="186" on="1"/>
        <pt x="386" y="212" on="1"/>
        <pt x="326" y="212" on="1"/>
        <pt x="296" y="300" on="1"/>
        <pt x="476" y="300" on="1"/>
      </contour>
    </TTGlyph>
    <TTGlyph name="Gamma" xMin="78" yMin="0" xMax="412" yMax="700">
      <contour>
        <pt x="170" y="0" on="1"/>
        <pt x="78" y="0" on="1"/>
        <pt x="78" y="700" on="1"/>
        <pt x="412" y="700" on="1"/>
        <pt x="412" y="610" on="1"/>
        <pt x="170" y="610" on="1"/>
      </contour>
    </TTGlyph>
    <TTGlyph name="Gbreve" xMin="65" yMin="-10" xMax="476" yMax="846">
      <contour>
        <pt x="476" y="0" on="1"/>
        <pt x="394" y="0" on="1"/>
        <pt x="385" y="20" on="1"/>
        <pt x="341" y="-10" on="0"/>
        <pt x="276" y="-10" on="1"/>
        <pt x="188" y="-10" on="0"/>
        <pt x="65" y="90" on="0"/>
        <pt x="65" y="189" on="1"/>
        <pt x="65" y="503" on="1"/>
        <pt x="65" y="631" on="0"/>
        <pt x="152" y="684" on="1"/>
        <pt x="197" y="709" on="0"/>
        <pt x="259" y="709" on="1"/>
        <pt x="336" y="709" on="0"/>
        <pt x="401" y="676" on="1"/>
        <pt x="374" y="598" on="1"/>
        <pt x="323" y="617" on="0"/>
        <pt x="277" y="617" on="1"/>
        <pt x="156" y="617" on="0"/>
        <pt x="156" y="512" on="1"/>
        <pt x="156" y="187" on="1"/>
        <pt x="156" y="81" on="0"/>
        <pt x="275" y="81" on="1"/>
        <pt x="323" y="81" on="0"/>
        <pt x="386" y="133" on="0"/>
        <pt x="386" y="186" on="1"/>
        <pt x="386" y="212" on="1"/>
        <pt x="326" y="212" on="1"/>
        <pt x="296" y="300" on="1"/>
        <pt x="476" y="300" on="1"/>
      </contour>
      <contour>
        <pt x="389" y="846" on="1"/>
        <pt x="389" y="841" on="1"/>
        <pt x="389" y="794" on="0"/>
        <pt x="322" y="728" on="0"/>
        <pt x="230" y="728" on="0"/>
        <pt x="163" y="794" on="0"/>
        <pt x="163" y="841" on="1"/>
        <pt x="163" y="846" on="1"/>
        <pt x="233" y="846" on="1"/>
        <pt x="233" y="841" on="1"/>
        <pt x="233" y="819" on="0"/>
        <pt x="257" y="794" on="0"/>
        <pt x="295" y="794" on="0"/>
        <pt x="320" y="820" on="0"/>
        <pt x="320" y="841" on="1"/>
        <pt x="320" y="846" on="1"/>
      </contour>
    </TTGlyph>
    <TTGlyph name="Gcircumflex" xMin="65" yMin="-10" xMax="476" yMax="912">
      <contour>
        <pt x="476" y="0" on="1"/>
        <pt x="394" y="0" on="1"/>
        <pt x="385" y="20" on="1"/>
        <pt x="341" y="-10" on="0"/>
        <pt x="276" y="-10" on="1"/>
        <pt x="188" y="-10" on="0"/>
        <pt x="65" y="90" on="0"/>
        <pt x="65" y="189" on="1"/>
        <pt x="65" y="503" on="1"/>
        <pt x="65" y="631" on="0"/>
        <pt x="152" y="684" on="1"/>
        <pt x="197" y="709" on="0"/>
        <pt x="259" y="709" on="1"/>
        <pt x="336" y="709" on="0"/>
        <pt x="401" y="676" on="1"/>
        <pt x="374" y="598" on="1"/>
        <pt x="323" y="617" on="0"/>
        <pt x="277" y="617" on="1"/>
        <pt x="156" y="617" on="0"/>
        <pt x="156" y="512" on="1"/>
        <pt x="156" y="187" on="1"/>
        <pt x="156" y="81" on="0"/>
        <pt x="275" y="81" on="1"/>
        <pt x="323" y="81" on="0"/>
        <pt x="386" y="133" on="0"/>
        <pt x="386" y="186" on="1"/>
        <pt x="386" y="212" on="1"/>
        <pt x="326" y="212" on="1"/>
        <pt x="296" y="300" on="1"/>
        <pt x="476" y="300" on="1"/>
      </contour>
      <contour>
        <pt x="427" y="771" on="1"/>
        <pt x="370" y="732" on="1"/>
        <pt x="284" y="822" on="1"/>
        <pt x="193" y="732" on="1"/>
        <pt x="137" y="771" on="1"/>
        <pt x="285" y="912" on="1"/>
      </contour>
    </TTGlyph>
    <TTGlyph name="Gcommaaccent" xMin="65" yMin="-206" xMax="476" yMax="709">
      <contour>
        <pt x="476" y="0" on="1"/>
        <pt x="394" y="0" on="1"/>
        <pt x="385" y="20" on="1"/>
        <pt x="341" y="-10" on="0"/>
        <pt x="276" y="-10" on="1"/>
        <pt x="188" y="-10" on="0"/>
        <pt x="65" y="90" on="0"/>
        <pt x="65" y="189" on="1"/>
        <pt x="65" y="503" on="1"/>
        <pt x="65" y="631" on="0"/>
        <pt x="152" y="684" on="1"/>
        <pt x="197" y="709" on="0"/>
        <pt x="259" y="709" on="1"/>
        <pt x="336" y="709" on="0"/>
        <pt x="401" y="676" on="1"/>
        <pt x="374" y="598" on="1"/>
        <pt x="323" y="617" on="0"/>
        <pt x="277" y="617" on="1"/>
        <pt x="156" y="617" on="0"/>
        <pt x="156" y="512" on="1"/>
        <pt x="156" y="187" on="1"/>
        <pt x="156" y="81" on="0"/>
        <pt x="275" y="81" on="1"/>
        <pt x="323" y="81" on="0"/>
        <pt x="386" y="133" on="0"/>
        <pt x="386" y="186" on="1"/>
        <pt x="386" y="212" on="1"/>
        <pt x="326" y="212" on="1"/>
        <pt x="296" y="300" on="1"/>
        <pt x="476" y="300" on="1"/>
      </contour>
      <contour>
        <pt x="253" y="-206" on="1"/>
        <pt x="194" y="-177" on="1"/>
        <pt x="238" y="-152" on="0"/>
        <pt x="263" y="-125" on="1"/>
        <pt x="252" y="-122" on="1"/>
        <pt x="226" y="-107" on="0"/>
        <pt x="227" y="-58" on="0"/>
        <pt x="253" y="-33" on="0"/>
        <pt x="272" y="-33" on="1"/>
        <pt x="295" y="-33" on="0"/>
        <pt x="319" y="-69" on="0"/>
        <pt x="319" y="-89" on="1"/>
        <pt x="319" y="-148" on="0"/>
      </contour>
    </TTGlyph>
    <TTGlyph name="Gdotaccent" xMin="85" yMin="-10" xMax="496" yMax="829">
      <contour>
        <pt x="342" y="760" on="0"/>
        <pt x="312" y="729" on="0"/>
        <pt x="273" y="729" on="0"/>
        <pt x="242" y="760" on="0"/>
        <pt x="242" y="799" on="0"/>
        <pt x="273" y="829" on="0"/>
        <pt x="312" y="829" on="0"/>
        <pt x="342" y="800" on="0"/>
      </contour>
      <contour>
        <pt x="496" y="0" on="1"/>
        <pt x="414" y="0" on="1"/>
        <pt x="405" y="20" on="1"/>
        <pt x="361" y="-10" on="0"/>
        <pt x="296" y="-10" on="1"/>
        <pt x="208" y="-10" on="0"/>
        <pt x="85" y="90" on="0"/>
        <pt x="85" y="189" on="1"/>
        <pt x="85" y="503" on="1"/>
        <pt x="85" y="631" on="0"/>
        <pt x="172" y="684" on="1"/>
        <pt x="217" y="709" on="0"/>
        <pt x="279" y="709" on="1"/>
        <pt x="356" y="709" on="0"/>
        <pt x="421" y="676" on="1"/>
        <pt x="394" y="598" on="1"/>
        <pt x="343" y="617" on="0"/>
        <pt x="297" y="617" on="1"/>
        <pt x="176" y="617" on="0"/>
        <pt x="176" y="512" on="1"/>
        <pt x="176" y="187" on="1"/>
        <pt x="176" y="81" on="0"/>
        <pt x="295" y="81" on="1"/>
        <pt x="343" y="81" on="0"/>
        <pt x="406" y="133" on="0"/>
        <pt x="406" y="186" on="1"/>
        <pt x="406" y="212" on="1"/>
        <pt x="346" y="212" on="1"/>
        <pt x="316" y="300" on="1"/>
        <pt x="496" y="300" on="1"/>
      </contour>
    </TTGlyph>
    <TTGlyph name="H" xMin="78" yMin="0" xMax="508" yMax="700">
      <contour>
        <pt x="508" y="0" on="1"/>
        <pt x="418" y="0" on="1"/>
        <pt x="418" y="325" on="1"/>
        <pt x="169" y="325" on="1"/>
        <pt x="169" y="0" on="1"/>
        <pt x="78" y="0" on="1"/>
        <pt x="78" y="700" on="1"/>
        <pt x="169" y="700" on="1"/>
        <pt x="169" y="413" on="1"/>
        <pt x="418" y="413" on="1"/>
        <pt x="418" y="700" on="1"/>
        <pt x="508" y="700" on="1"/>
      </contour>
    </TTGlyph>
    <TTGlyph name="Hbar" xMin="78" yMin="0" xMax="605" yMax="700">
      <contour>
        <pt x="557" y="0" on="1"/>
        <pt x="467" y="0" on="1"/>
        <pt x="467" y="325" on="1"/>
        <pt x="218" y="325" on="1"/>
        <pt x="218" y="0" on="1"/>
        <pt x="127" y="0" on="1"/>
        <pt x="127" y="476" on="1"/>
        <pt x="78" y="476" on="1"/>
        <pt x="78" y="564" on="1"/>
        <pt x="127" y="564" on="1"/>
        <pt x="127" y="700" on="1"/>
        <pt x="218" y="700" on="1"/>
        <pt x="218" y="564" on="1"/>
        <pt x="467" y="564" on="1"/>
        <pt x="467" y="700" on="1"/>
        <pt x="557" y="700" on="1"/>
        <pt x="557" y="564" on="1"/>
        <pt x="605" y="564" on="1"/>
        <pt x="605" y="476" on="1"/>
        <pt x="557" y="476" on="1"/>
      </contour>
      <contour>
        <pt x="467" y="413" on="1"/>
        <pt x="467" y="476" on="1"/>
        <pt x="218" y="476" on="1"/>
        <pt x="218" y="413" on="1"/>
      </contour>
    </TTGlyph>
    <TTGlyph name="Hcircumflex" xMin="78" yMin="0" xMax="508" yMax="912">
      <contour>
        <pt x="508" y="0" on="1"/>
        <pt x="418" y="0" on="1"/>
        <pt x="418" y="325" on="1"/>
        <pt x="169" y="325" on="1"/>
        <pt x="169" y="0" on="1"/>
        <pt x="78" y="0" on="1"/>
        <pt x="78" y="700" on="1"/>
        <pt x="169" y="700" on="1"/>
        <pt x="169" y="413" on="1"/>
        <pt x="418" y="413" on="1"/>
        <pt x="418" y="700" on="1"/>
        <pt x="508" y="700" on="1"/>
      </contour>
      <contour>
        <pt x="450" y="771" on="1"/>
        <pt x="393" y="732" on="1"/>
        <pt x="307" y="822" on="1"/>
        <pt x="216" y="732" on="1"/>
        <pt x="160" y="771" on="1"/>
        <pt x="308" y="912" on="1"/>
      </contour>
    </TTGlyph>
    <TTGlyph name="I" xMin="63" yMin="0" xMax="218" yMax="700">
      <contour>
        <pt x="218" y="0" on="1"/>
        <pt x="126" y="0" on="1"/>
        <pt x="126" y="612" on="1"/>
        <pt x="63" y="614" on="1"/>
        <pt x="63" y="700" on="1"/>
        <pt x="218" y="700" on="1"/>
      </contour>
    </TTGlyph>
    <TTGlyph name="Iacute" xMin="78" yMin="0" xMax="291" yMax="871">
      <contour>
        <pt x="233" y="0" on="1"/>
        <pt x="141" y="0" on="1"/>
        <pt x="141" y="612" on="1"/>
        <pt x="78" y="614" on="1"/>
        <pt x="78" y="700" on="1"/>
        <pt x="233" y="700" on="1"/>
      </contour>
      <contour>
        <pt x="223" y="730" on="1"/>
        <pt x="160" y="730" on="1"/>
        <pt x="208" y="841" on="1"/>
        <pt x="220" y="871" on="0"/>
        <pt x="253" y="871" on="1"/>
        <pt x="260" y="871" on="0"/>
        <pt x="267" y="868" on="1"/>
        <pt x="291" y="858" on="0"/>
        <pt x="291" y="819" on="0"/>
        <pt x="279" y="803" on="1"/>
      </contour>
    </TTGlyph>
    <TTGlyph name="Icircumflex" xMin="78" yMin="0" xMax="368" yMax="912">
      <contour>
        <pt x="274" y="0" on="1"/>
        <pt x="182" y="0" on="1"/>
        <pt x="182" y="612" on="1"/>
        <pt x="119" y="614" on="1"/>
        <pt x="119" y="700" on="1"/>
        <pt x="274" y="700" on="1"/>
      </contour>
      <contour>
        <pt x="368" y="771" on="1"/>
        <pt x="311" y="732" on="1"/>
        <pt x="225" y="822" on="1"/>
        <pt x="134" y="732" on="1"/>
        <pt x="78" y="771" on="1"/>
        <pt x="226" y="912" on="1"/>
      </contour>
    </TTGlyph>
    <TTGlyph name="Idieresis" xMin="78" yMin="0" xMax="300" yMax="811">
      <contour>
        <pt x="250" y="0" on="1"/>
        <pt x="158" y="0" on="1"/>
        <pt x="158" y="612" on="1"/>
        <pt x="95" y="614" on="1"/>
        <pt x="95" y="700" on="1"/>
        <pt x="250" y="700" on="1"/>
      </contour>
      <contour>
        <pt x="159" y="786" on="0"/>
        <pt x="159" y="752" on="0"/>
        <pt x="135" y="729" on="0"/>
        <pt x="102" y="729" on="0"/>
        <pt x="78" y="752" on="0"/>
        <pt x="78" y="786" on="0"/>
        <pt x="101" y="810" on="0"/>
        <pt x="135" y="810" on="0"/>
      </contour>
      <contour>
        <pt x="276" y="729" on="0"/>
        <pt x="242" y="729" on="0"/>
        <pt x="218" y="753" on="0"/>
        <pt x="218" y="786" on="0"/>
        <pt x="242" y="811" on="0"/>
        <pt x="276" y="811" on="0"/>
        <pt x="300" y="787" on="0"/>
        <pt x="300" y="753" on="0"/>
      </contour>
    </TTGlyph>
    <TTGlyph name="Idotaccent" xMin="78" yMin="0" xMax="240" yMax="830">
      <contour>
        <pt x="233" y="0" on="1"/>
        <pt x="141" y="0" on="1"/>
        <pt x="141" y="612" on="1"/>
        <pt x="78" y="614" on="1"/>
        <pt x="78" y="700" on="1"/>
        <pt x="233" y="700" on="1"/>
      </contour>
      <contour>
        <pt x="240" y="761" on="0"/>
        <pt x="210" y="730" on="0"/>
        <pt x="171" y="730" on="0"/>
        <pt x="140" y="761" on="0"/>
        <pt x="140" y="800" on="0"/>
        <pt x="171" y="830" on="0"/>
        <pt x="210" y="830" on="0"/>
        <pt x="240" y="800" on="0"/>
      </contour>
    </TTGlyph>
    <TTGlyph name="Igrave" xMin="81" yMin="0" xMax="236" yMax="873">
      <contour>
        <pt x="236" y="0" on="1"/>
        <pt x="144" y="0" on="1"/>
        <pt x="144" y="612" on="1"/>
        <pt x="81" y="614" on="1"/>
        <pt x="81" y="700" on="1"/>
        <pt x="236" y="700" on="1"/>
      </contour>
      <contour>
        <pt x="230" y="732" on="1"/>
        <pt x="167" y="732" on="1"/>
        <pt x="111" y="805" on="1"/>
        <pt x="99" y="821" on="0"/>
        <pt x="99" y="830" on="1"/>
        <pt x="99" y="860" on="0"/>
        <pt x="123" y="870" on="1"/>
        <pt x="130" y="873" on="0"/>
        <pt x="138" y="873" on="1"/>
        <pt x="170" y="873" on="0"/>
        <pt x="182" y="843" on="1"/>
      </contour>
    </TTGlyph>
    <TTGlyph name="Imacron" xMin="78" yMin="0" xMax="294" yMax="809">
      <contour>
        <pt x="250" y="0" on="1"/>
        <pt x="158" y="0" on="1"/>
        <pt x="158" y="612" on="1"/>
        <pt x="95" y="614" on="1"/>
        <pt x="95" y="700" on="1"/>
        <pt x="250" y="700" on="1"/>
      </contour>
      <contour>
        <pt x="294" y="730" on="1"/>
        <pt x="78" y="730" on="1"/>
        <pt x="78" y="809" on="1"/>
        <pt x="294" y="809" on="1"/>
      </contour>
    </TTGlyph>
    <TTGlyph name="Iogonek" xMin="85" yMin="-213" xMax="279" yMax="700">
      <contour>
        <pt x="234" y="-115" on="1"/>
        <pt x="279" y="-163" on="1"/>
        <pt x="247" y="-213" on="0"/>
        <pt x="174" y="-213" on="1"/>
        <pt x="145" y="-213" on="0"/>
        <pt x="85" y="-170" on="0"/>
        <pt x="85" y="-128" on="1"/>
        <pt x="85" y="-125" on="0"/>
        <pt x="85" y="-122" on="1"/>
        <pt x="85" y="-59" on="0"/>
        <pt x="179" y="0" on="1"/>
        <pt x="152" y="0" on="1"/>
        <pt x="152" y="612" on="1"/>
        <pt x="89" y="614" on="1"/>
        <pt x="89" y="700" on="1"/>
        <pt x="244" y="700" on="1"/>
        <pt x="244" y="0" on="1"/>
        <pt x="148" y="-80" on="0"/>
        <pt x="149" y="-121" on="1"/>
        <pt x="151" y="-152" on="0"/>
        <pt x="216" y="-152" on="0"/>
      </contour>
    </TTGlyph>
    <TTGlyph name="Iota" xMin="80" yMin="0" xMax="235" yMax="700">
      <contour>
        <pt x="235" y="0" on="1"/>
        <pt x="143" y="0" on="1"/>
        <pt x="143" y="612" on="1"/>
        <pt x="80" y="614" on="1"/>
        <pt x="80" y="700" on="1"/>
        <pt x="235" y="700" on="1"/>
      </contour>
    </TTGlyph>
    <TTGlyph name="Iotadieresis" xMin="85" yMin="0" xMax="307" yMax="813">
      <contour>
        <pt x="166" y="788" on="0"/>
        <pt x="166" y="754" on="0"/>
        <pt x="142" y="731" on="0"/>
        <pt x="108" y="731" on="0"/>
        <pt x="85" y="754" on="0"/>
        <pt x="85" y="788" on="0"/>
        <pt x="108" y="812" on="0"/>
        <pt x="142" y="812" on="0"/>
      </contour>
      <contour>
        <pt x="283" y="731" on="0"/>
        <pt x="249" y="731" on="0"/>
        <pt x="225" y="755" on="0"/>
        <pt x="225" y="788" on="0"/>
        <pt x="250" y="813" on="0"/>
        <pt x="283" y="813" on="0"/>
        <pt x="307" y="789" on="0"/>
        <pt x="307" y="755" on="0"/>
      </contour>
      <contour>
        <pt x="241" y="0" on="1"/>
        <pt x="149" y="0" on="1"/>
        <pt x="149" y="612" on="1"/>
        <pt x="86" y="614" on="1"/>
        <pt x="86" y="700" on="1"/>
        <pt x="241" y="700" on="1"/>
      </contour>
    </TTGlyph>
    <TTGlyph name="Iotatonos" xMin="78" yMin="0" xMax="391" yMax="709">
      <contour>
        <pt x="391" y="0" on="1"/>
        <pt x="299" y="0" on="1"/>
        <pt x="299" y="612" on="1"/>
        <pt x="236" y="614" on="1"/>
        <pt x="236" y="700" on="1"/>
        <pt x="391" y="700" on="1"/>
      </contour>
      <contour>
        <pt x="141" y="568" on="1"/>
        <pt x="78" y="568" on="1"/>
        <pt x="126" y="679" on="1"/>
        <pt x="138" y="709" on="0"/>
        <pt x="171" y="709" on="1"/>
        <pt x="178" y="709" on="0"/>
        <pt x="185" y="706" on="1"/>
        <pt x="209" y="696" on="0"/>
        <pt x="209" y="657" on="0"/>
        <pt x="197" y="641" on="1"/>
      </contour>
    </TTGlyph>
    <TTGlyph name="Itilde" xMin="78" yMin="0" xMax="423" yMax="827">
      <contour>
        <pt x="307" y="0" on="1"/>
        <pt x="215" y="0" on="1"/>
        <pt x="215" y="612" on="1"/>
        <pt x="152" y="614" on="1"/>
        <pt x="152" y="700" on="1"/>
        <pt x="307" y="700" on="1"/>
      </contour>
      <contour>
        <pt x="317" y="786" on="1"/>
        <pt x="356" y="786" on="0"/>
        <pt x="387" y="821" on="1"/>
        <pt x="423" y="765" on="1"/>
        <pt x="378" y="712" on="0"/>
        <pt x="327" y="712" on="1"/>
        <pt x="309" y="712" on="0"/>
        <pt x="263" y="731" on="0"/>
        <pt x="213" y="754" on="0"/>
        <pt x="188" y="754" on="1"/>
        <pt x="146" y="754" on="0"/>
        <pt x="112" y="718" on="1"/>
        <pt x="78" y="774" on="1"/>
        <pt x="125" y="827" on="0"/>
        <pt x="178" y="827" on="1"/>
        <pt x="196" y="827" on="0"/>
        <pt x="241" y="809" on="0"/>
        <pt x="292" y="786" on="0"/>
      </contour>
    </TTGlyph>
    <TTGlyph name="J" xMin="-5" yMin="-37" xMax="182" yMax="700">
      <contour>
        <pt x="23" y="-37" on="1"/>
        <pt x="-5" y="37" on="1"/>
        <pt x="18" y="37" on="0"/>
        <pt x="57" y="49" on="0"/>
        <pt x="92" y="99" on="0"/>
        <pt x="92" y="141" on="1"/>
        <pt x="92" y="612" on="1"/>
        <pt x="30" y="614" on="1"/>
        <pt x="30" y="700" on="1"/>
        <pt x="182" y="700" on="1"/>
        <pt x="182" y="132" on="1"/>
        <pt x="182" y="44" on="0"/>
        <pt x="109" y="-36" on="0"/>
      </contour>
    </TTGlyph>
    <TTGlyph name="Jcircumflex" xMin="-9" yMin="-37" xMax="235" yMax="846">
      <contour>
        <pt x="19" y="-37" on="1"/>
        <pt x="-9" y="37" on="1"/>
        <pt x="14" y="37" on="0"/>
        <pt x="53" y="49" on="0"/>
        <pt x="88" y="99" on="0"/>
        <pt x="88" y="141" on="1"/>
        <pt x="88" y="612" on="1"/>
        <pt x="26" y="614" on="1"/>
        <pt x="26" y="700" on="1"/>
        <pt x="178" y="700" on="1"/>
        <pt x="178" y="132" on="1"/>
        <pt x="178" y="44" on="0"/>
        <pt x="105" y="-36" on="0"/>
      </contour>
      <contour>
        <pt x="235" y="846" on="1"/>
        <pt x="235" y="841" on="1"/>
        <pt x="235" y="794" on="0"/>
        <pt x="168" y="728" on="0"/>
        <pt x="76" y="728" on="0"/>
        <pt x="9" y="794" on="0"/>
        <pt x="9" y="841" on="1"/>
        <pt x="9" y="846" on="1"/>
        <pt x="79" y="846" on="1"/>
        <pt x="79" y="841" on="1"/>
        <pt x="79" y="819" on="0"/>
        <pt x="103" y="794" on="0"/>
        <pt x="141" y="794" on="0"/>
        <pt x="166" y="820" on="0"/>
        <pt x="166" y="841" on="1"/>
        <pt x="166" y="846" on="1"/>
      </contour>
    </TTGlyph>
    <TTGlyph name="K" xMin="79" yMin="0" xMax="511" yMax="701">
      <contour>
        <pt x="511" y="0" on="1"/>
        <pt x="399" y="0" on="1"/>
        <pt x="197" y="301" on="1"/>
        <pt x="175" y="268" on="1"/>
        <pt x="175" y="0" on="1"/>
        <pt x="79" y="0" on="1"/>
        <pt x="79" y="701" on="1"/>
        <pt x="175" y="701" on="1"/>
        <pt x="175" y="427" on="1"/>
        <pt x="359" y="701" on="1"/>
        <pt x="468" y="701" on="1"/>
        <pt x="251" y="384" on="1"/>
      </contour>
    </TTGlyph>
    <TTGlyph name="Kappa" xMin="78" yMin="0" xMax="510" yMax="701">
      <contour>
        <pt x="510" y="0" on="1"/>
        <pt x="398" y="0" on="1"/>
        <pt x="196" y="301" on="1"/>
        <pt x="174" y="268" on="1"/>
        <pt x="174" y="0" on="1"/>
        <pt x="78" y="0" on="1"/>
        <pt x="78" y="701" on="1"/>
        <pt x="174" y="701" on="1"/>
        <pt x="174" y="427" on="1"/>
        <pt x="358" y="701" on="1"/>
        <pt x="467" y="701" on="1"/>
        <pt x="250" y="384" on="1"/>
      </contour>
    </TTGlyph>
    <TTGlyph name="Kcommaaccent" xMin="79" yMin="-206" xMax="511" yMax="701">
      <contour>
        <pt x="511" y="0" on="1"/>
        <pt x="399" y="0" on="1"/>
        <pt x="197" y="301" on="1"/>
        <pt x="175" y="268" on="1"/>
        <pt x="175" y="0" on="1"/>
        <pt x="79" y="0" on="1"/>
        <pt x="79" y="701" on="1"/>
        <pt x="175" y="701" on="1"/>
        <pt x="175" y="427" on="1"/>
        <pt x="359" y="701" on="1"/>
        <pt x="468" y="701" on="1"/>
        <pt x="251" y="384" on="1"/>
      </contour>
      <contour>
        <pt x="247" y="-206" on="1"/>
        <pt x="188" y="-177" on="1"/>
        <pt x="232" y="-152" on="0"/>
        <pt x="257" y="-125" on="1"/>
        <pt x="246" y="-122" on="1"/>
        <pt x="220" y="-107" on="0"/>
        <pt x="221" y="-58" on="0"/>
        <pt x="247" y="-33" on="0"/>
        <pt x="266" y="-33" on="1"/>
        <pt x="289" y="-33" on="0"/>
        <pt x="313" y="-69" on="0"/>
        <pt x="313" y="-89" on="1"/>
        <pt x="313" y="-148" on="0"/>
      </contour>
    </TTGlyph>
    <TTGlyph name="L" xMin="78" yMin="0" xMax="439" yMax="700">
      <contour>
        <pt x="439" y="0" on="1"/>
        <pt x="78" y="0" on="1"/>
        <pt x="78" y="700" on="1"/>
        <pt x="169" y="700" on="1"/>
        <pt x="169" y="83" on="1"/>
        <pt x="439" y="83" on="1"/>
      </contour>
    </TTGlyph>
    <TTGlyph name="Lacute" xMin="78" yMin="0" xMax="439" yMax="872">
      <contour>
        <pt x="439" y="0" on="1"/>
        <pt x="78" y="0" on="1"/>
        <pt x="78" y="700" on="1"/>
        <pt x="169" y="700" on="1"/>
        <pt x="169" y="83" on="1"/>
        <pt x="439" y="83" on="1"/>
      </contour>
      <contour>
        <pt x="179" y="731" on="1"/>
        <pt x="116" y="731" on="1"/>
        <pt x="164" y="842" on="1"/>
        <pt x="176" y="872" on="0"/>
        <pt x="209" y="872" on="1"/>
        <pt x="216" y="872" on="0"/>
        <pt x="223" y="869" on="1"/>
        <pt x="247" y="859" on="0"/>
        <pt x="247" y="820" on="0"/>
        <pt x="235" y="804" on="1"/>
      </contour>
    </TTGlyph>
    <TTGlyph name="Lambda" xMin="18" yMin="0" xMax="523" yMax="700">
      <contour>
        <pt x="523" y="0" on="1"/>
        <pt x="420" y="0" on="1"/>
        <pt x="268" y="510" on="1"/>
        <pt x="119" y="0" on="1"/>
        <pt x="18" y="0" on="1"/>
        <pt x="226" y="700" on="1"/>
        <pt x="311" y="700" on="1"/>
      </contour>
    </TTGlyph>
    <TTGlyph name="Lcaron" xMin="78" yMin="0" xMax="539" yMax="914">
      <contour>
        <pt x="539" y="0" on="1"/>
        <pt x="178" y="0" on="1"/>
        <pt x="178" y="700" on="1"/>
        <pt x="269" y="700" on="1"/>
        <pt x="269" y="83" on="1"/>
        <pt x="539" y="83" on="1"/>
      </contour>
      <contour>
        <pt x="368" y="875" on="1"/>
        <pt x="226" y="734" on="1"/>
        <pt x="78" y="875" on="1"/>
        <pt x="134" y="914" on="1"/>
        <pt x="225" y="823" on="1"/>
        <pt x="311" y="914" on="1"/>
      </contour>
    </TTGlyph>
    <TTGlyph name="Lcommaaccent" xMin="78" yMin="-207" xMax="439" yMax="700">
      <contour>
        <pt x="439" y="0" on="1"/>
        <pt x="78" y="0" on="1"/>
        <pt x="78" y="700" on="1"/>
        <pt x="169" y="700" on="1"/>
        <pt x="169" y="83" on="1"/>
        <pt x="439" y="83" on="1"/>
      </contour>
      <contour>
        <pt x="246" y="-207" on="1"/>
        <pt x="187" y="-178" on="1"/>
        <pt x="231" y="-153" on="0"/>
        <pt x="256" y="-126" on="1"/>
        <pt x="245" y="-123" on="1"/>
        <pt x="219" y="-108" on="0"/>
        <pt x="220" y="-59" on="0"/>
        <pt x="246" y="-34" on="0"/>
        <pt x="265" y="-34" on="1"/>
        <pt x="288" y="-34" on="0"/>
        <pt x="312" y="-70" on="0"/>
        <pt x="312" y="-90" on="1"/>
        <pt x="312" y="-149" on="0"/>
      </contour>
    </TTGlyph>
    <TTGlyph name="Lslash" xMin="78" yMin="0" xMax="552" yMax="700">
      <contour>
        <pt x="552" y="0" on="1"/>
        <pt x="191" y="0" on="1"/>
        <pt x="191" y="325" on="1"/>
        <pt x="109" y="288" on="1"/>
        <pt x="78" y="358" on="1"/>
        <pt x="191" y="409" on="1"/>
        <pt x="191" y="700" on="1"/>
        <pt x="282" y="700" on="1"/>
        <pt x="282" y="450" on="1"/>
        <pt x="369" y="490" on="1"/>
        <pt x="401" y="419" on="1"/>
        <pt x="282" y="365" on="1"/>
        <pt x="282" y="83" on="1"/>
        <pt x="552" y="83" on="1"/>
      </contour>
    </TTGlyph>
    <TTGlyph name="M" xMin="78" yMin="0" xMax="614" yMax="700">
      <contour>
        <pt x="614" y="0" on="1"/>
        <pt x="523" y="0" on="1"/>
        <pt x="523" y="428" on="1"/>
        <pt x="383" y="0" on="1"/>
        <pt x="307" y="0" on="1"/>
        <pt x="169" y="427" on="1"/>
        <pt x="169" y="0" on="1"/>
        <pt x="78" y="0" on="1"/>
        <pt x="78" y="700" on="1"/>
        <pt x="169" y="700" on="1"/>
        <pt x="345" y="184" on="1"/>
        <pt x="523" y="700" on="1"/>
        <pt x="614" y="700" on="1"/>
      </contour>
    </TTGlyph>
    <TTGlyph name="Mu" xMin="80" yMin="0" xMax="616" yMax="700">
      <contour>
        <pt x="616" y="0" on="1"/>
        <pt x="525" y="0" on="1"/>
        <pt x="525" y="428" on="1"/>
        <pt x="385" y="0" on="1"/>
        <pt x="309" y="0" on="1"/>
        <pt x="171" y="427" on="1"/>
        <pt x="171" y="0" on="1"/>
        <pt x="80" y="0" on="1"/>
        <pt x="80" y="700" on="1"/>
        <pt x="171" y="700" on="1"/>
        <pt x="347" y="184" on="1"/>
        <pt x="525" y="700" on="1"/>
        <pt x="616" y="700" on="1"/>
      </contour>
    </TTGlyph>
    <TTGlyph name="N" xMin="78" yMin="0" xMax="570" yMax="700">
      <contour>
        <pt x="570" y="0" on="1"/>
        <pt x="478" y="0" on="1"/>
        <pt x="169" y="516" on="1"/>
        <pt x="169" y="0" on="1"/>
        <pt x="78" y="0" on="1"/>
        <pt x="78" y="700" on="1"/>
        <pt x="169" y="700" on="1"/>
        <pt x="478" y="186" on="1"/>
        <pt x="478" y="700" on="1"/>
        <pt x="570" y="700" on="1"/>
      </contour>
    </TTGlyph>
    <TTGlyph name="Nacute" xMin="78" yMin="0" xMax="570" yMax="871">
      <contour>
        <pt x="570" y="0" on="1"/>
        <pt x="478" y="0" on="1"/>
        <pt x="169" y="516" on="1"/>
        <pt x="169" y="0" on="1"/>
        <pt x="78" y="0" on="1"/>
        <pt x="78" y="700" on="1"/>
        <pt x="169" y="700" on="1"/>
        <pt x="478" y="186" on="1"/>
        <pt x="478" y="700" on="1"/>
        <pt x="570" y="700" on="1"/>
      </contour>
      <contour>
        <pt x="341" y="730" on="1"/>
        <pt x="278" y="730" on="1"/>
        <pt x="326" y="841" on="1"/>
        <pt x="338" y="871" on="0"/>
        <pt x="371" y="871" on="1"/>
        <pt x="378" y="871" on="0"/>
        <pt x="385" y="868" on="1"/>
        <pt x="409" y="858" on="0"/>
        <pt x="409" y="819" on="0"/>
        <pt x="397" y="803" on="1"/>
      </contour>
    </TTGlyph>
    <TTGlyph name="Ncaron" xMin="78" yMin="0" xMax="570" yMax="914">
      <contour>
        <pt x="570" y="0" on="1"/>
        <pt x="478" y="0" on="1"/>
        <pt x="169" y="516" on="1"/>
        <pt x="169" y="0" on="1"/>
        <pt x="78" y="0" on="1"/>
        <pt x="78" y="700" on="1"/>
        <pt x="169" y="700" on="1"/>
        <pt x="478" y="186" on="1"/>
        <pt x="478" y="700" on="1"/>
        <pt x="570" y="700" on="1"/>
      </contour>
      <contour>
        <pt x="474" y="875" on="1"/>
        <pt x="332" y="734" on="1"/>
        <pt x="184" y="875" on="1"/>
        <pt x="240" y="914" on="1"/>
        <pt x="331" y="823" on="1"/>
        <pt x="417" y="914" on="1"/>
      </contour>
    </TTGlyph>
    <TTGlyph name="Ncommaaccent" xMin="78" yMin="-203" xMax="570" yMax="700">
      <contour>
        <pt x="570" y="0" on="1"/>
        <pt x="478" y="0" on="1"/>
        <pt x="169" y="516" on="1"/>
        <pt x="169" y="0" on="1"/>
        <pt x="78" y="0" on="1"/>
        <pt x="78" y="700" on="1"/>
        <pt x="169" y="700" on="1"/>
        <pt x="478" y="186" on="1"/>
        <pt x="478" y="700" on="1"/>
        <pt x="570" y="700" on="1"/>
      </contour>
      <contour>
        <pt x="314" y="-203" on="1"/>
        <pt x="255" y="-174" on="1"/>
        <pt x="299" y="-149" on="0"/>
        <pt x="324" y="-122" on="1"/>
        <pt x="313" y="-119" on="1"/>
        <pt x="287" y="-104" on="0"/>
        <pt x="288" y="-55" on="0"/>
        <pt x="314" y="-30" on="0"/>
        <pt x="333" y="-30" on="1"/>
        <pt x="356" y="-30" on="0"/>
        <pt x="380" y="-66" on="0"/>
        <pt x="380" y="-86" on="1"/>
        <pt x="380" y="-145" on="0"/>
      </contour>
    </TTGlyph>
    <TTGlyph name="Ntilde" xMin="78" yMin="0" xMax="570" yMax="842">
      <contour>
        <pt x="570" y="0" on="1"/>
        <pt x="478" y="0" on="1"/>
        <pt x="169" y="516" on="1"/>
        <pt x="169" y="0" on="1"/>
        <pt x="78" y="0" on="1"/>
        <pt x="78" y="700" on="1"/>
        <pt x="169" y="700" on="1"/>
        <pt x="478" y="186" on="1"/>
        <pt x="478" y="700" on="1"/>
        <pt x="570" y="700" on="1"/>
      </contour>
      <contour>
        <pt x="397" y="801" on="1"/>
        <pt x="436" y="801" on="0"/>
        <pt x="467" y="836" on="1"/>
        <pt x="503" y="780" on="1"/>
        <pt x="458" y="727" on="0"/>
        <pt x="407" y="727" on="1"/>
        <pt x="389" y="727" on="0"/>
        <pt x="343" y="746" on="0"/>
        <pt x="293" y="769" on="0"/>
        <pt x="268" y="769" on="1"/>
        <pt x="226" y="769" on="0"/>
        <pt x="192" y="733" on="1"/>
        <pt x="158" y="789" on="1"/>
        <pt x="205" y="842" on="0"/>
        <pt x="258" y="842" on="1"/>
        <pt x="276" y="842" on="0"/>
        <pt x="321" y="824" on="0"/>
        <pt x="372" y="801" on="0"/>
      </contour>
    </TTGlyph>
    <TTGlyph name="Nu" xMin="80" yMin="0" xMax="572" yMax="700">
      <contour>
        <pt x="572" y="0" on="1"/>
        <pt x="480" y="0" on="1"/>
        <pt x="171" y="516" on="1"/>
        <pt x="171" y="0" on="1"/>
        <pt x="80" y="0" on="1"/>
        <pt x="80" y="700" on="1"/>
        <pt x="171" y="700" on="1"/>
        <pt x="480" y="186" on="1"/>
        <pt x="480" y="700" on="1"/>
        <pt x="572" y="700" on="1"/>
      </contour>
    </TTGlyph>
    <TTGlyph name="O" xMin="63" yMin="-11" xMax="483" yMax="716">
      <contour>
        <pt x="483" y="506" on="1"/>
        <pt x="483" y="185" on="1"/>
        <pt x="483" y="84" on="0"/>
        <pt x="360" y="-11" on="0"/>
        <pt x="188" y="-11" on="0"/>
        <pt x="63" y="84" on="0"/>
        <pt x="63" y="185" on="1"/>
        <pt x="63" y="507" on="1"/>
        <pt x="63" y="610" on="0"/>
        <pt x="176" y="716" on="0"/>
        <pt x="374" y="716" on="0"/>
        <pt x="483" y="604" on="0"/>
      </contour>
      <contour>
        <pt x="392" y="199" on="1"/>
        <pt x="392" y="486" on="1"/>
        <pt x="392" y="552" on="0"/>
        <pt x="337" y="620" on="0"/>
        <pt x="209" y="620" on="0"/>
        <pt x="154" y="553" on="0"/>
        <pt x="154" y="487" on="1"/>
        <pt x="154" y="198" on="1"/>
        <pt x="154" y="142" on="0"/>
        <pt x="217" y="80" on="0"/>
        <pt x="327" y="80" on="0"/>
        <pt x="392" y="143" on="0"/>
      </contour>
    </TTGlyph>
    <TTGlyph name="OE" xMin="78" yMin="-11" xMax="741" yMax="716">
      <contour>
        <pt x="739" y="0" on="1"/>
        <pt x="407" y="0" on="1"/>
        <pt x="407" y="16" on="1"/>
        <pt x="356" y="-11" on="0"/>
        <pt x="203" y="-11" on="0"/>
        <pt x="78" y="84" on="0"/>
        <pt x="78" y="185" on="1"/>
        <pt x="78" y="507" on="1"/>
        <pt x="78" y="610" on="0"/>
        <pt x="191" y="716" on="0"/>
        <pt x="290" y="716" on="1"/>
        <pt x="357" y="716" on="0"/>
        <pt x="407" y="688" on="1"/>
        <pt x="407" y="700" on="1"/>
        <pt x="741" y="700" on="1"/>
        <pt x="741" y="610" on="1"/>
        <pt x="498" y="610" on="1"/>
        <pt x="498" y="413" on="1"/>
        <pt x="654" y="413" on="1"/>
        <pt x="627" y="325" on="1"/>
        <pt x="498" y="325" on="1"/>
        <pt x="498" y="82" on="1"/>
        <pt x="739" y="82" on="1"/>
      </contour>
      <contour>
        <pt x="407" y="193" on="1"/>
        <pt x="407" y="498" on="1"/>
        <pt x="405" y="558" on="0"/>
        <pt x="349" y="620" on="0"/>
        <pt x="224" y="620" on="0"/>
        <pt x="169" y="553" on="0"/>
        <pt x="169" y="487" on="1"/>
        <pt x="169" y="198" on="1"/>
        <pt x="169" y="142" on="0"/>
        <pt x="232" y="80" on="0"/>
        <pt x="340" y="80" on="0"/>
        <pt x="405" y="140" on="0"/>
      </contour>
    </TTGlyph>
    <TTGlyph name="Oacute" xMin="63" yMin="-11" xMax="483" yMax="871">
      <contour>
        <pt x="483" y="506" on="1"/>
        <pt x="483" y="185" on="1"/>
        <pt x="483" y="84" on="0"/>
        <pt x="360" y="-11" on="0"/>
        <pt x="188" y="-11" on="0"/>
        <pt x="63" y="84" on="0"/>
        <pt x="63" y="185" on="1"/>
        <pt x="63" y="507" on="1"/>
        <pt x="63" y="610" on="0"/>
        <pt x="176" y="716" on="0"/>
        <pt x="374" y="716" on="0"/>
        <pt x="483" y="604" on="0"/>
      </contour>
      <contour>
        <pt x="392" y="199" on="1"/>
        <pt x="392" y="486" on="1"/>
        <pt x="392" y="552" on="0"/>
        <pt x="337" y="620" on="0"/>
        <pt x="209" y="620" on="0"/>
        <pt x="154" y="553" on="0"/>
        <pt x="154" y="487" on="1"/>
        <pt x="154" y="198" on="1"/>
        <pt x="154" y="142" on="0"/>
        <pt x="217" y="80" on="0"/>
        <pt x="327" y="80" on="0"/>
        <pt x="392" y="143" on="0"/>
      </contour>
      <contour>
        <pt x="320" y="730" on="1"/>
        <pt x="257" y="730" on="1"/>
        <pt x="305" y="841" on="1"/>
        <pt x="317" y="871" on="0"/>
        <pt x="350" y="871" on="1"/>
        <pt x="357" y="871" on="0"/>
        <pt x="364" y="868" on="1"/>
        <pt x="388" y="858" on="0"/>
        <pt x="388" y="819" on="0"/>
        <pt x="376" y="803" on="1"/>
      </contour>
    </TTGlyph>
    <TTGlyph name="Ocircumflex" xMin="63" yMin="-11" xMax="483" yMax="912">
      <contour>
        <pt x="483" y="506" on="1"/>
        <pt x="483" y="185" on="1"/>
        <pt x="483" y="84" on="0"/>
        <pt x="360" y="-11" on="0"/>
        <pt x="188" y="-11" on="0"/>
        <pt x="63" y="84" on="0"/>
        <pt x="63" y="185" on="1"/>
        <pt x="63" y="507" on="1"/>
        <pt x="63" y="610" on="0"/>
        <pt x="176" y="716" on="0"/>
        <pt x="374" y="716" on="0"/>
        <pt x="483" y="604" on="0"/>
      </contour>
      <contour>
        <pt x="392" y="199" on="1"/>
        <pt x="392" y="486" on="1"/>
        <pt x="392" y="552" on="0"/>
        <pt x="337" y="620" on="0"/>
        <pt x="209" y="620" on="0"/>
        <pt x="154" y="553" on="0"/>
        <pt x="154" y="487" on="1"/>
        <pt x="154" y="198" on="1"/>
        <pt x="154" y="142" on="0"/>
        <pt x="217" y="80" on="0"/>
        <pt x="327" y="80" on="0"/>
        <pt x="392" y="143" on="0"/>
      </contour>
      <contour>
        <pt x="421" y="771" on="1"/>
        <pt x="364" y="732" on="1"/>
        <pt x="278" y="822" on="1"/>
        <pt x="187" y="732" on="1"/>
        <pt x="131" y="771" on="1"/>
        <pt x="279" y="912" on="1"/>
      </contour>
    </TTGlyph>
    <TTGlyph name="Odieresis" xMin="63" yMin="-11" xMax="483" yMax="813">
      <contour>
        <pt x="483" y="506" on="1"/>
        <pt x="483" y="185" on="1"/>
        <pt x="483" y="84" on="0"/>
        <pt x="360" y="-11" on="0"/>
        <pt x="188" y="-11" on="0"/>
        <pt x="63" y="84" on="0"/>
        <pt x="63" y="185" on="1"/>
        <pt x="63" y="507" on="1"/>
        <pt x="63" y="610" on="0"/>
        <pt x="176" y="716" on="0"/>
        <pt x="374" y="716" on="0"/>
        <pt x="483" y="604" on="0"/>
      </contour>
      <contour>
        <pt x="392" y="199" on="1"/>
        <pt x="392" y="486" on="1"/>
        <pt x="392" y="552" on="0"/>
        <pt x="337" y="620" on="0"/>
        <pt x="209" y="620" on="0"/>
        <pt x="154" y="553" on="0"/>
        <pt x="154" y="487" on="1"/>
        <pt x="154" y="198" on="1"/>
        <pt x="154" y="142" on="0"/>
        <pt x="217" y="80" on="0"/>
        <pt x="327" y="80" on="0"/>
        <pt x="392" y="143" on="0"/>
      </contour>
      <contour>
        <pt x="241" y="788" on="0"/>
        <pt x="241" y="754" on="0"/>
        <pt x="217" y="731" on="0"/>
        <pt x="184" y="731" on="0"/>
        <pt x="160" y="754" on="0"/>
        <pt x="160" y="788" on="0"/>
        <pt x="183" y="812" on="0"/>
        <pt x="217" y="812" on="0"/>
      </contour>
      <contour>
        <pt x="358" y="731" on="0"/>
        <pt x="324" y="731" on="0"/>
        <pt x="300" y="755" on="0"/>
        <pt x="300" y="788" on="0"/>
        <pt x="324" y="813" on="0"/>
        <pt x="358" y="813" on="0"/>
        <pt x="382" y="789" on="0"/>
        <pt x="382" y="755" on="0"/>
      </contour>
    </TTGlyph>
    <TTGlyph name="Ograve" xMin="63" yMin="-11" xMax="483" yMax="873">
      <contour>
        <pt x="483" y="506" on="1"/>
        <pt x="483" y="185" on="1"/>
        <pt x="483" y="84" on="0"/>
        <pt x="360" y="-11" on="0"/>
        <pt x="188" y="-11" on="0"/>
        <pt x="63" y="84" on="0"/>
        <pt x="63" y="185" on="1"/>
        <pt x="63" y="507" on="1"/>
        <pt x="63" y="610" on="0"/>
        <pt x="176" y="716" on="0"/>
        <pt x="374" y="716" on="0"/>
        <pt x="483" y="604" on="0"/>
      </contour>
      <contour>
        <pt x="392" y="199" on="1"/>
        <pt x="392" y="486" on="1"/>
        <pt x="392" y="552" on="0"/>
        <pt x="337" y="620" on="0"/>
        <pt x="209" y="620" on="0"/>
        <pt x="154" y="553" on="0"/>
        <pt x="154" y="487" on="1"/>
        <pt x="154" y="198" on="1"/>
        <pt x="154" y="142" on="0"/>
        <pt x="217" y="80" on="0"/>
        <pt x="327" y="80" on="0"/>
        <pt x="392" y="143" on="0"/>
      </contour>
      <contour>
        <pt x="298" y="732" on="1"/>
        <pt x="235" y="732" on="1"/>
        <pt x="179" y="805" on="1"/>
        <pt x="167" y="821" on="0"/>
        <pt x="167" y="830" on="1"/>
        <pt x="167" y="860" on="0"/>
        <pt x="191" y="870" on="1"/>
        <pt x="198" y="873" on="0"/>
        <pt x="206" y="873" on="1"/>
        <pt x="238" y="873" on="0"/>
        <pt x="250" y="843" on="1"/>
      </contour>
    </TTGlyph>
    <TTGlyph name="Ohungarumlaut" xMin="63" yMin="-11" xMax="483" yMax="874">
      <contour>
        <pt x="483" y="506" on="1"/>
        <pt x="483" y="185" on="1"/>
        <pt x="483" y="84" on="0"/>
        <pt x="360" y="-11" on="0"/>
        <pt x="188" y="-11" on="0"/>
        <pt x="63" y="84" on="0"/>
        <pt x="63" y="185" on="1"/>
        <pt x="63" y="507" on="1"/>
        <pt x="63" y="610" on="0"/>
        <pt x="176" y="716" on="0"/>
        <pt x="374" y="716" on="0"/>
        <pt x="483" y="604" on="0"/>
      </contour>
      <contour>
        <pt x="392" y="199" on="1"/>
        <pt x="392" y="486" on="1"/>
        <pt x="392" y="552" on="0"/>
        <pt x="337" y="620" on="0"/>
        <pt x="209" y="620" on="0"/>
        <pt x="154" y="553" on="0"/>
        <pt x="154" y="487" on="1"/>
        <pt x="154" y="198" on="1"/>
        <pt x="154" y="142" on="0"/>
        <pt x="217" y="80" on="0"/>
        <pt x="327" y="80" on="0"/>
        <pt x="392" y="143" on="0"/>
      </contour>
      <contour>
        <pt x="354" y="733" on="1"/>
        <pt x="291" y="733" on="1"/>
        <pt x="339" y="844" on="1"/>
        <pt x="351" y="874" on="0"/>
        <pt x="384" y="874" on="1"/>
        <pt x="391" y="874" on="0"/>
        <pt x="398" y="871" on="1"/>
        <pt x="422" y="861" on="0"/>
        <pt x="422" y="822" on="0"/>
        <pt x="410" y="806" on="1"/>
      </contour>
      <contour>
        <pt x="223" y="733" on="1"/>
        <pt x="160" y="733" on="1"/>
        <pt x="208" y="844" on="1"/>
        <pt x="220" y="874" on="0"/>
        <pt x="253" y="874" on="1"/>
        <pt x="260" y="874" on="0"/>
        <pt x="267" y="871" on="1"/>
        <pt x="291" y="861" on="0"/>
        <pt x="291" y="822" on="0"/>
        <pt x="279" y="806" on="1"/>
      </contour>
    </TTGlyph>
    <TTGlyph name="Omacron" xMin="63" yMin="-11" xMax="483" yMax="809">
      <contour>
        <pt x="483" y="506" on="1"/>
        <pt x="483" y="185" on="1"/>
        <pt x="483" y="84" on="0"/>
        <pt x="360" y="-11" on="0"/>
        <pt x="188" y="-11" on="0"/>
        <pt x="63" y="84" on="0"/>
        <pt x="63" y="185" on="1"/>
        <pt x="63" y="507" on="1"/>
        <pt x="63" y="610" on="0"/>
        <pt x="176" y="716" on="0"/>
        <pt x="374" y="716" on="0"/>
        <pt x="483" y="604" on="0"/>
      </contour>
      <contour>
        <pt x="392" y="199" on="1"/>
        <pt x="392" y="486" on="1"/>
        <pt x="392" y="552" on="0"/>
        <pt x="337" y="620" on="0"/>
        <pt x="209" y="620" on="0"/>
        <pt x="154" y="553" on="0"/>
        <pt x="154" y="487" on="1"/>
        <pt x="154" y="198" on="1"/>
        <pt x="154" y="142" on="0"/>
        <pt x="217" y="80" on="0"/>
        <pt x="327" y="80" on="0"/>
        <pt x="392" y="143" on="0"/>
      </contour>
      <contour>
        <pt x="377" y="730" on="1"/>
        <pt x="160" y="730" on="1"/>
        <pt x="160" y="809" on="1"/>
        <pt x="377" y="809" on="1"/>
      </contour>
    </TTGlyph>
    <TTGlyph name="Omega" xMin="78" yMin="0" xMax="592" yMax="707">
      <contour>
        <pt x="592" y="0" on="1"/>
        <pt x="364" y="0" on="1"/>
        <pt x="364" y="83" on="1"/>
        <pt x="394" y="83" on="0"/>
        <pt x="444" y="98" on="0"/>
        <pt x="460" y="113" on="0"/>
        <pt x="470" y="124" on="1"/>
        <pt x="488" y="147" on="0"/>
        <pt x="488" y="196" on="1"/>
        <pt x="488" y="484" on="1"/>
        <pt x="488" y="545" on="0"/>
        <pt x="431" y="613" on="0"/>
        <pt x="381" y="613" on="1"/>
        <pt x="292" y="613" on="1"/>
        <pt x="181" y="613" on="0"/>
        <pt x="181" y="484" on="1"/>
        <pt x="181" y="195" on="1"/>
        <pt x="181" y="120" on="0"/>
        <pt x="230" y="98" on="1"/>
        <pt x="267" y="83" on="0"/>
        <pt x="306" y="83" on="1"/>
        <pt x="306" y="0" on="1"/>
        <pt x="78" y="0" on="1"/>
        <pt x="95" y="83" on="1"/>
        <pt x="129" y="83" on="1"/>
        <pt x="91" y="123" on="0"/>
        <pt x="91" y="196" on="1"/>
        <pt x="91" y="503" on="1"/>
        <pt x="91" y="595" on="0"/>
        <pt x="185" y="707" on="0"/>
        <pt x="279" y="707" on="1"/>
        <pt x="391" y="707" on="1"/>
        <pt x="485" y="707" on="0"/>
        <pt x="579" y="595" on="0"/>
        <pt x="579" y="503" on="1"/>
        <pt x="579" y="196" on="1"/>
        <pt x="579" y="163" on="0"/>
        <pt x="570" y="136" on="0"/>
        <pt x="567" y="123" on="0"/>
        <pt x="556" y="105" on="0"/>
        <pt x="553" y="100" on="0"/>
        <pt x="546" y="92" on="1"/>
        <pt x="539" y="83" on="1"/>
        <pt x="575" y="83" on="1"/>
      </contour>
    </TTGlyph>
    <TTGlyph name="Omegatonos" xMin="78" yMin="0" xMax="686" yMax="709">
      <contour>
        <pt x="686" y="0" on="1"/>
        <pt x="458" y="0" on="1"/>
        <pt x="458" y="83" on="1"/>
        <pt x="488" y="83" on="0"/>
        <pt x="538" y="98" on="0"/>
        <pt x="554" y="113" on="0"/>
        <pt x="564" y="124" on="1"/>
        <pt x="582" y="147" on="0"/>
        <pt x="582" y="196" on="1"/>
        <pt x="582" y="484" on="1"/>
        <pt x="582" y="545" on="0"/>
        <pt x="525" y="613" on="0"/>
        <pt x="475" y="613" on="1"/>
        <pt x="386" y="613" on="1"/>
        <pt x="275" y="613" on="0"/>
        <pt x="275" y="484" on="1"/>
        <pt x="275" y="195" on="1"/>
        <pt x="275" y="120" on="0"/>
        <pt x="324" y="98" on="1"/>
        <pt x="361" y="83" on="0"/>
        <pt x="400" y="83" on="1"/>
        <pt x="400" y="0" on="1"/>
        <pt x="172" y="0" on="1"/>
        <pt x="189" y="83" on="1"/>
        <pt x="223" y="83" on="1"/>
        <pt x="185" y="123" on="0"/>
        <pt x="185" y="196" on="1"/>
        <pt x="185" y="503" on="1"/>
        <pt x="185" y="595" on="0"/>
        <pt x="279" y="707" on="0"/>
        <pt x="373" y="707" on="1"/>
        <pt x="485" y="707" on="1"/>
        <pt x="579" y="707" on="0"/>
        <pt x="673" y="595" on="0"/>
        <pt x="673" y="503" on="1"/>
        <pt x="673" y="196" on="1"/>
        <pt x="673" y="163" on="0"/>
        <pt x="664" y="136" on="0"/>
        <pt x="661" y="123" on="0"/>
        <pt x="650" y="105" on="0"/>
        <pt x="647" y="100" on="0"/>
        <pt x="640" y="92" on="1"/>
        <pt x="633" y="83" on="1"/>
        <pt x="669" y="83" on="1"/>
      </contour>
      <contour>
        <pt x="141" y="568" on="1"/>
        <pt x="78" y="568" on="1"/>
        <pt x="126" y="679" on="1"/>
        <pt x="138" y="709" on="0"/>
        <pt x="171" y="709" on="1"/>
        <pt x="178" y="709" on="0"/>
        <pt x="185" y="706" on="1"/>
        <pt x="209" y="696" on="0"/>
        <pt x="209" y="657" on="0"/>
        <pt x="197" y="641" on="1"/>
      </contour>
    </TTGlyph>
    <TTGlyph name="Omicron" xMin="62" yMin="-11" xMax="482" yMax="716">
      <contour>
        <pt x="482" y="506" on="1"/>
        <pt x="482" y="185" on="1"/>
        <pt x="482" y="84" on="0"/>
        <pt x="359" y="-11" on="0"/>
        <pt x="187" y="-11" on="0"/>
        <pt x="62" y="84" on="0"/>
        <pt x="62" y="185" on="1"/>
        <pt x="62" y="507" on="1"/>
        <pt x="62" y="610" on="0"/>
        <pt x="175" y="716" on="0"/>
        <pt x="373" y="716" on="0"/>
        <pt x="482" y="604" on="0"/>
      </contour>
      <contour>
        <pt x="391" y="199" on="1"/>
        <pt x="391" y="486" on="1"/>
        <pt x="391" y="552" on="0"/>
        <pt x="336" y="620" on="0"/>
        <pt x="208" y="620" on="0"/>
        <pt x="153" y="553" on="0"/>
        <pt x="153" y="487" on="1"/>
        <pt x="153" y="198" on="1"/>
        <pt x="153" y="142" on="0"/>
        <pt x="216" y="80" on="0"/>
        <pt x="326" y="80" on="0"/>
        <pt x="391" y="143" on="0"/>
      </contour>
    </TTGlyph>
    <TTGlyph name="Omicrontonos" xMin="78" yMin="-11" xMax="615" yMax="716">
      <contour>
        <pt x="615" y="506" on="1"/>
        <pt x="615" y="185" on="1"/>
        <pt x="615" y="84" on="0"/>
        <pt x="492" y="-11" on="0"/>
        <pt x="320" y="-11" on="0"/>
        <pt x="195" y="84" on="0"/>
        <pt x="195" y="185" on="1"/>
        <pt x="195" y="507" on="1"/>
        <pt x="195" y="610" on="0"/>
        <pt x="308" y="716" on="0"/>
        <pt x="506" y="716" on="0"/>
        <pt x="615" y="604" on="0"/>
      </contour>
      <contour>
        <pt x="524" y="199" on="1"/>
        <pt x="524" y="486" on="1"/>
        <pt x="524" y="552" on="0"/>
        <pt x="469" y="620" on="0"/>
        <pt x="341" y="620" on="0"/>
        <pt x="286" y="553" on="0"/>
        <pt x="286" y="487" on="1"/>
        <pt x="286" y="198" on="1"/>
        <pt x="286" y="142" on="0"/>
        <pt x="349" y="80" on="0"/>
        <pt x="459" y="80" on="0"/>
        <pt x="524" y="143" on="0"/>
      </contour>
      <contour>
        <pt x="141" y="568" on="1"/>
        <pt x="78" y="568" on="1"/>
        <pt x="126" y="679" on="1"/>
        <pt x="138" y="709" on="0"/>
        <pt x="171" y="709" on="1"/>
        <pt x="178" y="709" on="0"/>
        <pt x="185" y="706" on="1"/>
        <pt x="209" y="696" on="0"/>
        <pt x="209" y="657" on="0"/>
        <pt x="197" y="641" on="1"/>
      </contour>
    </TTGlyph>
    <TTGlyph name="Oslash" xMin="83" yMin="-114" xMax="508" yMax="817">
      <contour>
        <pt x="183" y="-114" on="1"/>
        <pt x="86" y="-114" on="1"/>
        <pt x="140" y="41" on="1"/>
        <pt x="83" y="91" on="0"/>
        <pt x="83" y="185" on="1"/>
        <pt x="83" y="507" on="1"/>
        <pt x="83" y="610" on="0"/>
        <pt x="196" y="716" on="0"/>
        <pt x="295" y="716" on="1"/>
        <pt x="335" y="716" on="0"/>
        <pt x="371" y="705" on="1"/>
        <pt x="410" y="817" on="1"/>
        <pt x="508" y="817" on="1"/>
        <pt x="452" y="657" on="1"/>
        <pt x="503" y="600" on="0"/>
        <pt x="503" y="506" on="1"/>
        <pt x="503" y="185" on="1"/>
        <pt x="503" y="84" on="0"/>
        <pt x="380" y="-11" on="0"/>
        <pt x="294" y="-11" on="1"/>
        <pt x="256" y="-11" on="0"/>
        <pt x="222" y="-2" on="1"/>
      </contour>
      <contour>
        <pt x="180" y="155" on="1"/>
        <pt x="339" y="614" on="1"/>
        <pt x="319" y="620" on="0"/>
        <pt x="293" y="620" on="1"/>
        <pt x="229" y="620" on="0"/>
        <pt x="174" y="553" on="0"/>
        <pt x="174" y="487" on="1"/>
        <pt x="174" y="198" on="1"/>
        <pt x="174" y="174" on="0"/>
      </contour>
      <contour>
        <pt x="412" y="199" on="1"/>
        <pt x="412" y="486" on="1"/>
        <pt x="412" y="503" on="0"/>
        <pt x="408" y="531" on="1"/>
        <pt x="252" y="85" on="1"/>
        <pt x="268" y="80" on="0"/>
        <pt x="293" y="80" on="1"/>
        <pt x="347" y="80" on="0"/>
        <pt x="412" y="143" on="0"/>
      </contour>
    </TTGlyph>
    <TTGlyph name="Otilde" xMin="63" yMin="-11" xMax="483" yMax="844">
      <contour>
        <pt x="483" y="506" on="1"/>
        <pt x="483" y="185" on="1"/>
        <pt x="483" y="84" on="0"/>
        <pt x="360" y="-11" on="0"/>
        <pt x="188" y="-11" on="0"/>
        <pt x="63" y="84" on="0"/>
        <pt x="63" y="185" on="1"/>
        <pt x="63" y="507" on="1"/>
        <pt x="63" y="610" on="0"/>
        <pt x="176" y="716" on="0"/>
        <pt x="374" y="716" on="0"/>
        <pt x="483" y="604" on="0"/>
      </contour>
      <contour>
        <pt x="392" y="199" on="1"/>
        <pt x="392" y="486" on="1"/>
        <pt x="392" y="552" on="0"/>
        <pt x="337" y="620" on="0"/>
        <pt x="209" y="620" on="0"/>
        <pt x="154" y="553" on="0"/>
        <pt x="154" y="487" on="1"/>
        <pt x="154" y="198" on="1"/>
        <pt x="154" y="142" on="0"/>
        <pt x="217" y="80" on="0"/>
        <pt x="327" y="80" on="0"/>
        <pt x="392" y="143" on="0"/>
      </contour>
      <contour>
        <pt x="350" y="803" on="1"/>
        <pt x="389" y="803" on="0"/>
        <pt x="420" y="838" on="1"/>
        <pt x="456" y="782" on="1"/>
        <pt x="411" y="729" on="0"/>
        <pt x="360" y="729" on="1"/>
        <pt x="342" y="729" on="0"/>
        <pt x="296" y="748" on="0"/>
        <pt x="246" y="771" on="0"/>
        <pt x="221" y="771" on="1"/>
        <pt x="179" y="771" on="0"/>
        <pt x="145" y="735" on="1"/>
        <pt x="111" y="791" on="1"/>
        <pt x="158" y="844" on="0"/>
        <pt x="211" y="844" on="1"/>
        <pt x="229" y="844" on="0"/>
        <pt x="274" y="826" on="0"/>
        <pt x="325" y="803" on="0"/>
      </contour>
    </TTGlyph>
    <TTGlyph name="P" xMin="78" yMin="0" xMax="512" yMax="700">
      <contour>
        <pt x="169" y="300" on="1"/>
        <pt x="299" y="300" on="1"/>
        <pt x="344" y="300" on="0"/>
        <pt x="378" y="322" on="1"/>
        <pt x="395" y="333" on="0"/>
        <pt x="412" y="377" on="1"/>
        <pt x="421" y="398" on="0"/>
        <pt x="421" y="423" on="1"/>
        <pt x="421" y="423" on="0"/>
        <pt x="421" y="470" on="1"/>
        <pt x="421" y="548" on="0"/>
        <pt x="357" y="610" on="0"/>
        <pt x="295" y="610" on="1"/>
        <pt x="169" y="610" on="1"/>
      </contour>
      <contour>
        <pt x="169" y="0" on="1"/>
        <pt x="78" y="0" on="1"/>
        <pt x="78" y="700" on="1"/>
        <pt x="312" y="700" on="1"/>
        <pt x="413" y="700" on="0"/>
        <pt x="512" y="572" on="0"/>
        <pt x="512" y="471" on="1"/>
        <pt x="512" y="212" on="0"/>
        <pt x="321" y="212" on="1"/>
        <pt x="169" y="212" on="1"/>
      </contour>
    </TTGlyph>
    <TTGlyph name="Phi" xMin="78" yMin="-35" xMax="605" yMax="711">
      <contour>
        <pt x="385" y="-35" on="1"/>
        <pt x="293" y="-22" on="1"/>
        <pt x="293" y="20" on="1"/>
        <pt x="266" y="20" on="1"/>
        <pt x="78" y="20" on="0"/>
        <pt x="78" y="225" on="1"/>
        <pt x="78" y="517" on="1"/>
        <pt x="78" y="669" on="0"/>
        <pt x="194" y="706" on="1"/>
        <pt x="242" y="636" on="1"/>
        <pt x="204" y="623" on="0"/>
        <pt x="169" y="576" on="0"/>
        <pt x="169" y="517" on="1"/>
        <pt x="169" y="238" on="1"/>
        <pt x="169" y="165" on="0"/>
        <pt x="212" y="94" on="0"/>
        <pt x="266" y="94" on="1"/>
        <pt x="293" y="94" on="1"/>
        <pt x="293" y="605" on="1"/>
        <pt x="296" y="654" on="0"/>
        <pt x="369" y="711" on="0"/>
        <pt x="418" y="711" on="1"/>
        <pt x="505" y="711" on="0"/>
        <pt x="605" y="602" on="0"/>
        <pt x="605" y="511" on="1"/>
        <pt x="605" y="225" on="1"/>
        <pt x="605" y="20" on="0"/>
        <pt x="417" y="20" on="1"/>
        <pt x="385" y="20" on="1"/>
      </contour>
      <contour>
        <pt x="385" y="94" on="1"/>
        <pt x="417" y="94" on="1"/>
        <pt x="471" y="94" on="0"/>
        <pt x="513" y="164" on="0"/>
        <pt x="513" y="238" on="1"/>
        <pt x="513" y="477" on="1"/>
        <pt x="513" y="621" on="0"/>
        <pt x="434" y="621" on="1"/>
        <pt x="411" y="621" on="0"/>
        <pt x="388" y="600" on="0"/>
        <pt x="385" y="581" on="0"/>
        <pt x="385" y="563" on="1"/>
      </contour>
    </TTGlyph>
    <TTGlyph name="Pi" xMin="80" yMin="0" xMax="510" yMax="700">
      <contour>
        <pt x="510" y="0" on="1"/>
        <pt x="419" y="0" on="1"/>
        <pt x="419" y="609" on="1"/>
        <pt x="171" y="609" on="1"/>
        <pt x="171" y="0" on="1"/>
        <pt x="80" y="0" on="1"/>
        <pt x="80" y="700" on="1"/>
        <pt x="510" y="700" on="1"/>
      </contour>
    </TTGlyph>
    <TTGlyph name="Psi" xMin="56" yMin="0" xMax="583" yMax="709">
      <contour>
        <pt x="363" y="0" on="1"/>
        <pt x="273" y="0" on="1"/>
        <pt x="272" y="212" on="1"/>
        <pt x="244" y="212" on="1"/>
        <pt x="149" y="212" on="0"/>
        <pt x="56" y="315" on="0"/>
        <pt x="56" y="406" on="1"/>
        <pt x="56" y="700" on="1"/>
        <pt x="147" y="700" on="1"/>
        <pt x="147" y="425" on="1"/>
        <pt x="147" y="353" on="0"/>
        <pt x="189" y="292" on="0"/>
        <pt x="244" y="292" on="1"/>
        <pt x="272" y="292" on="1"/>
        <pt x="272" y="700" on="1"/>
        <pt x="363" y="700" on="1"/>
        <pt x="363" y="292" on="1"/>
        <pt x="395" y="292" on="1"/>
        <pt x="450" y="292" on="0"/>
        <pt x="493" y="355" on="0"/>
        <pt x="493" y="427" on="1"/>
        <pt x="493" y="564" on="1"/>
        <pt x="493" y="603" on="0"/>
        <pt x="485" y="631" on="0"/>
        <pt x="482" y="643" on="0"/>
        <pt x="470" y="657" on="0"/>
        <pt x="466" y="661" on="0"/>
        <pt x="449" y="674" on="0"/>
        <pt x="447" y="676" on="1"/>
        <pt x="527" y="709" on="1"/>
        <pt x="554" y="692" on="0"/>
        <pt x="580" y="633" on="0"/>
        <pt x="583" y="591" on="0"/>
        <pt x="583" y="549" on="1"/>
        <pt x="583" y="406" on="1"/>
        <pt x="583" y="315" on="0"/>
        <pt x="490" y="212" on="0"/>
        <pt x="395" y="212" on="1"/>
        <pt x="363" y="212" on="1"/>
      </contour>
    </TTGlyph>
    <TTGlyph name="Q" xMin="63" yMin="-108" xMax="483" yMax="716">
      <contour>
        <pt x="430" y="-28" on="1"/>
        <pt x="421" y="-108" on="1"/>
        <pt x="417" y="-108" on="0"/>
        <pt x="414" y="-108" on="1"/>
        <pt x="288" y="-108" on="0"/>
        <pt x="246" y="-9" on="1"/>
        <pt x="181" y="-5" on="0"/>
        <pt x="126" y="36" on="1"/>
        <pt x="97" y="57" on="0"/>
        <pt x="63" y="134" on="0"/>
        <pt x="63" y="185" on="1"/>
        <pt x="63" y="507" on="1"/>
        <pt x="63" y="610" on="0"/>
        <pt x="176" y="716" on="0"/>
        <pt x="374" y="716" on="0"/>
        <pt x="483" y="604" on="0"/>
        <pt x="483" y="506" on="1"/>
        <pt x="483" y="185" on="1"/>
        <pt x="483" y="100" on="0"/>
        <pt x="397" y="9" on="0"/>
        <pt x="339" y="-2" on="1"/>
        <pt x="352" y="-18" on="0"/>
        <pt x="390" y="-28" on="0"/>
        <pt x="424" y="-28" on="0"/>
      </contour>
      <contour>
        <pt x="392" y="187" on="1"/>
        <pt x="392" y="509" on="1"/>
        <pt x="392" y="557" on="0"/>
        <pt x="335" y="621" on="0"/>
        <pt x="273" y="621" on="1"/>
        <pt x="154" y="621" on="0"/>
        <pt x="154" y="509" on="1"/>
        <pt x="154" y="186" on="1"/>
        <pt x="154" y="150" on="0"/>
        <pt x="191" y="82" on="0"/>
        <pt x="228" y="81" on="1"/>
        <pt x="226" y="93" on="0"/>
        <pt x="226" y="137" on="1"/>
        <pt x="226" y="174" on="1"/>
        <pt x="318" y="174" on="1"/>
        <pt x="318" y="138" on="1"/>
        <pt x="318" y="90" on="0"/>
        <pt x="319" y="82" on="1"/>
        <pt x="357" y="84" on="0"/>
        <pt x="392" y="146" on="0"/>
      </contour>
    </TTGlyph>
    <TTGlyph name="R" xMin="78" yMin="0" xMax="513" yMax="700">
      <contour>
        <pt x="513" y="0" on="1"/>
        <pt x="420" y="0" on="1"/>
        <pt x="347" y="214" on="1"/>
        <pt x="339" y="212" on="0"/>
        <pt x="324" y="212" on="1"/>
        <pt x="169" y="212" on="1"/>
        <pt x="169" y="0" on="1"/>
        <pt x="78" y="0" on="1"/>
        <pt x="78" y="700" on="1"/>
        <pt x="318" y="700" on="1"/>
        <pt x="414" y="700" on="0"/>
        <pt x="512" y="570" on="0"/>
        <pt x="512" y="470" on="1"/>
        <pt x="512" y="347" on="0"/>
        <pt x="477" y="293" on="1"/>
        <pt x="459" y="265" on="0"/>
        <pt x="431" y="244" on="1"/>
      </contour>
      <contour>
        <pt x="169" y="300" on="1"/>
        <pt x="304" y="300" on="1"/>
        <pt x="361" y="300" on="0"/>
        <pt x="384" y="331" on="1"/>
        <pt x="409" y="366" on="0"/>
        <pt x="412" y="395" on="1"/>
        <pt x="417" y="431" on="0"/>
        <pt x="417" y="470" on="1"/>
        <pt x="417" y="548" on="0"/>
        <pt x="352" y="609" on="0"/>
        <pt x="290" y="609" on="1"/>
        <pt x="169" y="609" on="1"/>
      </contour>
    </TTGlyph>
    <TTGlyph name="Racute" xMin="78" yMin="0" xMax="513" yMax="871">
      <contour>
        <pt x="513" y="0" on="1"/>
        <pt x="420" y="0" on="1"/>
        <pt x="347" y="214" on="1"/>
        <pt x="339" y="212" on="0"/>
        <pt x="324" y="212" on="1"/>
        <pt x="169" y="212" on="1"/>
        <pt x="169" y="0" on="1"/>
        <pt x="78" y="0" on="1"/>
        <pt x="78" y="700" on="1"/>
        <pt x="318" y="700" on="1"/>
        <pt x="414" y="700" on="0"/>
        <pt x="512" y="570" on="0"/>
        <pt x="512" y="470" on="1"/>
        <pt x="512" y="347" on="0"/>
        <pt x="477" y="293" on="1"/>
        <pt x="459" y="265" on="0"/>
        <pt x="431" y="244" on="1"/>
      </contour>
      <contour>
        <pt x="169" y="300" on="1"/>
        <pt x="304" y="300" on="1"/>
        <pt x="361" y="300" on="0"/>
        <pt x="384" y="331" on="1"/>
        <pt x="409" y="366" on="0"/>
        <pt x="412" y="395" on="1"/>
        <pt x="417" y="431" on="0"/>
        <pt x="417" y="470" on="1"/>
        <pt x="417" y="548" on="0"/>
        <pt x="352" y="609" on="0"/>
        <pt x="290" y="609" on="1"/>
        <pt x="169" y="609" on="1"/>
      </contour>
      <contour>
        <pt x="290" y="730" on="1"/>
        <pt x="227" y="730" on="1"/>
        <pt x="275" y="841" on="1"/>
        <pt x="287" y="871" on="0"/>
        <pt x="320" y="871" on="1"/>
        <pt x="327" y="871" on="0"/>
        <pt x="334" y="868" on="1"/>
        <pt x="358" y="858" on="0"/>
        <pt x="358" y="819" on="0"/>
        <pt x="346" y="803" on="1"/>
      </contour>
    </TTGlyph>
    <TTGlyph name="Rcaron" xMin="78" yMin="0" xMax="513" yMax="914">
      <contour>
        <pt x="513" y="0" on="1"/>
        <pt x="420" y="0" on="1"/>
        <pt x="347" y="214" on="1"/>
        <pt x="339" y="212" on="0"/>
        <pt x="324" y="212" on="1"/>
        <pt x="169" y="212" on="1"/>
        <pt x="169" y="0" on="1"/>
        <pt x="78" y="0" on="1"/>
        <pt x="78" y="700" on="1"/>
        <pt x="318" y="700" on="1"/>
        <pt x="414" y="700" on="0"/>
        <pt x="512" y="570" on="0"/>
        <pt x="512" y="470" on="1"/>
        <pt x="512" y="347" on="0"/>
        <pt x="477" y="293" on="1"/>
        <pt x="459" y="265" on="0"/>
        <pt x="431" y="244" on="1"/>
      </contour>
      <contour>
        <pt x="169" y="300" on="1"/>
        <pt x="304" y="300" on="1"/>
        <pt x="361" y="300" on="0"/>
        <pt x="384" y="331" on="1"/>
        <pt x="409" y="366" on="0"/>
        <pt x="412" y="395" on="1"/>
        <pt x="417" y="431" on="0"/>
        <pt x="417" y="470" on="1"/>
        <pt x="417" y="548" on="0"/>
        <pt x="352" y="609" on="0"/>
        <pt x="290" y="609" on="1"/>
        <pt x="169" y="609" on="1"/>
      </contour>
      <contour>
        <pt x="426" y="875" on="1"/>
        <pt x="284" y="734" on="1"/>
        <pt x="136" y="875" on="1"/>
        <pt x="192" y="914" on="1"/>
        <pt x="283" y="823" on="1"/>
        <pt x="369" y="914" on="1"/>
      </contour>
    </TTGlyph>
    <TTGlyph name="Rcommaaccent" xMin="78" yMin="-208" xMax="513" yMax="700">
      <contour>
        <pt x="513" y="0" on="1"/>
        <pt x="420" y="0" on="1"/>
        <pt x="347" y="214" on="1"/>
        <pt x="339" y="212" on="0"/>
        <pt x="324" y="212" on="1"/>
        <pt x="169" y="212" on="1"/>
        <pt x="169" y="0" on="1"/>
        <pt x="78" y="0" on="1"/>
        <pt x="78" y="700" on="1"/>
        <pt x="318" y="700" on="1"/>
        <pt x="414" y="700" on="0"/>
        <pt x="512" y="570" on="0"/>
        <pt x="512" y="470" on="1"/>
        <pt x="512" y="347" on="0"/>
        <pt x="477" y="293" on="1"/>
        <pt x="459" y="265" on="0"/>
        <pt x="431" y="244" on="1"/>
      </contour>
      <contour>
        <pt x="169" y="300" on="1"/>
        <pt x="304" y="300" on="1"/>
        <pt x="361" y="300" on="0"/>
        <pt x="384" y="331" on="1"/>
        <pt x="409" y="366" on="0"/>
        <pt x="412" y="395" on="1"/>
        <pt x="417" y="431" on="0"/>
        <pt x="417" y="470" on="1"/>
        <pt x="417" y="548" on="0"/>
        <pt x="352" y="609" on="0"/>
        <pt x="290" y="609" on="1"/>
        <pt x="169" y="609" on="1"/>
      </contour>
      <contour>
        <pt x="263" y="-208" on="1"/>
        <pt x="204" y="-179" on="1"/>
        <pt x="248" y="-154" on="0"/>
        <pt x="273" y="-127" on="1"/>
        <pt x="262" y="-124" on="1"/>
        <pt x="236" y="-109" on="0"/>
        <pt x="237" y="-60" on="0"/>
        <pt x="263" y="-35" on="0"/>
        <pt x="282" y="-35" on="1"/>
        <pt x="305" y="-35" on="0"/>
        <pt x="329" y="-71" on="0"/>
        <pt x="329" y="-91" on="1"/>
        <pt x="329" y="-150" on="0"/>
      </contour>
    </TTGlyph>
    <TTGlyph name="Rho" xMin="78" yMin="0" xMax="512" yMax="700">
      <contour>
        <pt x="169" y="300" on="1"/>
        <pt x="299" y="300" on="1"/>
        <pt x="344" y="300" on="0"/>
        <pt x="378" y="322" on="1"/>
        <pt x="395" y="333" on="0"/>
        <pt x="412" y="377" on="1"/>
        <pt x="421" y="398" on="0"/>
        <pt x="421" y="423" on="1"/>
        <pt x="421" y="423" on="0"/>
        <pt x="421" y="470" on="1"/>
        <pt x="421" y="548" on="0"/>
        <pt x="357" y="610" on="0"/>
        <pt x="295" y="610" on="1"/>
        <pt x="169" y="610" on="1"/>
      </contour>
      <contour>
        <pt x="169" y="0" on="1"/>
        <pt x="78" y="0" on="1"/>
        <pt x="78" y="700" on="1"/>
        <pt x="312" y="700" on="1"/>
        <pt x="413" y="700" on="0"/>
        <pt x="512" y="572" on="0"/>
        <pt x="512" y="471" on="1"/>
        <pt x="512" y="212" on="0"/>
        <pt x="321" y="212" on="1"/>
        <pt x="169" y="212" on="1"/>
      </contour>
    </TTGlyph>
    <TTGlyph name="S" xMin="37" yMin="-11" xMax="512" yMax="710">
      <contour>
        <pt x="37" y="178" on="1"/>
        <pt x="134" y="189" on="1"/>
        <pt x="139" y="142" on="0"/>
        <pt x="213" y="78" on="0"/>
        <pt x="338" y="78" on="0"/>
        <pt x="412" y="138" on="0"/>
        <pt x="412" y="225" on="0"/>
        <pt x="373" y="283" on="0"/>
        <pt x="309" y="319" on="0"/>
        <pt x="233" y="349" on="0"/>
        <pt x="157" y="382" on="0"/>
        <pt x="125" y="402" on="1"/>
        <pt x="54" y="448" on="0"/>
        <pt x="54" y="537" on="1"/>
        <pt x="54" y="607" on="0"/>
        <pt x="171" y="710" on="0"/>
        <pt x="280" y="710" on="1"/>
        <pt x="363" y="710" on="0"/>
        <pt x="426" y="680" on="1"/>
        <pt x="422" y="666" on="1"/>
        <pt x="417" y="653" on="0"/>
        <pt x="402" y="609" on="0"/>
        <pt x="397" y="594" on="1"/>
        <pt x="338" y="618" on="0"/>
        <pt x="217" y="618" on="0"/>
        <pt x="152" y="571" on="0"/>
        <pt x="152" y="498" on="0"/>
        <pt x="230" y="447" on="0"/>
        <pt x="335" y="406" on="0"/>
        <pt x="439" y="355" on="0"/>
        <pt x="512" y="259" on="0"/>
        <pt x="512" y="193" on="1"/>
        <pt x="512" y="103" on="0"/>
        <pt x="394" y="-11" on="0"/>
        <pt x="164" y="-11" on="0"/>
        <pt x="39" y="104" on="0"/>
      </contour>
    </TTGlyph>
    <TTGlyph name="Sacute" xMin="37" yMin="-11" xMax="512" yMax="875">
      <contour>
        <pt x="37" y="178" on="1"/>
        <pt x="134" y="189" on="1"/>
        <pt x="139" y="142" on="0"/>
        <pt x="213" y="78" on="0"/>
        <pt x="338" y="78" on="0"/>
        <pt x="412" y="138" on="0"/>
        <pt x="412" y="225" on="0"/>
        <pt x="373" y="283" on="0"/>
        <pt x="309" y="319" on="0"/>
        <pt x="233" y="349" on="0"/>
        <pt x="157" y="382" on="0"/>
        <pt x="125" y="402" on="1"/>
        <pt x="54" y="448" on="0"/>
        <pt x="54" y="537" on="1"/>
        <pt x="54" y="607" on="0"/>
        <pt x="171" y="710" on="0"/>
        <pt x="280" y="710" on="1"/>
        <pt x="363" y="710" on="0"/>
        <pt x="426" y="680" on="1"/>
        <pt x="422" y="666" on="1"/>
        <pt x="417" y="653" on="0"/>
        <pt x="402" y="609" on="0"/>
        <pt x="397" y="594" on="1"/>
        <pt x="338" y="618" on="0"/>
        <pt x="217" y="618" on="0"/>
        <pt x="152" y="571" on="0"/>
        <pt x="152" y="498" on="0"/>
        <pt x="230" y="447" on="0"/>
        <pt x="335" y="406" on="0"/>
        <pt x="439" y="355" on="0"/>
        <pt x="512" y="259" on="0"/>
        <pt x="512" y="193" on="1"/>
        <pt x="512" y="103" on="0"/>
        <pt x="394" y="-11" on="0"/>
        <pt x="164" y="-11" on="0"/>
        <pt x="39" y="104" on="0"/>
      </contour>
      <contour>
        <pt x="302" y="734" on="1"/>
        <pt x="239" y="734" on="1"/>
        <pt x="287" y="845" on="1"/>
        <pt x="299" y="875" on="0"/>
        <pt x="332" y="875" on="1"/>
        <pt x="339" y="875" on="0"/>
        <pt x="346" y="872" on="1"/>
        <pt x="370" y="862" on="0"/>
        <pt x="370" y="823" on="0"/>
        <pt x="358" y="807" on="1"/>
      </contour>
    </TTGlyph>
    <TTGlyph name="Scaron" xMin="37" yMin="-11" xMax="512" yMax="963">
      <contour>
        <pt x="37" y="178" on="1"/>
        <pt x="134" y="189" on="1"/>
        <pt x="139" y="142" on="0"/>
        <pt x="213" y="78" on="0"/>
        <pt x="338" y="78" on="0"/>
        <pt x="412" y="138" on="0"/>
        <pt x="412" y="225" on="0"/>
        <pt x="373" y="283" on="0"/>
        <pt x="309" y="319" on="0"/>
        <pt x="233" y="349" on="0"/>
        <pt x="157" y="382" on="0"/>
        <pt x="125" y="402" on="1"/>
        <pt x="54" y="448" on="0"/>
        <pt x="54" y="537" on="1"/>
        <pt x="54" y="607" on="0"/>
        <pt x="171" y="710" on="0"/>
        <pt x="280" y="710" on="1"/>
        <pt x="363" y="710" on="0"/>
        <pt x="426" y="680" on="1"/>
        <pt x="422" y="666" on="1"/>
        <pt x="417" y="653" on="0"/>
        <pt x="402" y="609" on="0"/>
        <pt x="397" y="594" on="1"/>
        <pt x="338" y="618" on="0"/>
        <pt x="217" y="618" on="0"/>
        <pt x="152" y="571" on="0"/>
        <pt x="152" y="498" on="0"/>
        <pt x="230" y="447" on="0"/>
        <pt x="335" y="406" on="0"/>
        <pt x="439" y="355" on="0"/>
        <pt x="512" y="259" on="0"/>
        <pt x="512" y="193" on="1"/>
        <pt x="512" y="103" on="0"/>
        <pt x="394" y="-11" on="0"/>
        <pt x="164" y="-11" on="0"/>
        <pt x="39" y="104" on="0"/>
      </contour>
      <contour>
        <pt x="443" y="924" on="1"/>
        <pt x="301" y="783" on="1"/>
        <pt x="153" y="924" on="1"/>
        <pt x="209" y="963" on="1"/>
        <pt x="300" y="872" on="1"/>
        <pt x="386" y="963" on="1"/>
      </contour>
    </TTGlyph>
    <TTGlyph name="Scircumflex" xMin="37" yMin="-11" xMax="512" yMax="912">
      <contour>
        <pt x="37" y="178" on="1"/>
        <pt x="134" y="189" on="1"/>
        <pt x="139" y="142" on="0"/>
        <pt x="213" y="78" on="0"/>
        <pt x="338" y="78" on="0"/>
        <pt x="412" y="138" on="0"/>
        <pt x="412" y="225" on="0"/>
        <pt x="373" y="283" on="0"/>
        <pt x="309" y="319" on="0"/>
        <pt x="233" y="349" on="0"/>
        <pt x="157" y="382" on="0"/>
        <pt x="125" y="402" on="1"/>
        <pt x="54" y="448" on="0"/>
        <pt x="54" y="537" on="1"/>
        <pt x="54" y="607" on="0"/>
        <pt x="171" y="710" on="0"/>
        <pt x="280" y="710" on="1"/>
        <pt x="363" y="710" on="0"/>
        <pt x="426" y="680" on="1"/>
        <pt x="422" y="666" on="1"/>
        <pt x="417" y="653" on="0"/>
        <pt x="402" y="609" on="0"/>
        <pt x="397" y="594" on="1"/>
        <pt x="338" y="618" on="0"/>
        <pt x="217" y="618" on="0"/>
        <pt x="152" y="571" on="0"/>
        <pt x="152" y="498" on="0"/>
        <pt x="230" y="447" on="0"/>
        <pt x="335" y="406" on="0"/>
        <pt x="439" y="355" on="0"/>
        <pt x="512" y="259" on="0"/>
        <pt x="512" y="193" on="1"/>
        <pt x="512" y="103" on="0"/>
        <pt x="394" y="-11" on="0"/>
        <pt x="164" y="-11" on="0"/>
        <pt x="39" y="104" on="0"/>
      </contour>
      <contour>
        <pt x="415" y="771" on="1"/>
        <pt x="358" y="732" on="1"/>
        <pt x="272" y="822" on="1"/>
        <pt x="181" y="732" on="1"/>
        <pt x="125" y="771" on="1"/>
        <pt x="273" y="912" on="1"/>
      </contour>
    </TTGlyph>
    <TTGlyph name="Scommaaccent" xMin="37" yMin="-206" xMax="512" yMax="710">
      <contour>
        <pt x="37" y="178" on="1"/>
        <pt x="134" y="189" on="1"/>
        <pt x="139" y="142" on="0"/>
        <pt x="213" y="78" on="0"/>
        <pt x="338" y="78" on="0"/>
        <pt x="412" y="138" on="0"/>
        <pt x="412" y="225" on="0"/>
        <pt x="373" y="283" on="0"/>
        <pt x="309" y="319" on="0"/>
        <pt x="233" y="349" on="0"/>
        <pt x="157" y="382" on="0"/>
        <pt x="125" y="402" on="1"/>
        <pt x="54" y="448" on="0"/>
        <pt x="54" y="537" on="1"/>
        <pt x="54" y="607" on="0"/>
        <pt x="171" y="710" on="0"/>
        <pt x="280" y="710" on="1"/>
        <pt x="363" y="710" on="0"/>
        <pt x="426" y="680" on="1"/>
        <pt x="422" y="666" on="1"/>
        <pt x="417" y="653" on="0"/>
        <pt x="402" y="609" on="0"/>
        <pt x="397" y="594" on="1"/>
        <pt x="338" y="618" on="0"/>
        <pt x="217" y="618" on="0"/>
        <pt x="152" y="571" on="0"/>
        <pt x="152" y="498" on="0"/>
        <pt x="230" y="447" on="0"/>
        <pt x="335" y="406" on="0"/>
        <pt x="439" y="355" on="0"/>
        <pt x="512" y="259" on="0"/>
        <pt x="512" y="193" on="1"/>
        <pt x="512" y="103" on="0"/>
        <pt x="394" y="-11" on="0"/>
        <pt x="164" y="-11" on="0"/>
        <pt x="39" y="104" on="0"/>
      </contour>
      <contour>
        <pt x="256" y="-206" on="1"/>
        <pt x="197" y="-177" on="1"/>
        <pt x="241" y="-152" on="0"/>
        <pt x="266" y="-125" on="1"/>
        <pt x="255" y="-122" on="1"/>
        <pt x="229" y="-107" on="0"/>
        <pt x="230" y="-58" on="0"/>
        <pt x="256" y="-33" on="0"/>
        <pt x="275" y="-33" on="1"/>
        <pt x="298" y="-33" on="0"/>
        <pt x="322" y="-69" on="0"/>
        <pt x="322" y="-89" on="1"/>
        <pt x="322" y="-148" on="0"/>
      </contour>
    </TTGlyph>
    <TTGlyph name="Sigma" xMin="78" yMin="0" xMax="546" yMax="702">
      <contour>
        <pt x="401" y="0" on="1"/>
        <pt x="78" y="0" on="1"/>
        <pt x="304" y="384" on="1"/>
        <pt x="94" y="702" on="1"/>
        <pt x="522" y="702" on="1"/>
        <pt x="494" y="611" on="1"/>
        <pt x="261" y="611" on="1"/>
        <pt x="412" y="387" on="1"/>
        <pt x="232" y="83" on="1"/>
        <pt x="379" y="83" on="1"/>
        <pt x="417" y="83" on="0"/>
        <pt x="458" y="110" on="0"/>
        <pt x="470" y="145" on="1"/>
        <pt x="546" y="106" on="1"/>
        <pt x="530" y="50" on="0"/>
        <pt x="460" y="0" on="0"/>
      </contour>
    </TTGlyph>
    <TTGlyph name="T" xMin="0" yMin="0" xMax="402" yMax="700">
      <contour>
        <pt x="244" y="0" on="1"/>
        <pt x="153" y="0" on="1"/>
        <pt x="153" y="610" on="1"/>
        <pt x="0" y="610" on="1"/>
        <pt x="0" y="700" on="1"/>
        <pt x="402" y="700" on="1"/>
        <pt x="402" y="610" on="1"/>
        <pt x="244" y="610" on="1"/>
      </contour>
    </TTGlyph>
    <TTGlyph name="Tau" xMin="78" yMin="0" xMax="480" yMax="700">
      <contour>
        <pt x="322" y="0" on="1"/>
        <pt x="231" y="0" on="1"/>
        <pt x="231" y="610" on="1"/>
        <pt x="78" y="610" on="1"/>
        <pt x="78" y="700" on="1"/>
        <pt x="480" y="700" on="1"/>
        <pt x="480" y="610" on="1"/>
        <pt x="322" y="610" on="1"/>
      </contour>
    </TTGlyph>
    <TTGlyph name="Tbar" xMin="0" yMin="0" xMax="402" yMax="809">
      <contour>
        <pt x="244" y="0" on="1"/>
        <pt x="153" y="0" on="1"/>
        <pt x="153" y="610" on="1"/>
        <pt x="0" y="610" on="1"/>
        <pt x="0" y="700" on="1"/>
        <pt x="402" y="700" on="1"/>
        <pt x="402" y="610" on="1"/>
        <pt x="244" y="610" on="1"/>
      </contour>
      <contour>
        <pt x="307" y="730" on="1"/>
        <pt x="90" y="730" on="1"/>
        <pt x="90" y="809" on="1"/>
        <pt x="307" y="809" on="1"/>
      </contour>
    </TTGlyph>
    <TTGlyph name="Tcaron" xMin="0" yMin="0" xMax="402" yMax="914">
      <contour>
        <pt x="244" y="0" on="1"/>
        <pt x="153" y="0" on="1"/>
        <pt x="153" y="610" on="1"/>
        <pt x="0" y="610" on="1"/>
        <pt x="0" y="700" on="1"/>
        <pt x="402" y="700" on="1"/>
        <pt x="402" y="610" on="1"/>
        <pt x="244" y="610" on="1"/>
      </contour>
      <contour>
        <pt x="345" y="875" on="1"/>
        <pt x="203" y="734" on="1"/>
        <pt x="55" y="875" on="1"/>
        <pt x="111" y="914" on="1"/>
        <pt x="202" y="823" on="1"/>
        <pt x="288" y="914" on="1"/>
      </contour>
    </TTGlyph>
    <TTGlyph name="Tcommaaccent" xMin="0" yMin="-206" xMax="402" yMax="700">
      <contour>
        <pt x="244" y="0" on="1"/>
        <pt x="153" y="0" on="1"/>
        <pt x="153" y="610" on="1"/>
        <pt x="0" y="610" on="1"/>
        <pt x="0" y="700" on="1"/>
        <pt x="402" y="700" on="1"/>
        <pt x="402" y="610" on="1"/>
        <pt x="244" y="610" on="1"/>
      </contour>
      <contour>
        <pt x="178" y="-206" on="1"/>
        <pt x="119" y="-177" on="1"/>
        <pt x="163" y="-152" on="0"/>
        <pt x="188" y="-125" on="1"/>
        <pt x="177" y="-122" on="1"/>
        <pt x="151" y="-107" on="0"/>
        <pt x="152" y="-58" on="0"/>
        <pt x="178" y="-33" on="0"/>
        <pt x="197" y="-33" on="1"/>
        <pt x="220" y="-33" on="0"/>
        <pt x="244" y="-69" on="0"/>
        <pt x="244" y="-89" on="1"/>
        <pt x="244" y="-148" on="0"/>
      </contour>
    </TTGlyph>
    <TTGlyph name="Theta" xMin="100" yMin="-11" xMax="520" yMax="716">
      <contour>
        <pt x="520" y="506" on="1"/>
        <pt x="520" y="185" on="1"/>
        <pt x="520" y="84" on="0"/>
        <pt x="397" y="-11" on="0"/>
        <pt x="225" y="-11" on="0"/>
        <pt x="100" y="84" on="0"/>
        <pt x="100" y="185" on="1"/>
        <pt x="100" y="507" on="1"/>
        <pt x="100" y="610" on="0"/>
        <pt x="213" y="716" on="0"/>
        <pt x="411" y="716" on="0"/>
        <pt x="520" y="604" on="0"/>
      </contour>
      <contour>
        <pt x="429" y="390" on="1"/>
        <pt x="429" y="486" on="1"/>
        <pt x="429" y="552" on="0"/>
        <pt x="374" y="620" on="0"/>
        <pt x="246" y="620" on="0"/>
        <pt x="191" y="553" on="0"/>
        <pt x="191" y="487" on="1"/>
        <pt x="191" y="390" on="1"/>
      </contour>
      <contour>
        <pt x="429" y="199" on="1"/>
        <pt x="429" y="306" on="1"/>
        <pt x="191" y="306" on="1"/>
        <pt x="191" y="198" on="1"/>
        <pt x="191" y="142" on="0"/>
        <pt x="254" y="80" on="0"/>
        <pt x="364" y="80" on="0"/>
        <pt x="429" y="143" on="0"/>
      </contour>
    </TTGlyph>
    <TTGlyph name="Thorn" xMin="78" yMin="0" xMax="455" yMax="700">
      <contour>
        <pt x="168" y="0" on="1"/>
        <pt x="78" y="0" on="1"/>
        <pt x="78" y="700" on="1"/>
        <pt x="168" y="700" on="1"/>
        <pt x="168" y="479" on="1"/>
        <pt x="208" y="509" on="0"/>
        <pt x="265" y="509" on="1"/>
        <pt x="358" y="509" on="0"/>
        <pt x="455" y="401" on="0"/>
        <pt x="455" y="221" on="0"/>
        <pt x="352" y="116" on="0"/>
        <pt x="269" y="116" on="1"/>
        <pt x="206" y="116" on="0"/>
        <pt x="168" y="155" on="1"/>
      </contour>
      <contour>
        <pt x="168" y="259" on="0"/>
        <pt x="226" y="202" on="0"/>
        <pt x="308" y="202" on="0"/>
        <pt x="365" y="257" on="0"/>
        <pt x="365" y="363" on="0"/>
        <pt x="313" y="423" on="0"/>
        <pt x="230" y="423" on="0"/>
        <pt x="169" y="369" on="0"/>
      </contour>
    </TTGlyph>
    <TTGlyph name="U" xMin="74" yMin="-7" xMax="495" yMax="701">
      <contour>
        <pt x="404" y="212" on="1"/>
        <pt x="404" y="701" on="1"/>
        <pt x="495" y="701" on="1"/>
        <pt x="495" y="186" on="1"/>
        <pt x="495" y="133" on="0"/>
        <pt x="458" y="55" on="0"/>
        <pt x="395" y="13" on="0"/>
        <pt x="325" y="-7" on="0"/>
        <pt x="245" y="-7" on="0"/>
        <pt x="174" y="13" on="0"/>
        <pt x="111" y="55" on="0"/>
        <pt x="74" y="133" on="0"/>
        <pt x="74" y="186" on="1"/>
        <pt x="74" y="701" on="1"/>
        <pt x="165" y="701" on="1"/>
        <pt x="165" y="212" on="1"/>
        <pt x="165" y="81" on="0"/>
        <pt x="404" y="81" on="0"/>
      </contour>
    </TTGlyph>
    <TTGlyph name="Uacute" xMin="74" yMin="-7" xMax="495" yMax="872">
      <contour>
        <pt x="404" y="212" on="1"/>
        <pt x="404" y="701" on="1"/>
        <pt x="495" y="701" on="1"/>
        <pt x="495" y="186" on="1"/>
        <pt x="495" y="133" on="0"/>
        <pt x="458" y="55" on="0"/>
        <pt x="395" y="13" on="0"/>
        <pt x="325" y="-7" on="0"/>
        <pt x="245" y="-7" on="0"/>
        <pt x="174" y="13" on="0"/>
        <pt x="111" y="55" on="0"/>
        <pt x="74" y="133" on="0"/>
        <pt x="74" y="186" on="1"/>
        <pt x="74" y="701" on="1"/>
        <pt x="165" y="701" on="1"/>
        <pt x="165" y="212" on="1"/>
        <pt x="165" y="81" on="0"/>
        <pt x="404" y="81" on="0"/>
      </contour>
      <contour>
        <pt x="316" y="731" on="1"/>
        <pt x="253" y="731" on="1"/>
        <pt x="301" y="842" on="1"/>
        <pt x="313" y="872" on="0"/>
        <pt x="346" y="872" on="1"/>
        <pt x="353" y="872" on="0"/>
        <pt x="360" y="869" on="1"/>
        <pt x="384" y="859" on="0"/>
        <pt x="384" y="820" on="0"/>
        <pt x="372" y="804" on="1"/>
      </contour>
    </TTGlyph>
    <TTGlyph name="Ubreve" xMin="74" yMin="-7" xMax="495" yMax="842">
      <contour>
        <pt x="404" y="212" on="1"/>
        <pt x="404" y="701" on="1"/>
        <pt x="495" y="701" on="1"/>
        <pt x="495" y="186" on="1"/>
        <pt x="495" y="133" on="0"/>
        <pt x="458" y="55" on="0"/>
        <pt x="395" y="13" on="0"/>
        <pt x="325" y="-7" on="0"/>
        <pt x="245" y="-7" on="0"/>
        <pt x="174" y="13" on="0"/>
        <pt x="111" y="55" on="0"/>
        <pt x="74" y="133" on="0"/>
        <pt x="74" y="186" on="1"/>
        <pt x="74" y="701" on="1"/>
        <pt x="165" y="701" on="1"/>
        <pt x="165" y="212" on="1"/>
        <pt x="165" y="81" on="0"/>
        <pt x="404" y="81" on="0"/>
      </contour>
      <contour>
        <pt x="397" y="842" on="1"/>
        <pt x="397" y="837" on="1"/>
        <pt x="397" y="790" on="0"/>
        <pt x="330" y="724" on="0"/>
        <pt x="238" y="724" on="0"/>
        <pt x="171" y="790" on="0"/>
        <pt x="171" y="837" on="1"/>
        <pt x="171" y="842" on="1"/>
        <pt x="241" y="842" on="1"/>
        <pt x="241" y="837" on="1"/>
        <pt x="241" y="815" on="0"/>
        <pt x="265" y="790" on="0"/>
        <pt x="303" y="790" on="0"/>
        <pt x="328" y="816" on="0"/>
        <pt x="328" y="837" on="1"/>
        <pt x="328" y="842" on="1"/>
      </contour>
    </TTGlyph>
    <TTGlyph name="Ucircumflex" xMin="74" yMin="-7" xMax="495" yMax="912">
      <contour>
        <pt x="404" y="212" on="1"/>
        <pt x="404" y="701" on="1"/>
        <pt x="495" y="701" on="1"/>
        <pt x="495" y="186" on="1"/>
        <pt x="495" y="133" on="0"/>
        <pt x="458" y="55" on="0"/>
        <pt x="395" y="13" on="0"/>
        <pt x="325" y="-7" on="0"/>
        <pt x="245" y="-7" on="0"/>
        <pt x="174" y="13" on="0"/>
        <pt x="111" y="55" on="0"/>
        <pt x="74" y="133" on="0"/>
        <pt x="74" y="186" on="1"/>
        <pt x="74" y="701" on="1"/>
        <pt x="165" y="701" on="1"/>
        <pt x="165" y="212" on="1"/>
        <pt x="165" y="81" on="0"/>
        <pt x="404" y="81" on="0"/>
      </contour>
      <contour>
        <pt x="430" y="771" on="1"/>
        <pt x="373" y="732" on="1"/>
        <pt x="287" y="822" on="1"/>
        <pt x="196" y="732" on="1"/>
        <pt x="140" y="771" on="1"/>
        <pt x="288" y="912" on="1"/>
      </contour>
    </TTGlyph>
    <TTGlyph name="Udieresis" xMin="74" yMin="-7" xMax="495" yMax="813">
      <contour>
        <pt x="404" y="212" on="1"/>
        <pt x="404" y="701" on="1"/>
        <pt x="495" y="701" on="1"/>
        <pt x="495" y="186" on="1"/>
        <pt x="495" y="133" on="0"/>
        <pt x="458" y="55" on="0"/>
        <pt x="395" y="13" on="0"/>
        <pt x="325" y="-7" on="0"/>
        <pt x="245" y="-7" on="0"/>
        <pt x="174" y="13" on="0"/>
        <pt x="111" y="55" on="0"/>
        <pt x="74" y="133" on="0"/>
        <pt x="74" y="186" on="1"/>
        <pt x="74" y="701" on="1"/>
        <pt x="165" y="701" on="1"/>
        <pt x="165" y="212" on="1"/>
        <pt x="165" y="81" on="0"/>
        <pt x="404" y="81" on="0"/>
      </contour>
      <contour>
        <pt x="253" y="788" on="0"/>
        <pt x="253" y="754" on="0"/>
        <pt x="229" y="731" on="0"/>
        <pt x="196" y="731" on="0"/>
        <pt x="172" y="754" on="0"/>
        <pt x="172" y="788" on="0"/>
        <pt x="195" y="812" on="0"/>
        <pt x="229" y="812" on="0"/>
      </contour>
      <contour>
        <pt x="370" y="731" on="0"/>
        <pt x="336" y="731" on="0"/>
        <pt x="312" y="755" on="0"/>
        <pt x="312" y="788" on="0"/>
        <pt x="336" y="813" on="0"/>
        <pt x="370" y="813" on="0"/>
        <pt x="394" y="789" on="0"/>
        <pt x="394" y="755" on="0"/>
      </contour>
    </TTGlyph>
    <TTGlyph name="Ugrave" xMin="74" yMin="-7" xMax="495" yMax="873">
      <contour>
        <pt x="404" y="212" on="1"/>
        <pt x="404" y="701" on="1"/>
        <pt x="495" y="701" on="1"/>
        <pt x="495" y="186" on="1"/>
        <pt x="495" y="133" on="0"/>
        <pt x="458" y="55" on="0"/>
        <pt x="395" y="13" on="0"/>
        <pt x="325" y="-7" on="0"/>
        <pt x="245" y="-7" on="0"/>
        <pt x="174" y="13" on="0"/>
        <pt x="111" y="55" on="0"/>
        <pt x="74" y="133" on="0"/>
        <pt x="74" y="186" on="1"/>
        <pt x="74" y="701" on="1"/>
        <pt x="165" y="701" on="1"/>
        <pt x="165" y="212" on="1"/>
        <pt x="165" y="81" on="0"/>
        <pt x="404" y="81" on="0"/>
      </contour>
      <contour>
        <pt x="316" y="732" on="1"/>
        <pt x="253" y="732" on="1"/>
        <pt x="197" y="805" on="1"/>
        <pt x="185" y="821" on="0"/>
        <pt x="185" y="830" on="1"/>
        <pt x="185" y="860" on="0"/>
        <pt x="209" y="870" on="1"/>
        <pt x="216" y="873" on="0"/>
        <pt x="224" y="873" on="1"/>
        <pt x="256" y="873" on="0"/>
        <pt x="268" y="843" on="1"/>
      </contour>
    </TTGlyph>
    <TTGlyph name="Uhungarumlaut" xMin="74" yMin="-7" xMax="495" yMax="874">
      <contour>
        <pt x="404" y="212" on="1"/>
        <pt x="404" y="701" on="1"/>
        <pt x="495" y="701" on="1"/>
        <pt x="495" y="186" on="1"/>
        <pt x="495" y="133" on="0"/>
        <pt x="458" y="55" on="0"/>
        <pt x="395" y="13" on="0"/>
        <pt x="325" y="-7" on="0"/>
        <pt x="245" y="-7" on="0"/>
        <pt x="174" y="13" on="0"/>
        <pt x="111" y="55" on="0"/>
        <pt x="74" y="133" on="0"/>
        <pt x="74" y="186" on="1"/>
        <pt x="74" y="701" on="1"/>
        <pt x="165" y="701" on="1"/>
        <pt x="165" y="212" on="1"/>
        <pt x="165" y="81" on="0"/>
        <pt x="404" y="81" on="0"/>
      </contour>
      <contour>
        <pt x="379" y="733" on="1"/>
        <pt x="316" y="733" on="1"/>
        <pt x="364" y="844" on="1"/>
        <pt x="376" y="874" on="0"/>
        <pt x="409" y="874" on="1"/>
        <pt x="416" y="874" on="0"/>
        <pt x="423" y="871" on="1"/>
        <pt x="447" y="861" on="0"/>
        <pt x="447" y="822" on="0"/>
        <pt x="435" y="806" on="1"/>
      </contour>
      <contour>
        <pt x="248" y="733" on="1"/>
        <pt x="185" y="733" on="1"/>
        <pt x="233" y="844" on="1"/>
        <pt x="245" y="874" on="0"/>
        <pt x="278" y="874" on="1"/>
        <pt x="285" y="874" on="0"/>
        <pt x="292" y="871" on="1"/>
        <pt x="316" y="861" on="0"/>
        <pt x="316" y="822" on="0"/>
        <pt x="304" y="806" on="1"/>
      </contour>
    </TTGlyph>
    <TTGlyph name="Umacron" xMin="74" yMin="-7" xMax="495" yMax="809">
      <contour>
        <pt x="404" y="212" on="1"/>
        <pt x="404" y="701" on="1"/>
        <pt x="495" y="701" on="1"/>
        <pt x="495" y="186" on="1"/>
        <pt x="495" y="133" on="0"/>
        <pt x="458" y="55" on="0"/>
        <pt x="395" y="13" on="0"/>
        <pt x="325" y="-7" on="0"/>
        <pt x="245" y="-7" on="0"/>
        <pt x="174" y="13" on="0"/>
        <pt x="111" y="55" on="0"/>
        <pt x="74" y="133" on="0"/>
        <pt x="74" y="186" on="1"/>
        <pt x="74" y="701" on="1"/>
        <pt x="165" y="701" on="1"/>
        <pt x="165" y="212" on="1"/>
        <pt x="165" y="81" on="0"/>
        <pt x="404" y="81" on="0"/>
      </contour>
      <contour>
        <pt x="391" y="730" on="1"/>
        <pt x="174" y="730" on="1"/>
        <pt x="174" y="809" on="1"/>
        <pt x="391" y="809" on="1"/>
      </contour>
    </TTGlyph>
    <TTGlyph name="Uogonek" xMin="74" yMin="-213" xMax="495" yMax="701">
      <contour>
        <pt x="319" y="-115" on="1"/>
        <pt x="364" y="-163" on="1"/>
        <pt x="332" y="-213" on="0"/>
        <pt x="259" y="-213" on="1"/>
        <pt x="230" y="-213" on="0"/>
        <pt x="170" y="-170" on="0"/>
        <pt x="170" y="-128" on="1"/>
        <pt x="170" y="-125" on="0"/>
        <pt x="170" y="-122" on="1"/>
        <pt x="170" y="-62" on="0"/>
        <pt x="255" y="-5" on="1"/>
        <pt x="177" y="2" on="0"/>
        <pt x="74" y="94" on="0"/>
        <pt x="74" y="186" on="1"/>
        <pt x="74" y="701" on="1"/>
        <pt x="165" y="701" on="1"/>
        <pt x="165" y="212" on="1"/>
        <pt x="165" y="81" on="0"/>
        <pt x="404" y="81" on="0"/>
        <pt x="404" y="212" on="1"/>
        <pt x="404" y="701" on="1"/>
        <pt x="495" y="701" on="1"/>
        <pt x="495" y="186" on="1"/>
        <pt x="495" y="97" on="0"/>
        <pt x="398" y="4" on="0"/>
        <pt x="324" y="-4" on="1"/>
        <pt x="275" y="-46" on="0"/>
        <pt x="234" y="-99" on="0"/>
        <pt x="234" y="-119" on="1"/>
        <pt x="234" y="-152" on="0"/>
        <pt x="300" y="-152" on="0"/>
      </contour>
    </TTGlyph>
    <TTGlyph name="Upsilon" xMin="60" yMin="-15" xMax="504" yMax="700">
      <contour>
        <pt x="370" y="-15" on="1"/>
        <pt x="343" y="53" on="1"/>
        <pt x="413" y="66" on="0"/>
        <pt x="413" y="160" on="1"/>
        <pt x="413" y="246" on="1"/>
        <pt x="364" y="212" on="0"/>
        <pt x="289" y="212" on="1"/>
        <pt x="185" y="212" on="0"/>
        <pt x="60" y="326" on="0"/>
        <pt x="60" y="427" on="1"/>
        <pt x="60" y="700" on="1"/>
        <pt x="151" y="700" on="1"/>
        <pt x="151" y="430" on="1"/>
        <pt x="151" y="366" on="0"/>
        <pt x="223" y="302" on="0"/>
        <pt x="340" y="302" on="0"/>
        <pt x="403" y="337" on="0"/>
        <pt x="413" y="363" on="1"/>
        <pt x="413" y="700" on="1"/>
        <pt x="504" y="700" on="1"/>
        <pt x="504" y="156" on="1"/>
        <pt x="504" y="0" on="0"/>
      </contour>
    </TTGlyph>
    <TTGlyph name="Upsilon_alt" xMin="3" yMin="0" xMax="475" yMax="700">
      <contour>
        <pt x="285" y="0" on="1"/>
        <pt x="193" y="0" on="1"/>
        <pt x="193" y="324" on="1"/>
        <pt x="3" y="700" on="1"/>
        <pt x="100" y="700" on="1"/>
        <pt x="238" y="424" on="1"/>
        <pt x="377" y="700" on="1"/>
        <pt x="475" y="700" on="1"/>
        <pt x="285" y="324" on="1"/>
      </contour>
    </TTGlyph>
    <TTGlyph name="Upsilondieresis" xMin="78" yMin="-15" xMax="522" yMax="813">
      <contour>
        <pt x="388" y="-15" on="1"/>
        <pt x="361" y="53" on="1"/>
        <pt x="431" y="66" on="0"/>
        <pt x="431" y="160" on="1"/>
        <pt x="431" y="246" on="1"/>
        <pt x="382" y="212" on="0"/>
        <pt x="307" y="212" on="1"/>
        <pt x="203" y="212" on="0"/>
        <pt x="78" y="326" on="0"/>
        <pt x="78" y="427" on="1"/>
        <pt x="78" y="700" on="1"/>
        <pt x="169" y="700" on="1"/>
        <pt x="169" y="430" on="1"/>
        <pt x="169" y="366" on="0"/>
        <pt x="241" y="302" on="0"/>
        <pt x="358" y="302" on="0"/>
        <pt x="421" y="337" on="0"/>
        <pt x="431" y="363" on="1"/>
        <pt x="431" y="700" on="1"/>
        <pt x="522" y="700" on="1"/>
        <pt x="522" y="156" on="1"/>
        <pt x="522" y="0" on="0"/>
      </contour>
      <contour>
        <pt x="271" y="788" on="0"/>
        <pt x="271" y="754" on="0"/>
        <pt x="247" y="731" on="0"/>
        <pt x="214" y="731" on="0"/>
        <pt x="190" y="754" on="0"/>
        <pt x="190" y="788" on="0"/>
        <pt x="213" y="812" on="0"/>
        <pt x="247" y="812" on="0"/>
      </contour>
      <contour>
        <pt x="388" y="731" on="0"/>
        <pt x="354" y="731" on="0"/>
        <pt x="330" y="755" on="0"/>
        <pt x="330" y="788" on="0"/>
        <pt x="354" y="813" on="0"/>
        <pt x="388" y="813" on="0"/>
        <pt x="412" y="789" on="0"/>
        <pt x="412" y="755" on="0"/>
      </contour>
    </TTGlyph>
    <TTGlyph name="Upsilondieresis_alt" xMin="5" yMin="0" xMax="477" yMax="811">
      <contour>
        <pt x="205" y="786" on="0"/>
        <pt x="205" y="752" on="0"/>
        <pt x="181" y="729" on="0"/>
        <pt x="148" y="729" on="0"/>
        <pt x="124" y="752" on="0"/>
        <pt x="124" y="786" on="0"/>
        <pt x="147" y="810" on="0"/>
        <pt x="181" y="810" on="0"/>
      </contour>
      <contour>
        <pt x="322" y="729" on="0"/>
        <pt x="288" y="729" on="0"/>
        <pt x="264" y="753" on="0"/>
        <pt x="264" y="786" on="0"/>
        <pt x="288" y="811" on="0"/>
        <pt x="322" y="811" on="0"/>
        <pt x="346" y="787" on="0"/>
        <pt x="346" y="753" on="0"/>
      </contour>
      <contour>
        <pt x="287" y="0" on="1"/>
        <pt x="195" y="0" on="1"/>
        <pt x="195" y="324" on="1"/>
        <pt x="5" y="700" on="1"/>
        <pt x="102" y="700" on="1"/>
        <pt x="240" y="424" on="1"/>
        <pt x="379" y="700" on="1"/>
        <pt x="477" y="700" on="1"/>
        <pt x="287" y="324" on="1"/>
      </contour>
    </TTGlyph>
    <TTGlyph name="Upsilontonos" xMin="78" yMin="-15" xMax="681" yMax="709">
      <contour>
        <pt x="141" y="568" on="1"/>
        <pt x="78" y="568" on="1"/>
        <pt x="126" y="679" on="1"/>
        <pt x="138" y="709" on="0"/>
        <pt x="171" y="709" on="1"/>
        <pt x="178" y="709" on="0"/>
        <pt x="185" y="706" on="1"/>
        <pt x="209" y="696" on="0"/>
        <pt x="209" y="657" on="0"/>
        <pt x="197" y="641" on="1"/>
      </contour>
      <contour>
        <pt x="547" y="-15" on="1"/>
        <pt x="520" y="53" on="1"/>
        <pt x="590" y="66" on="0"/>
        <pt x="590" y="160" on="1"/>
        <pt x="590" y="246" on="1"/>
        <pt x="541" y="212" on="0"/>
        <pt x="466" y="212" on="1"/>
        <pt x="362" y="212" on="0"/>
        <pt x="237" y="326" on="0"/>
        <pt x="237" y="427" on="1"/>
        <pt x="237" y="700" on="1"/>
        <pt x="328" y="700" on="1"/>
        <pt x="328" y="430" on="1"/>
        <pt x="328" y="366" on="0"/>
        <pt x="400" y="302" on="0"/>
        <pt x="517" y="302" on="0"/>
        <pt x="580" y="337" on="0"/>
        <pt x="590" y="363" on="1"/>
        <pt x="590" y="700" on="1"/>
        <pt x="681" y="700" on="1"/>
        <pt x="681" y="156" on="1"/>
        <pt x="681" y="0" on="0"/>
      </contour>
    </TTGlyph>
    <TTGlyph name="Upsilontonos_alt" xMin="78" yMin="0" xMax="717" yMax="709">
      <contour>
        <pt x="141" y="568" on="1"/>
        <pt x="78" y="568" on="1"/>
        <pt x="126" y="679" on="1"/>
        <pt x="138" y="709" on="0"/>
        <pt x="171" y="709" on="1"/>
        <pt x="178" y="709" on="0"/>
        <pt x="185" y="706" on="1"/>
        <pt x="209" y="696" on="0"/>
        <pt x="209" y="657" on="0"/>
        <pt x="197" y="641" on="1"/>
      </contour>
      <contour>
        <pt x="527" y="0" on="1"/>
        <pt x="435" y="0" on="1"/>
        <pt x="435" y="324" on="1"/>
        <pt x="245" y="700" on="1"/>
        <pt x="342" y="700" on="1"/>
        <pt x="480" y="424" on="1"/>
        <pt x="619" y="700" on="1"/>
        <pt x="717" y="700" on="1"/>
        <pt x="527" y="324" on="1"/>
      </contour>
    </TTGlyph>
    <TTGlyph name="Uring" xMin="74" yMin="-7" xMax="495" yMax="879">
      <contour>
        <pt x="404" y="212" on="1"/>
        <pt x="404" y="701" on="1"/>
        <pt x="495" y="701" on="1"/>
        <pt x="495" y="186" on="1"/>
        <pt x="495" y="133" on="0"/>
        <pt x="458" y="55" on="0"/>
        <pt x="395" y="13" on="0"/>
        <pt x="325" y="-7" on="0"/>
        <pt x="245" y="-7" on="0"/>
        <pt x="174" y="13" on="0"/>
        <pt x="111" y="55" on="0"/>
        <pt x="74" y="133" on="0"/>
        <pt x="74" y="186" on="1"/>
        <pt x="74" y="701" on="1"/>
        <pt x="165" y="701" on="1"/>
        <pt x="165" y="212" on="1"/>
        <pt x="165" y="81" on="0"/>
        <pt x="404" y="81" on="0"/>
      </contour>
      <contour>
        <pt x="327" y="752" on="0"/>
        <pt x="327" y="788" on="0"/>
        <pt x="302" y="813" on="0"/>
        <pt x="266" y="813" on="0"/>
        <pt x="241" y="788" on="0"/>
        <pt x="241" y="752" on="0"/>
        <pt x="266" y="727" on="0"/>
        <pt x="302" y="727" on="0"/>
      </contour>
      <contour>
        <pt x="329" y="661" on="0"/>
        <pt x="239" y="661" on="0"/>
        <pt x="175" y="725" on="0"/>
        <pt x="175" y="815" on="0"/>
        <pt x="239" y="879" on="0"/>
        <pt x="329" y="879" on="0"/>
        <pt x="393" y="815" on="0"/>
        <pt x="393" y="725" on="0"/>
      </contour>
    </TTGlyph>
    <TTGlyph name="Utilde" xMin="74" yMin="-7" xMax="495" yMax="845">
      <contour>
        <pt x="404" y="212" on="1"/>
        <pt x="404" y="701" on="1"/>
        <pt x="495" y="701" on="1"/>
        <pt x="495" y="186" on="1"/>
        <pt x="495" y="133" on="0"/>
        <pt x="458" y="55" on="0"/>
        <pt x="395" y="13" on="0"/>
        <pt x="325" y="-7" on="0"/>
        <pt x="245" y="-7" on="0"/>
        <pt x="174" y="13" on="0"/>
        <pt x="111" y="55" on="0"/>
        <pt x="74" y="133" on="0"/>
        <pt x="74" y="186" on="1"/>
        <pt x="74" y="701" on="1"/>
        <pt x="165" y="701" on="1"/>
        <pt x="165" y="212" on="1"/>
        <pt x="165" y="81" on="0"/>
        <pt x="404" y="81" on="0"/>
      </contour>
      <contour>
        <pt x="359" y="804" on="1"/>
        <pt x="398" y="804" on="0"/>
        <pt x="429" y="839" on="1"/>
        <pt x="465" y="783" on="1"/>
        <pt x="420" y="730" on="0"/>
        <pt x="369" y="730" on="1"/>
        <pt x="351" y="730" on="0"/>
        <pt x="305" y="749" on="0"/>
        <pt x="255" y="772" on="0"/>
        <pt x="230" y="772" on="1"/>
        <pt x="188" y="772" on="0"/>
        <pt x="154" y="736" on="1"/>
        <pt x="120" y="792" on="1"/>
        <pt x="167" y="845" on="0"/>
        <pt x="220" y="845" on="1"/>
        <pt x="238" y="845" on="0"/>
        <pt x="283" y="827" on="0"/>
        <pt x="334" y="804" on="0"/>
      </contour>
    </TTGlyph>
    <TTGlyph name="V" xMin="78" yMin="0" xMax="556" yMax="700">
      <contour>
        <pt x="373" y="0" on="1"/>
        <pt x="262" y="0" on="1"/>
        <pt x="78" y="700" on="1"/>
        <pt x="180" y="700" on="1"/>
        <pt x="317" y="165" on="1"/>
        <pt x="452" y="700" on="1"/>
        <pt x="556" y="700" on="1"/>
      </contour>
    </TTGlyph>
    <TTGlyph name="W" xMin="78" yMin="0" xMax="774" yMax="700">
      <contour>
        <pt x="630" y="0" on="1"/>
        <pt x="519" y="0" on="1"/>
        <pt x="427" y="439" on="1"/>
        <pt x="336" y="0" on="1"/>
        <pt x="223" y="0" on="1"/>
        <pt x="78" y="700" on="1"/>
        <pt x="178" y="700" on="1"/>
        <pt x="281" y="188" on="1"/>
        <pt x="388" y="700" on="1"/>
        <pt x="466" y="700" on="1"/>
        <pt x="573" y="188" on="1"/>
        <pt x="671" y="700" on="1"/>
        <pt x="774" y="700" on="1"/>
      </contour>
    </TTGlyph>
    <TTGlyph name="X" xMin="78" yMin="0" xMax="630" yMax="700">
      <contour>
        <pt x="630" y="0" on="1"/>
        <pt x="515" y="0" on="1"/>
        <pt x="351" y="261" on="1"/>
        <pt x="191" y="0" on="1"/>
        <pt x="78" y="0" on="1"/>
        <pt x="297" y="351" on="1"/>
        <pt x="92" y="700" on="1"/>
        <pt x="199" y="700" on="1"/>
        <pt x="355" y="446" on="1"/>
        <pt x="507" y="700" on="1"/>
        <pt x="614" y="700" on="1"/>
        <pt x="410" y="357" on="1"/>
      </contour>
    </TTGlyph>
    <TTGlyph name="Xi" xMin="78" yMin="0" xMax="587" yMax="701">
      <contour>
        <pt x="469" y="325" on="1"/>
        <pt x="205" y="325" on="1"/>
        <pt x="205" y="413" on="1"/>
        <pt x="469" y="413" on="1"/>
      </contour>
      <contour>
        <pt x="527" y="611" on="1"/>
        <pt x="237" y="611" on="1"/>
        <pt x="162" y="611" on="0"/>
        <pt x="143" y="557" on="1"/>
        <pt x="78" y="595" on="1"/>
        <pt x="94" y="651" on="0"/>
        <pt x="164" y="701" on="0"/>
        <pt x="223" y="701" on="1"/>
        <pt x="548" y="701" on="1"/>
      </contour>
      <contour>
        <pt x="442" y="0" on="1"/>
        <pt x="117" y="0" on="1"/>
        <pt x="144" y="84" on="1"/>
        <pt x="416" y="84" on="1"/>
        <pt x="455" y="84" on="0"/>
        <pt x="500" y="111" on="0"/>
        <pt x="512" y="145" on="1"/>
        <pt x="587" y="106" on="1"/>
        <pt x="571" y="50" on="0"/>
        <pt x="501" y="0" on="0"/>
      </contour>
    </TTGlyph>
    <TTGlyph name="Y" xMin="52" yMin="-15" xMax="496" yMax="700">
      <contour>
        <pt x="362" y="-15" on="1"/>
        <pt x="335" y="53" on="1"/>
        <pt x="405" y="66" on="0"/>
        <pt x="405" y="160" on="1"/>
        <pt x="405" y="246" on="1"/>
        <pt x="356" y="212" on="0"/>
        <pt x="281" y="212" on="1"/>
        <pt x="177" y="212" on="0"/>
        <pt x="52" y="326" on="0"/>
        <pt x="52" y="427" on="1"/>
        <pt x="52" y="700" on="1"/>
        <pt x="143" y="700" on="1"/>
        <pt x="143" y="430" on="1"/>
        <pt x="143" y="366" on="0"/>
        <pt x="215" y="302" on="0"/>
        <pt x="332" y="302" on="0"/>
        <pt x="395" y="337" on="0"/>
        <pt x="405" y="363" on="1"/>
        <pt x="405" y="700" on="1"/>
        <pt x="496" y="700" on="1"/>
        <pt x="496" y="156" on="1"/>
        <pt x="496" y="0" on="0"/>
      </contour>
    </TTGlyph>
    <TTGlyph name="Y_alt" xMin="0" yMin="0" xMax="472" yMax="700">
      <contour>
        <pt x="282" y="0" on="1"/>
        <pt x="190" y="0" on="1"/>
        <pt x="190" y="324" on="1"/>
        <pt x="0" y="700" on="1"/>
        <pt x="97" y="700" on="1"/>
        <pt x="235" y="424" on="1"/>
        <pt x="374" y="700" on="1"/>
        <pt x="472" y="700" on="1"/>
        <pt x="282" y="324" on="1"/>
      </contour>
    </TTGlyph>
    <TTGlyph name="Yacute" xMin="52" yMin="-15" xMax="496" yMax="872">
      <contour>
        <pt x="362" y="-15" on="1"/>
        <pt x="335" y="53" on="1"/>
        <pt x="405" y="66" on="0"/>
        <pt x="405" y="160" on="1"/>
        <pt x="405" y="246" on="1"/>
        <pt x="356" y="212" on="0"/>
        <pt x="281" y="212" on="1"/>
        <pt x="177" y="212" on="0"/>
        <pt x="52" y="326" on="0"/>
        <pt x="52" y="427" on="1"/>
        <pt x="52" y="700" on="1"/>
        <pt x="143" y="700" on="1"/>
        <pt x="143" y="430" on="1"/>
        <pt x="143" y="366" on="0"/>
        <pt x="215" y="302" on="0"/>
        <pt x="332" y="302" on="0"/>
        <pt x="395" y="337" on="0"/>
        <pt x="405" y="363" on="1"/>
        <pt x="405" y="700" on="1"/>
        <pt x="496" y="700" on="1"/>
        <pt x="496" y="156" on="1"/>
        <pt x="496" y="0" on="0"/>
      </contour>
      <contour>
        <pt x="307" y="731" on="1"/>
        <pt x="244" y="731" on="1"/>
        <pt x="292" y="842" on="1"/>
        <pt x="304" y="872" on="0"/>
        <pt x="337" y="872" on="1"/>
        <pt x="344" y="872" on="0"/>
        <pt x="351" y="869" on="1"/>
        <pt x="375" y="859" on="0"/>
        <pt x="375" y="820" on="0"/>
        <pt x="363" y="804" on="1"/>
      </contour>
    </TTGlyph>
    <TTGlyph name="Yacute_alt" xMin="1" yMin="0" xMax="473" yMax="872">
      <contour>
        <pt x="269" y="731" on="1"/>
        <pt x="206" y="731" on="1"/>
        <pt x="254" y="842" on="1"/>
        <pt x="266" y="872" on="0"/>
        <pt x="299" y="872" on="1"/>
        <pt x="306" y="872" on="0"/>
        <pt x="313" y="869" on="1"/>
        <pt x="337" y="859" on="0"/>
        <pt x="337" y="820" on="0"/>
        <pt x="325" y="804" on="1"/>
      </contour>
      <contour>
        <pt x="283" y="0" on="1"/>
        <pt x="191" y="0" on="1"/>
        <pt x="191" y="324" on="1"/>
        <pt x="1" y="700" on="1"/>
        <pt x="98" y="700" on="1"/>
        <pt x="236" y="424" on="1"/>
        <pt x="375" y="700" on="1"/>
        <pt x="473" y="700" on="1"/>
        <pt x="283" y="324" on="1"/>
      </contour>
    </TTGlyph>
    <TTGlyph name="Ydieresis" xMin="52" yMin="-15" xMax="496" yMax="813">
      <contour>
        <pt x="362" y="-15" on="1"/>
        <pt x="335" y="53" on="1"/>
        <pt x="405" y="66" on="0"/>
        <pt x="405" y="160" on="1"/>
        <pt x="405" y="246" on="1"/>
        <pt x="356" y="212" on="0"/>
        <pt x="281" y="212" on="1"/>
        <pt x="177" y="212" on="0"/>
        <pt x="52" y="326" on="0"/>
        <pt x="52" y="427" on="1"/>
        <pt x="52" y="700" on="1"/>
        <pt x="143" y="700" on="1"/>
        <pt x="143" y="430" on="1"/>
        <pt x="143" y="366" on="0"/>
        <pt x="215" y="302" on="0"/>
        <pt x="332" y="302" on="0"/>
        <pt x="395" y="337" on="0"/>
        <pt x="405" y="363" on="1"/>
        <pt x="405" y="700" on="1"/>
        <pt x="496" y="700" on="1"/>
        <pt x="496" y="156" on="1"/>
        <pt x="496" y="0" on="0"/>
      </contour>
      <contour>
        <pt x="244" y="788" on="0"/>
        <pt x="244" y="754" on="0"/>
        <pt x="220" y="731" on="0"/>
        <pt x="186" y="731" on="0"/>
        <pt x="163" y="754" on="0"/>
        <pt x="163" y="788" on="0"/>
        <pt x="186" y="812" on="0"/>
        <pt x="220" y="812" on="0"/>
      </contour>
      <contour>
        <pt x="361" y="731" on="0"/>
        <pt x="327" y="731" on="0"/>
        <pt x="303" y="755" on="0"/>
        <pt x="303" y="788" on="0"/>
        <pt x="328" y="813" on="0"/>
        <pt x="361" y="813" on="0"/>
        <pt x="385" y="789" on="0"/>
        <pt x="385" y="755" on="0"/>
      </contour>
    </TTGlyph>
    <TTGlyph name="Ydieresis_alt" xMin="-8" yMin="0" xMax="464" yMax="813">
      <contour>
        <pt x="274" y="0" on="1"/>
        <pt x="182" y="0" on="1"/>
        <pt x="182" y="324" on="1"/>
        <pt x="-8" y="700" on="1"/>
        <pt x="89" y="700" on="1"/>
        <pt x="227" y="424" on="1"/>
        <pt x="366" y="700" on="1"/>
        <pt x="464" y="700" on="1"/>
        <pt x="274" y="324" on="1"/>
      </contour>
      <contour>
        <pt x="196" y="788" on="0"/>
        <pt x="196" y="754" on="0"/>
        <pt x="172" y="731" on="0"/>
        <pt x="138" y="731" on="0"/>
        <pt x="115" y="754" on="0"/>
        <pt x="115" y="788" on="0"/>
        <pt x="138" y="812" on="0"/>
        <pt x="172" y="812" on="0"/>
      </contour>
      <contour>
        <pt x="313" y="731" on="0"/>
        <pt x="279" y="731" on="0"/>
        <pt x="255" y="755" on="0"/>
        <pt x="255" y="788" on="0"/>
        <pt x="280" y="813" on="0"/>
        <pt x="313" y="813" on="0"/>
        <pt x="337" y="789" on="0"/>
        <pt x="337" y="755" on="0"/>
      </contour>
    </TTGlyph>
    <TTGlyph name="Z" xMin="31" yMin="0" xMax="518" yMax="700">
      <contour>
        <pt x="518" y="0" on="1"/>
        <pt x="31" y="0" on="1"/>
        <pt x="31" y="83" on="1"/>
        <pt x="397" y="611" on="1"/>
        <pt x="44" y="611" on="1"/>
        <pt x="44" y="700" on="1"/>
        <pt x="512" y="700" on="1"/>
        <pt x="512" y="611" on="1"/>
        <pt x="145" y="85" on="1"/>
        <pt x="518" y="85" on="1"/>
      </contour>
    </TTGlyph>
    <TTGlyph name="Zacute" xMin="31" yMin="0" xMax="518" yMax="926">
      <contour>
        <pt x="518" y="0" on="1"/>
        <pt x="31" y="0" on="1"/>
        <pt x="31" y="83" on="1"/>
        <pt x="397" y="611" on="1"/>
        <pt x="44" y="611" on="1"/>
        <pt x="44" y="700" on="1"/>
        <pt x="512" y="700" on="1"/>
        <pt x="512" y="611" on="1"/>
        <pt x="145" y="85" on="1"/>
        <pt x="518" y="85" on="1"/>
      </contour>
      <contour>
        <pt x="267" y="785" on="1"/>
        <pt x="204" y="785" on="1"/>
        <pt x="252" y="896" on="1"/>
        <pt x="264" y="926" on="0"/>
        <pt x="297" y="926" on="1"/>
        <pt x="304" y="926" on="0"/>
        <pt x="311" y="923" on="1"/>
        <pt x="335" y="913" on="0"/>
        <pt x="335" y="874" on="0"/>
        <pt x="323" y="858" on="1"/>
      </contour>
    </TTGlyph>
    <TTGlyph name="Zcaron" xMin="31" yMin="0" xMax="518" yMax="963">
      <contour>
        <pt x="518" y="0" on="1"/>
        <pt x="31" y="0" on="1"/>
        <pt x="31" y="83" on="1"/>
        <pt x="397" y="611" on="1"/>
        <pt x="44" y="611" on="1"/>
        <pt x="44" y="700" on="1"/>
        <pt x="512" y="700" on="1"/>
        <pt x="512" y="611" on="1"/>
        <pt x="145" y="85" on="1"/>
        <pt x="518" y="85" on="1"/>
      </contour>
      <contour>
        <pt x="443" y="924" on="1"/>
        <pt x="301" y="783" on="1"/>
        <pt x="153" y="924" on="1"/>
        <pt x="209" y="963" on="1"/>
        <pt x="300" y="872" on="1"/>
        <pt x="386" y="963" on="1"/>
      </contour>
    </TTGlyph>
    <TTGlyph name="Zdotaccent" xMin="31" yMin="0" xMax="518" yMax="826">
      <contour>
        <pt x="518" y="0" on="1"/>
        <pt x="31" y="0" on="1"/>
        <pt x="31" y="83" on="1"/>
        <pt x="397" y="611" on="1"/>
        <pt x="44" y="611" on="1"/>
        <pt x="44" y="700" on="1"/>
        <pt x="512" y="700" on="1"/>
        <pt x="512" y="611" on="1"/>
        <pt x="145" y="85" on="1"/>
        <pt x="518" y="85" on="1"/>
      </contour>
      <contour>
        <pt x="337" y="757" on="0"/>
        <pt x="307" y="726" on="0"/>
        <pt x="268" y="726" on="0"/>
        <pt x="237" y="757" on="0"/>
        <pt x="237" y="796" on="0"/>
        <pt x="268" y="826" on="0"/>
        <pt x="308" y="826" on="0"/>
        <pt x="337" y="796" on="0"/>
      </contour>
    </TTGlyph>
    <TTGlyph name="Zeta" xMin="78" yMin="0" xMax="565" yMax="700">
      <contour>
        <pt x="565" y="0" on="1"/>
        <pt x="78" y="0" on="1"/>
        <pt x="78" y="83" on="1"/>
        <pt x="444" y="611" on="1"/>
        <pt x="91" y="611" on="1"/>
        <pt x="91" y="700" on="1"/>
        <pt x="559" y="700" on="1"/>
        <pt x="559" y="611" on="1"/>
        <pt x="192" y="85" on="1"/>
        <pt x="565" y="85" on="1"/>
      </contour>
    </TTGlyph>
    <TTGlyph name="_196" xMin="78" yMin="0" xMax="583" yMax="700">
      <contour>
        <pt x="583" y="0" on="1"/>
        <pt x="78" y="0" on="1"/>
        <pt x="281" y="700" on="1"/>
        <pt x="371" y="700" on="1"/>
      </contour>
      <contour>
        <pt x="460" y="83" on="1"/>
        <pt x="329" y="528" on="1"/>
        <pt x="201" y="83" on="1"/>
      </contour>
    </TTGlyph>
    <TTGlyph name="a" xMin="37" yMin="-10" xMax="422" yMax="509">
      <contour>
        <pt x="181" y="401" on="1"/>
        <pt x="268" y="401" on="0"/>
        <pt x="331" y="361" on="1"/>
        <pt x="331" y="445" on="0"/>
        <pt x="207" y="445" on="1"/>
        <pt x="214" y="509" on="1"/>
        <pt x="295" y="509" on="0"/>
        <pt x="334" y="490" on="1"/>
        <pt x="355" y="479" on="0"/>
        <pt x="387" y="457" on="0"/>
        <pt x="405" y="421" on="0"/>
        <pt x="417" y="394" on="0"/>
        <pt x="419" y="371" on="1"/>
        <pt x="422" y="336" on="0"/>
        <pt x="422" y="298" on="1"/>
        <pt x="422" y="0" on="1"/>
        <pt x="318" y="-10" on="0"/>
        <pt x="256" y="-10" on="1"/>
        <pt x="37" y="-10" on="0"/>
        <pt x="37" y="169" on="1"/>
        <pt x="37" y="252" on="1"/>
        <pt x="37" y="351" on="0"/>
        <pt x="106" y="385" on="1"/>
        <pt x="140" y="401" on="0"/>
      </contour>
      <contour>
        <pt x="331" y="79" on="1"/>
        <pt x="331" y="270" on="1"/>
        <pt x="278" y="301" on="0"/>
        <pt x="210" y="309" on="1"/>
        <pt x="203" y="310" on="0"/>
        <pt x="170" y="310" on="0"/>
        <pt x="128" y="281" on="0"/>
        <pt x="128" y="242" on="1"/>
        <pt x="128" y="176" on="1"/>
        <pt x="128" y="73" on="0"/>
        <pt x="258" y="73" on="1"/>
        <pt x="291" y="73" on="0"/>
      </contour>
    </TTGlyph>
    <TTGlyph name="aacute" xMin="78" yMin="-10" xMax="463" yMax="679">
      <contour>
        <pt x="222" y="401" on="1"/>
        <pt x="309" y="401" on="0"/>
        <pt x="372" y="361" on="1"/>
        <pt x="372" y="445" on="0"/>
        <pt x="248" y="445" on="1"/>
        <pt x="255" y="509" on="1"/>
        <pt x="336" y="509" on="0"/>
        <pt x="375" y="490" on="1"/>
        <pt x="396" y="479" on="0"/>
        <pt x="428" y="457" on="0"/>
        <pt x="446" y="421" on="0"/>
        <pt x="458" y="394" on="0"/>
        <pt x="460" y="371" on="1"/>
        <pt x="463" y="336" on="0"/>
        <pt x="463" y="298" on="1"/>
        <pt x="463" y="0" on="1"/>
        <pt x="359" y="-10" on="0"/>
        <pt x="297" y="-10" on="1"/>
        <pt x="78" y="-10" on="0"/>
        <pt x="78" y="169" on="1"/>
        <pt x="78" y="252" on="1"/>
        <pt x="78" y="351" on="0"/>
        <pt x="147" y="385" on="1"/>
        <pt x="181" y="401" on="0"/>
      </contour>
      <contour>
        <pt x="372" y="79" on="1"/>
        <pt x="372" y="270" on="1"/>
        <pt x="319" y="301" on="0"/>
        <pt x="250" y="309" on="1"/>
        <pt x="244" y="310" on="0"/>
        <pt x="211" y="310" on="0"/>
        <pt x="169" y="281" on="0"/>
        <pt x="169" y="242" on="1"/>
        <pt x="169" y="176" on="1"/>
        <pt x="169" y="73" on="0"/>
        <pt x="299" y="73" on="1"/>
        <pt x="332" y="73" on="0"/>
      </contour>
      <contour>
        <pt x="321" y="538" on="1"/>
        <pt x="258" y="538" on="1"/>
        <pt x="306" y="649" on="1"/>
        <pt x="318" y="679" on="0"/>
        <pt x="351" y="679" on="1"/>
        <pt x="358" y="679" on="0"/>
        <pt x="365" y="676" on="1"/>
        <pt x="389" y="666" on="0"/>
        <pt x="389" y="627" on="0"/>
        <pt x="377" y="611" on="1"/>
      </contour>
    </TTGlyph>
    <TTGlyph name="abreve" xMin="78" yMin="-10" xMax="463" yMax="656">
      <contour>
        <pt x="222" y="401" on="1"/>
        <pt x="309" y="401" on="0"/>
        <pt x="372" y="361" on="1"/>
        <pt x="372" y="445" on="0"/>
        <pt x="248" y="445" on="1"/>
        <pt x="255" y="509" on="1"/>
        <pt x="336" y="509" on="0"/>
        <pt x="375" y="490" on="1"/>
        <pt x="396" y="479" on="0"/>
        <pt x="428" y="457" on="0"/>
        <pt x="446" y="421" on="0"/>
        <pt x="458" y="394" on="0"/>
        <pt x="460" y="371" on="1"/>
        <pt x="463" y="336" on="0"/>
        <pt x="463" y="298" on="1"/>
        <pt x="463" y="0" on="1"/>
        <pt x="359" y="-10" on="0"/>
        <pt x="297" y="-10" on="1"/>
        <pt x="78" y="-10" on="0"/>
        <pt x="78" y="169" on="1"/>
        <pt x="78" y="252" on="1"/>
        <pt x="78" y="351" on="0"/>
        <pt x="147" y="385" on="1"/>
        <pt x="181" y="401" on="0"/>
      </contour>
      <contour>
        <pt x="372" y="79" on="1"/>
        <pt x="372" y="270" on="1"/>
        <pt x="319" y="301" on="0"/>
        <pt x="250" y="309" on="1"/>
        <pt x="244" y="310" on="0"/>
        <pt x="211" y="310" on="0"/>
        <pt x="169" y="281" on="0"/>
        <pt x="169" y="242" on="1"/>
        <pt x="169" y="176" on="1"/>
        <pt x="169" y="73" on="0"/>
        <pt x="299" y="73" on="1"/>
        <pt x="332" y="73" on="0"/>
      </contour>
      <contour>
        <pt x="422" y="656" on="1"/>
        <pt x="422" y="651" on="1"/>
        <pt x="422" y="604" on="0"/>
        <pt x="356" y="538" on="0"/>
        <pt x="262" y="538" on="0"/>
        <pt x="196" y="604" on="0"/>
        <pt x="196" y="651" on="1"/>
        <pt x="196" y="656" on="1"/>
        <pt x="266" y="656" on="1"/>
        <pt x="266" y="651" on="1"/>
        <pt x="266" y="629" on="0"/>
        <pt x="290" y="604" on="0"/>
        <pt x="328" y="604" on="0"/>
        <pt x="353" y="630" on="0"/>
        <pt x="353" y="651" on="1"/>
        <pt x="353" y="656" on="1"/>
      </contour>
    </TTGlyph>
    <TTGlyph name="acircumflex" xMin="78" yMin="-10" xMax="463" yMax="719">
      <contour>
        <pt x="222" y="401" on="1"/>
        <pt x="309" y="401" on="0"/>
        <pt x="372" y="361" on="1"/>
        <pt x="372" y="445" on="0"/>
        <pt x="248" y="445" on="1"/>
        <pt x="255" y="509" on="1"/>
        <pt x="336" y="509" on="0"/>
        <pt x="375" y="490" on="1"/>
        <pt x="396" y="479" on="0"/>
        <pt x="428" y="457" on="0"/>
        <pt x="446" y="421" on="0"/>
        <pt x="458" y="394" on="0"/>
        <pt x="460" y="371" on="1"/>
        <pt x="463" y="336" on="0"/>
        <pt x="463" y="298" on="1"/>
        <pt x="463" y="0" on="1"/>
        <pt x="359" y="-10" on="0"/>
        <pt x="297" y="-10" on="1"/>
        <pt x="78" y="-10" on="0"/>
        <pt x="78" y="169" on="1"/>
        <pt x="78" y="252" on="1"/>
        <pt x="78" y="351" on="0"/>
        <pt x="147" y="385" on="1"/>
        <pt x="181" y="401" on="0"/>
      </contour>
      <contour>
        <pt x="372" y="79" on="1"/>
        <pt x="372" y="270" on="1"/>
        <pt x="319" y="301" on="0"/>
        <pt x="250" y="309" on="1"/>
        <pt x="244" y="310" on="0"/>
        <pt x="211" y="310" on="0"/>
        <pt x="169" y="281" on="0"/>
        <pt x="169" y="242" on="1"/>
        <pt x="169" y="176" on="1"/>
        <pt x="169" y="73" on="0"/>
        <pt x="299" y="73" on="1"/>
        <pt x="332" y="73" on="0"/>
      </contour>
      <contour>
        <pt x="425" y="578" on="1"/>
        <pt x="368" y="539" on="1"/>
        <pt x="282" y="629" on="1"/>
        <pt x="191" y="539" on="1"/>
        <pt x="135" y="578" on="1"/>
        <pt x="283" y="719" on="1"/>
      </contour>
    </TTGlyph>
    <TTGlyph name="acute" xMin="46" yMin="588" xMax="177" yMax="729">
      <contour>
        <pt x="109" y="588" on="1"/>
        <pt x="46" y="588" on="1"/>
        <pt x="94" y="699" on="1"/>
        <pt x="106" y="729" on="0"/>
        <pt x="139" y="729" on="1"/>
        <pt x="146" y="729" on="0"/>
        <pt x="153" y="726" on="1"/>
        <pt x="177" y="716" on="0"/>
        <pt x="177" y="677" on="0"/>
        <pt x="165" y="661" on="1"/>
      </contour>
    </TTGlyph>
    <TTGlyph name="adieresis" xMin="78" yMin="-10" xMax="463" yMax="621">
      <contour>
        <pt x="222" y="401" on="1"/>
        <pt x="309" y="401" on="0"/>
        <pt x="372" y="361" on="1"/>
        <pt x="372" y="445" on="0"/>
        <pt x="248" y="445" on="1"/>
        <pt x="255" y="509" on="1"/>
        <pt x="336" y="509" on="0"/>
        <pt x="375" y="490" on="1"/>
        <pt x="396" y="479" on="0"/>
        <pt x="428" y="457" on="0"/>
        <pt x="446" y="421" on="0"/>
        <pt x="458" y="394" on="0"/>
        <pt x="460" y="371" on="1"/>
        <pt x="463" y="336" on="0"/>
        <pt x="463" y="298" on="1"/>
        <pt x="463" y="0" on="1"/>
        <pt x="359" y="-10" on="0"/>
        <pt x="297" y="-10" on="1"/>
        <pt x="78" y="-10" on="0"/>
        <pt x="78" y="169" on="1"/>
        <pt x="78" y="252" on="1"/>
        <pt x="78" y="351" on="0"/>
        <pt x="147" y="385" on="1"/>
        <pt x="181" y="401" on="0"/>
      </contour>
      <contour>
        <pt x="372" y="79" on="1"/>
        <pt x="372" y="270" on="1"/>
        <pt x="319" y="301" on="0"/>
        <pt x="250" y="309" on="1"/>
        <pt x="244" y="310" on="0"/>
        <pt x="211" y="310" on="0"/>
        <pt x="169" y="281" on="0"/>
        <pt x="169" y="242" on="1"/>
        <pt x="169" y="176" on="1"/>
        <pt x="169" y="73" on="0"/>
        <pt x="299" y="73" on="1"/>
        <pt x="332" y="73" on="0"/>
      </contour>
      <contour>
        <pt x="251" y="596" on="0"/>
        <pt x="251" y="562" on="0"/>
        <pt x="227" y="539" on="0"/>
        <pt x="194" y="539" on="0"/>
        <pt x="170" y="562" on="0"/>
        <pt x="170" y="596" on="0"/>
        <pt x="193" y="620" on="0"/>
        <pt x="227" y="620" on="0"/>
      </contour>
      <contour>
        <pt x="368" y="539" on="0"/>
        <pt x="334" y="539" on="0"/>
        <pt x="310" y="563" on="0"/>
        <pt x="310" y="596" on="0"/>
        <pt x="334" y="621" on="0"/>
        <pt x="368" y="621" on="0"/>
        <pt x="392" y="597" on="0"/>
        <pt x="392" y="563" on="0"/>
      </contour>
    </TTGlyph>
    <TTGlyph name="ae" xMin="78" yMin="-12" xMax="732" yMax="510">
      <contour>
        <pt x="542" y="72" on="1"/>
        <pt x="598" y="72" on="0"/>
        <pt x="673" y="112" on="1"/>
        <pt x="707" y="35" on="1"/>
        <pt x="629" y="-12" on="0"/>
        <pt x="530" y="-12" on="1"/>
        <pt x="490" y="-12" on="0"/>
        <pt x="458" y="0" on="1"/>
        <pt x="359" y="-9" on="0"/>
        <pt x="298" y="-9" on="1"/>
        <pt x="78" y="-9" on="0"/>
        <pt x="78" y="169" on="1"/>
        <pt x="78" y="252" on="1"/>
        <pt x="78" y="351" on="0"/>
        <pt x="147" y="385" on="1"/>
        <pt x="181" y="401" on="0"/>
        <pt x="222" y="401" on="1"/>
        <pt x="309" y="401" on="0"/>
        <pt x="372" y="361" on="1"/>
        <pt x="372" y="445" on="0"/>
        <pt x="248" y="445" on="1"/>
        <pt x="255" y="509" on="1"/>
        <pt x="369" y="509" on="0"/>
        <pt x="419" y="462" on="1"/>
        <pt x="469" y="510" on="0"/>
        <pt x="639" y="510" on="0"/>
        <pt x="732" y="421" on="0"/>
        <pt x="732" y="342" on="1"/>
        <pt x="732" y="198" on="1"/>
        <pt x="464" y="183" on="1"/>
        <pt x="464" y="144" on="1"/>
        <pt x="464" y="104" on="0"/>
        <pt x="511" y="72" on="0"/>
      </contour>
      <contour>
        <pt x="372" y="79" on="1"/>
        <pt x="372" y="270" on="1"/>
        <pt x="319" y="301" on="0"/>
        <pt x="250" y="309" on="1"/>
        <pt x="244" y="310" on="0"/>
        <pt x="211" y="310" on="0"/>
        <pt x="169" y="281" on="0"/>
        <pt x="169" y="242" on="1"/>
        <pt x="169" y="176" on="1"/>
        <pt x="169" y="73" on="0"/>
        <pt x="299" y="73" on="1"/>
        <pt x="332" y="73" on="0"/>
      </contour>
      <contour>
        <pt x="640" y="278" on="1"/>
        <pt x="640" y="343" on="1"/>
        <pt x="640" y="384" on="0"/>
        <pt x="588" y="423" on="0"/>
        <pt x="512" y="423" on="0"/>
        <pt x="464" y="376" on="0"/>
        <pt x="464" y="338" on="1"/>
        <pt x="464" y="268" on="1"/>
      </contour>
    </TTGlyph>
    <TTGlyph name="agrave" xMin="78" yMin="-10" xMax="463" yMax="681">
      <contour>
        <pt x="222" y="401" on="1"/>
        <pt x="309" y="401" on="0"/>
        <pt x="372" y="361" on="1"/>
        <pt x="372" y="445" on="0"/>
        <pt x="248" y="445" on="1"/>
        <pt x="255" y="509" on="1"/>
        <pt x="336" y="509" on="0"/>
        <pt x="375" y="490" on="1"/>
        <pt x="396" y="479" on="0"/>
        <pt x="428" y="457" on="0"/>
        <pt x="446" y="421" on="0"/>
        <pt x="458" y="394" on="0"/>
        <pt x="460" y="371" on="1"/>
        <pt x="463" y="336" on="0"/>
        <pt x="463" y="298" on="1"/>
        <pt x="463" y="0" on="1"/>
        <pt x="359" y="-10" on="0"/>
        <pt x="297" y="-10" on="1"/>
        <pt x="78" y="-10" on="0"/>
        <pt x="78" y="169" on="1"/>
        <pt x="78" y="252" on="1"/>
        <pt x="78" y="351" on="0"/>
        <pt x="147" y="385" on="1"/>
        <pt x="181" y="401" on="0"/>
      </contour>
      <contour>
        <pt x="372" y="79" on="1"/>
        <pt x="372" y="270" on="1"/>
        <pt x="319" y="301" on="0"/>
        <pt x="250" y="309" on="1"/>
        <pt x="244" y="310" on="0"/>
        <pt x="211" y="310" on="0"/>
        <pt x="169" y="281" on="0"/>
        <pt x="169" y="242" on="1"/>
        <pt x="169" y="176" on="1"/>
        <pt x="169" y="73" on="0"/>
        <pt x="299" y="73" on="1"/>
        <pt x="332" y="73" on="0"/>
      </contour>
      <contour>
        <pt x="298" y="540" on="1"/>
        <pt x="235" y="540" on="1"/>
        <pt x="179" y="613" on="1"/>
        <pt x="167" y="629" on="0"/>
        <pt x="167" y="638" on="1"/>
        <pt x="167" y="668" on="0"/>
        <pt x="191" y="678" on="1"/>
        <pt x="198" y="681" on="0"/>
        <pt x="206" y="681" on="1"/>
        <pt x="238" y="681" on="0"/>
        <pt x="250" y="651" on="1"/>
      </contour>
    </TTGlyph>
    <TTGlyph name="alpha" xMin="78" yMin="-9" xMax="473" yMax="510">
      <contour>
        <pt x="225" y="506" on="1"/>
        <pt x="294" y="506" on="0"/>
        <pt x="358" y="479" on="1"/>
        <pt x="370" y="510" on="1"/>
        <pt x="450" y="486" on="1"/>
        <pt x="443" y="421" on="0"/>
        <pt x="443" y="389" on="1"/>
        <pt x="443" y="77" on="1"/>
        <pt x="449" y="49" on="0"/>
        <pt x="473" y="35" on="1"/>
        <pt x="391" y="1" on="1"/>
        <pt x="388" y="0" on="0"/>
        <pt x="370" y="7" on="0"/>
        <pt x="368" y="7" on="1"/>
        <pt x="310" y="-9" on="0"/>
        <pt x="242" y="-9" on="0"/>
        <pt x="178" y="0" on="0"/>
        <pt x="118" y="35" on="0"/>
        <pt x="78" y="112" on="0"/>
        <pt x="78" y="169" on="1"/>
        <pt x="78" y="354" on="1"/>
        <pt x="78" y="423" on="0"/>
        <pt x="140" y="499" on="0"/>
        <pt x="187" y="504" on="1"/>
        <pt x="207" y="506" on="0"/>
      </contour>
      <contour>
        <pt x="351" y="395" on="1"/>
        <pt x="291" y="422" on="0"/>
        <pt x="236" y="422" on="1"/>
        <pt x="206" y="422" on="0"/>
        <pt x="169" y="387" on="0"/>
        <pt x="169" y="351" on="1"/>
        <pt x="169" y="194" on="1"/>
        <pt x="169" y="122" on="0"/>
        <pt x="208" y="93" on="1"/>
        <pt x="229" y="78" on="0"/>
        <pt x="302" y="78" on="0"/>
        <pt x="351" y="90" on="1"/>
      </contour>
    </TTGlyph>
    <TTGlyph name="alphatonos" xMin="78" yMin="-9" xMax="473" yMax="679">
      <contour>
        <pt x="225" y="506" on="1"/>
        <pt x="294" y="506" on="0"/>
        <pt x="358" y="479" on="1"/>
        <pt x="370" y="510" on="1"/>
        <pt x="450" y="486" on="1"/>
        <pt x="443" y="421" on="0"/>
        <pt x="443" y="389" on="1"/>
        <pt x="443" y="77" on="1"/>
        <pt x="449" y="49" on="0"/>
        <pt x="473" y="35" on="1"/>
        <pt x="391" y="1" on="1"/>
        <pt x="388" y="0" on="0"/>
        <pt x="370" y="7" on="0"/>
        <pt x="368" y="7" on="1"/>
        <pt x="310" y="-9" on="0"/>
        <pt x="242" y="-9" on="0"/>
        <pt x="178" y="0" on="0"/>
        <pt x="118" y="35" on="0"/>
        <pt x="78" y="112" on="0"/>
        <pt x="78" y="169" on="1"/>
        <pt x="78" y="354" on="1"/>
        <pt x="78" y="423" on="0"/>
        <pt x="140" y="499" on="0"/>
        <pt x="187" y="504" on="1"/>
        <pt x="207" y="506" on="0"/>
      </contour>
      <contour>
        <pt x="351" y="395" on="1"/>
        <pt x="291" y="422" on="0"/>
        <pt x="236" y="422" on="1"/>
        <pt x="206" y="422" on="0"/>
        <pt x="169" y="387" on="0"/>
        <pt x="169" y="351" on="1"/>
        <pt x="169" y="194" on="1"/>
        <pt x="169" y="122" on="0"/>
        <pt x="208" y="93" on="1"/>
        <pt x="229" y="78" on="0"/>
        <pt x="302" y="78" on="0"/>
        <pt x="351" y="90" on="1"/>
      </contour>
      <contour>
        <pt x="300" y="538" on="1"/>
        <pt x="237" y="538" on="1"/>
        <pt x="285" y="649" on="1"/>
        <pt x="297" y="679" on="0"/>
        <pt x="330" y="679" on="1"/>
        <pt x="337" y="679" on="0"/>
        <pt x="344" y="676" on="1"/>
        <pt x="368" y="666" on="0"/>
        <pt x="368" y="627" on="0"/>
        <pt x="356" y="611" on="1"/>
      </contour>
    </TTGlyph>
    <TTGlyph name="amacron" xMin="78" yMin="-10" xMax="463" yMax="617">
      <contour>
        <pt x="222" y="401" on="1"/>
        <pt x="309" y="401" on="0"/>
        <pt x="372" y="361" on="1"/>
        <pt x="372" y="445" on="0"/>
        <pt x="248" y="445" on="1"/>
        <pt x="255" y="509" on="1"/>
        <pt x="336" y="509" on="0"/>
        <pt x="375" y="490" on="1"/>
        <pt x="396" y="479" on="0"/>
        <pt x="428" y="457" on="0"/>
        <pt x="446" y="421" on="0"/>
        <pt x="458" y="394" on="0"/>
        <pt x="460" y="371" on="1"/>
        <pt x="463" y="336" on="0"/>
        <pt x="463" y="298" on="1"/>
        <pt x="463" y="0" on="1"/>
        <pt x="359" y="-10" on="0"/>
        <pt x="297" y="-10" on="1"/>
        <pt x="78" y="-10" on="0"/>
        <pt x="78" y="169" on="1"/>
        <pt x="78" y="252" on="1"/>
        <pt x="78" y="351" on="0"/>
        <pt x="147" y="385" on="1"/>
        <pt x="181" y="401" on="0"/>
      </contour>
      <contour>
        <pt x="372" y="79" on="1"/>
        <pt x="372" y="270" on="1"/>
        <pt x="319" y="301" on="0"/>
        <pt x="250" y="309" on="1"/>
        <pt x="244" y="310" on="0"/>
        <pt x="211" y="310" on="0"/>
        <pt x="169" y="281" on="0"/>
        <pt x="169" y="242" on="1"/>
        <pt x="169" y="176" on="1"/>
        <pt x="169" y="73" on="0"/>
        <pt x="299" y="73" on="1"/>
        <pt x="332" y="73" on="0"/>
      </contour>
      <contour>
        <pt x="386" y="538" on="1"/>
        <pt x="169" y="538" on="1"/>
        <pt x="169" y="617" on="1"/>
        <pt x="386" y="617" on="1"/>
      </contour>
    </TTGlyph>
    <TTGlyph name="ampersand" xMin="35" yMin="-11" xMax="525" yMax="712">
      <contour>
        <pt x="498" y="61" on="1"/>
        <pt x="482" y="-11" on="1"/>
        <pt x="399" y="-2" on="0"/>
        <pt x="362" y="58" on="1"/>
        <pt x="317" y="-11" on="0"/>
        <pt x="123" y="-11" on="0"/>
        <pt x="76" y="52" on="1"/>
        <pt x="35" y="107" on="0"/>
        <pt x="35" y="179" on="1"/>
        <pt x="35" y="233" on="0"/>
        <pt x="72" y="313" on="0"/>
        <pt x="111" y="358" on="0"/>
        <pt x="137" y="377" on="1"/>
        <pt x="176" y="406" on="0"/>
        <pt x="218" y="421" on="1"/>
        <pt x="185" y="432" on="0"/>
        <pt x="162" y="468" on="1"/>
        <pt x="138" y="506" on="0"/>
        <pt x="138" y="556" on="1"/>
        <pt x="138" y="641" on="0"/>
        <pt x="212" y="684" on="1"/>
        <pt x="259" y="712" on="0"/>
        <pt x="344" y="712" on="0"/>
        <pt x="381" y="699" on="1"/>
        <pt x="329" y="620" on="1"/>
        <pt x="316" y="625" on="0"/>
        <pt x="285" y="625" on="0"/>
        <pt x="266" y="614" on="1"/>
        <pt x="232" y="594" on="0"/>
        <pt x="232" y="509" on="0"/>
        <pt x="289" y="469" on="0"/>
        <pt x="314" y="469" on="1"/>
        <pt x="319" y="469" on="0"/>
        <pt x="324" y="470" on="1"/>
        <pt x="341" y="472" on="1"/>
        <pt x="341" y="600" on="1"/>
        <pt x="432" y="609" on="1"/>
        <pt x="432" y="484" on="1"/>
        <pt x="505" y="500" on="1"/>
        <pt x="525" y="409" on="1"/>
        <pt x="432" y="390" on="1"/>
        <pt x="432" y="168" on="1"/>
        <pt x="432" y="83" on="0"/>
      </contour>
      <contour>
        <pt x="341" y="222" on="1"/>
        <pt x="341" y="370" on="1"/>
        <pt x="199" y="337" on="0"/>
        <pt x="152" y="272" on="1"/>
        <pt x="124" y="234" on="0"/>
        <pt x="124" y="145" on="0"/>
        <pt x="170" y="81" on="0"/>
        <pt x="277" y="81" on="0"/>
        <pt x="341" y="167" on="0"/>
      </contour>
    </TTGlyph>
    <TTGlyph name="aogonek" xMin="37" yMin="-213" xMax="456" yMax="509">
      <contour>
        <pt x="181" y="401" on="1"/>
        <pt x="268" y="401" on="0"/>
        <pt x="331" y="361" on="1"/>
        <pt x="331" y="445" on="0"/>
        <pt x="207" y="445" on="1"/>
        <pt x="214" y="509" on="1"/>
        <pt x="295" y="509" on="0"/>
        <pt x="334" y="490" on="1"/>
        <pt x="355" y="479" on="0"/>
        <pt x="387" y="457" on="0"/>
        <pt x="405" y="421" on="0"/>
        <pt x="417" y="394" on="0"/>
        <pt x="419" y="371" on="1"/>
        <pt x="422" y="336" on="0"/>
        <pt x="422" y="298" on="1"/>
        <pt x="422" y="0" on="1"/>
        <pt x="421" y="0" on="1"/>
        <pt x="325" y="-80" on="0"/>
        <pt x="326" y="-121" on="1"/>
        <pt x="328" y="-152" on="0"/>
        <pt x="392" y="-152" on="0"/>
        <pt x="411" y="-115" on="1"/>
        <pt x="456" y="-163" on="1"/>
        <pt x="424" y="-213" on="0"/>
        <pt x="351" y="-213" on="1"/>
        <pt x="322" y="-213" on="0"/>
        <pt x="262" y="-170" on="0"/>
        <pt x="262" y="-128" on="1"/>
        <pt x="262" y="-125" on="0"/>
        <pt x="262" y="-122" on="1"/>
        <pt x="262" y="-63" on="0"/>
        <pt x="344" y="-7" on="1"/>
        <pt x="311" y="-11" on="0"/>
        <pt x="256" y="-11" on="0"/>
        <pt x="180" y="-5" on="0"/>
        <pt x="92" y="23" on="0"/>
        <pt x="37" y="104" on="0"/>
        <pt x="37" y="169" on="1"/>
        <pt x="37" y="252" on="1"/>
        <pt x="37" y="351" on="0"/>
        <pt x="106" y="385" on="1"/>
        <pt x="140" y="401" on="0"/>
      </contour>
      <contour>
        <pt x="331" y="79" on="1"/>
        <pt x="331" y="270" on="1"/>
        <pt x="278" y="301" on="0"/>
        <pt x="210" y="309" on="1"/>
        <pt x="203" y="310" on="0"/>
        <pt x="170" y="310" on="0"/>
        <pt x="128" y="281" on="0"/>
        <pt x="128" y="242" on="1"/>
        <pt x="128" y="176" on="1"/>
        <pt x="128" y="73" on="0"/>
        <pt x="258" y="73" on="1"/>
        <pt x="291" y="73" on="0"/>
      </contour>
    </TTGlyph>
    <TTGlyph name="aring" xMin="78" yMin="-10" xMax="463" yMax="663">
      <contour>
        <pt x="222" y="401" on="1"/>
        <pt x="309" y="401" on="0"/>
        <pt x="372" y="361" on="1"/>
        <pt x="372" y="445" on="0"/>
        <pt x="248" y="445" on="1"/>
        <pt x="248" y="446" on="1"/>
        <pt x="207" y="451" on="0"/>
        <pt x="152" y="512" on="0"/>
        <pt x="152" y="599" on="0"/>
        <pt x="216" y="663" on="0"/>
        <pt x="306" y="663" on="0"/>
        <pt x="370" y="599" on="0"/>
        <pt x="370" y="523" on="0"/>
        <pt x="354" y="497" on="1"/>
        <pt x="385" y="488" on="0"/>
        <pt x="429" y="453" on="0"/>
        <pt x="450" y="419" on="0"/>
        <pt x="456" y="391" on="1"/>
        <pt x="463" y="353" on="0"/>
        <pt x="463" y="298" on="1"/>
        <pt x="463" y="0" on="1"/>
        <pt x="359" y="-10" on="0"/>
        <pt x="297" y="-10" on="1"/>
        <pt x="78" y="-10" on="0"/>
        <pt x="78" y="169" on="1"/>
        <pt x="78" y="252" on="1"/>
        <pt x="78" y="351" on="0"/>
        <pt x="147" y="385" on="1"/>
        <pt x="181" y="401" on="0"/>
      </contour>
      <contour>
        <pt x="372" y="79" on="1"/>
        <pt x="372" y="270" on="1"/>
        <pt x="319" y="301" on="0"/>
        <pt x="250" y="309" on="1"/>
        <pt x="244" y="310" on="0"/>
        <pt x="211" y="310" on="0"/>
        <pt x="169" y="281" on="0"/>
        <pt x="169" y="242" on="1"/>
        <pt x="169" y="176" on="1"/>
        <pt x="169" y="73" on="0"/>
        <pt x="299" y="73" on="1"/>
        <pt x="332" y="73" on="0"/>
      </contour>
      <contour>
        <pt x="304" y="536" on="0"/>
        <pt x="304" y="572" on="0"/>
        <pt x="279" y="597" on="0"/>
        <pt x="243" y="597" on="0"/>
        <pt x="218" y="572" on="0"/>
        <pt x="218" y="536" on="0"/>
        <pt x="243" y="511" on="0"/>
        <pt x="279" y="511" on="0"/>
      </contour>
    </TTGlyph>
    <TTGlyph name="asciicircum" xMin="78" yMin="719" xMax="368" yMax="899">
      <contour>
        <pt x="368" y="758" on="1"/>
        <pt x="311" y="719" on="1"/>
        <pt x="225" y="809" on="1"/>
        <pt x="134" y="719" on="1"/>
        <pt x="78" y="758" on="1"/>
        <pt x="226" y="899" on="1"/>
      </contour>
    </TTGlyph>
    <TTGlyph name="asciitilde" xMin="78" yMin="260" xMax="494" yMax="379">
      <contour>
        <pt x="371" y="342" on="1"/>
        <pt x="425" y="342" on="0"/>
        <pt x="456" y="379" on="1"/>
        <pt x="494" y="320" on="1"/>
        <pt x="450" y="263" on="0"/>
        <pt x="380" y="263" on="1"/>
        <pt x="351" y="263" on="0"/>
        <pt x="261" y="291" on="1"/>
        <pt x="233" y="299" on="0"/>
        <pt x="206" y="299" on="1"/>
        <pt x="149" y="299" on="0"/>
        <pt x="114" y="260" on="1"/>
        <pt x="78" y="319" on="1"/>
        <pt x="124" y="376" on="0"/>
        <pt x="195" y="376" on="1"/>
        <pt x="222" y="376" on="0"/>
        <pt x="343" y="342" on="0"/>
      </contour>
    </TTGlyph>
    <TTGlyph name="asterisk" xMin="17" yMin="404" xMax="336" yMax="700">
      <contour>
        <pt x="304" y="460" on="1"/>
        <pt x="223" y="404" on="1"/>
        <pt x="175" y="515" on="1"/>
        <pt x="127" y="404" on="1"/>
        <pt x="47" y="461" on="1"/>
        <pt x="130" y="541" on="1"/>
        <pt x="17" y="561" on="1"/>
        <pt x="48" y="645" on="1"/>
        <pt x="148" y="587" on="1"/>
        <pt x="127" y="700" on="1"/>
        <pt x="223" y="700" on="1"/>
        <pt x="201" y="587" on="1"/>
        <pt x="300" y="646" on="1"/>
        <pt x="336" y="560" on="1"/>
        <pt x="219" y="540" on="1"/>
      </contour>
    </TTGlyph>
    <TTGlyph name="at" xMin="17" yMin="-83" xMax="731" yMax="594">
      <contour>
        <pt x="542" y="91" on="1"/>
        <pt x="411" y="53" on="0"/>
        <pt x="324" y="53" on="1"/>
        <pt x="280" y="53" on="0"/>
        <pt x="212" y="77" on="0"/>
        <pt x="161" y="147" on="0"/>
        <pt x="157" y="204" on="1"/>
        <pt x="157" y="305" on="1"/>
        <pt x="157" y="416" on="0"/>
        <pt x="245" y="449" on="1"/>
        <pt x="272" y="461" on="0"/>
        <pt x="314" y="461" on="0"/>
        <pt x="339" y="459" on="1"/>
        <pt x="396" y="455" on="0"/>
        <pt x="450" y="431" on="1"/>
        <pt x="445" y="473" on="0"/>
        <pt x="410" y="492" on="1"/>
        <pt x="373" y="513" on="0"/>
        <pt x="323" y="513" on="1"/>
        <pt x="229" y="513" on="0"/>
        <pt x="102" y="428" on="0"/>
        <pt x="102" y="334" on="1"/>
        <pt x="102" y="190" on="1"/>
        <pt x="102" y="120" on="0"/>
        <pt x="177" y="31" on="0"/>
        <pt x="278" y="0" on="0"/>
        <pt x="340" y="0" on="1"/>
        <pt x="445" y="0" on="0"/>
        <pt x="605" y="82" on="0"/>
        <pt x="605" y="162" on="1"/>
        <pt x="604" y="337" on="1"/>
        <pt x="604" y="425" on="0"/>
        <pt x="625" y="454" on="1"/>
        <pt x="651" y="489" on="0"/>
        <pt x="704" y="500" on="1"/>
        <pt x="731" y="429" on="1"/>
        <pt x="706" y="419" on="0"/>
        <pt x="691" y="382" on="0"/>
        <pt x="691" y="353" on="1"/>
        <pt x="692" y="176" on="1"/>
        <pt x="692" y="117" on="0"/>
        <pt x="645" y="23" on="0"/>
        <pt x="572" y="-32" on="0"/>
        <pt x="523" y="-50" on="1"/>
        <pt x="437" y="-83" on="0"/>
        <pt x="338" y="-83" on="1"/>
        <pt x="336" y="-83" on="0"/>
        <pt x="334" y="-83" on="1"/>
        <pt x="199" y="-83" on="0"/>
        <pt x="17" y="56" on="0"/>
        <pt x="17" y="183" on="1"/>
        <pt x="17" y="342" on="1"/>
        <pt x="17" y="398" on="0"/>
        <pt x="54" y="488" on="0"/>
        <pt x="86" y="516" on="1"/>
        <pt x="147" y="571" on="0"/>
        <pt x="222" y="585" on="1"/>
        <pt x="279" y="594" on="0"/>
        <pt x="360" y="594" on="0"/>
        <pt x="437" y="571" on="0"/>
        <pt x="503" y="529" on="0"/>
        <pt x="542" y="450" on="0"/>
        <pt x="542" y="399" on="1"/>
        <pt x="579" y="384" on="1"/>
        <pt x="579" y="298" on="1"/>
        <pt x="542" y="314" on="1"/>
      </contour>
      <contour>
        <pt x="268" y="160" on="1"/>
        <pt x="282" y="145" on="0"/>
        <pt x="319" y="134" on="0"/>
        <pt x="388" y="134" on="0"/>
        <pt x="451" y="155" on="1"/>
        <pt x="451" y="344" on="1"/>
        <pt x="386" y="377" on="0"/>
        <pt x="322" y="377" on="1"/>
        <pt x="286" y="377" on="0"/>
        <pt x="242" y="337" on="0"/>
        <pt x="242" y="298" on="1"/>
        <pt x="242" y="228" on="1"/>
        <pt x="242" y="185" on="0"/>
      </contour>
    </TTGlyph>
    <TTGlyph name="atilde" xMin="78" yMin="-10" xMax="463" yMax="654">
      <contour>
        <pt x="222" y="401" on="1"/>
        <pt x="309" y="401" on="0"/>
        <pt x="372" y="361" on="1"/>
        <pt x="372" y="445" on="0"/>
        <pt x="248" y="445" on="1"/>
        <pt x="255" y="509" on="1"/>
        <pt x="336" y="509" on="0"/>
        <pt x="375" y="490" on="1"/>
        <pt x="396" y="479" on="0"/>
        <pt x="428" y="457" on="0"/>
        <pt x="446" y="421" on="0"/>
        <pt x="458" y="394" on="0"/>
        <pt x="460" y="371" on="1"/>
        <pt x="463" y="336" on="0"/>
        <pt x="463" y="298" on="1"/>
        <pt x="463" y="0" on="1"/>
        <pt x="359" y="-10" on="0"/>
        <pt x="297" y="-10" on="1"/>
        <pt x="78" y="-10" on="0"/>
        <pt x="78" y="169" on="1"/>
        <pt x="78" y="252" on="1"/>
        <pt x="78" y="351" on="0"/>
        <pt x="147" y="385" on="1"/>
        <pt x="181" y="401" on="0"/>
      </contour>
      <contour>
        <pt x="372" y="79" on="1"/>
        <pt x="372" y="270" on="1"/>
        <pt x="319" y="301" on="0"/>
        <pt x="250" y="309" on="1"/>
        <pt x="244" y="310" on="0"/>
        <pt x="211" y="310" on="0"/>
        <pt x="169" y="281" on="0"/>
        <pt x="169" y="242" on="1"/>
        <pt x="169" y="176" on="1"/>
        <pt x="169" y="73" on="0"/>
        <pt x="299" y="73" on="1"/>
        <pt x="332" y="73" on="0"/>
      </contour>
      <contour>
        <pt x="342" y="613" on="1"/>
        <pt x="381" y="613" on="0"/>
        <pt x="412" y="648" on="1"/>
        <pt x="448" y="592" on="1"/>
        <pt x="403" y="539" on="0"/>
        <pt x="352" y="539" on="1"/>
        <pt x="334" y="539" on="0"/>
        <pt x="288" y="558" on="0"/>
        <pt x="238" y="581" on="0"/>
        <pt x="213" y="581" on="1"/>
        <pt x="171" y="581" on="0"/>
        <pt x="137" y="545" on="1"/>
        <pt x="103" y="601" on="1"/>
        <pt x="150" y="654" on="0"/>
        <pt x="203" y="654" on="1"/>
        <pt x="221" y="654" on="0"/>
        <pt x="266" y="636" on="0"/>
        <pt x="317" y="613" on="0"/>
      </contour>
    </TTGlyph>
    <TTGlyph name="b" xMin="78" yMin="-12" xMax="447" yMax="700">
      <contour>
        <pt x="169" y="491" on="1"/>
        <pt x="213" y="510" on="0"/>
        <pt x="312" y="510" on="0"/>
        <pt x="362" y="490" on="1"/>
        <pt x="447" y="451" on="0"/>
        <pt x="447" y="346" on="1"/>
        <pt x="447" y="157" on="1"/>
        <pt x="447" y="58" on="0"/>
        <pt x="369" y="18" on="1"/>
        <pt x="310" y="-12" on="0"/>
        <pt x="164" y="-12" on="0"/>
        <pt x="78" y="0" on="1"/>
        <pt x="78" y="700" on="1"/>
        <pt x="169" y="700" on="1"/>
      </contour>
      <contour>
        <pt x="169" y="397" on="1"/>
        <pt x="169" y="79" on="1"/>
        <pt x="197" y="73" on="0"/>
        <pt x="259" y="73" on="0"/>
        <pt x="318" y="86" on="0"/>
        <pt x="357" y="125" on="0"/>
        <pt x="357" y="155" on="1"/>
        <pt x="357" y="325" on="1"/>
        <pt x="357" y="368" on="0"/>
        <pt x="334" y="392" on="1"/>
        <pt x="308" y="419" on="0"/>
        <pt x="204" y="419" on="0"/>
      </contour>
    </TTGlyph>
    <TTGlyph name="backslash" xMin="75" yMin="-114" xMax="497" yMax="817">
      <contour>
        <pt x="497" y="-114" on="1"/>
        <pt x="400" y="-114" on="1"/>
        <pt x="75" y="817" on="1"/>
        <pt x="173" y="817" on="1"/>
      </contour>
    </TTGlyph>
    <TTGlyph name="bar" xMin="78" yMin="-114" xMax="169" yMax="817">
      <contour>
        <pt x="169" y="-114" on="1"/>
        <pt x="78" y="-114" on="1"/>
        <pt x="78" y="817" on="1"/>
        <pt x="169" y="817" on="1"/>
      </contour>
    </TTGlyph>
    <TTGlyph name="beta" xMin="78" yMin="-161" xMax="448" yMax="701">
      <contour>
        <pt x="249" y="-18" on="0"/>
        <pt x="216" y="-18" on="0"/>
        <pt x="168" y="-15" on="1"/>
        <pt x="168" y="-161" on="1"/>
        <pt x="78" y="-161" on="1"/>
        <pt x="78" y="537" on="1"/>
        <pt x="78" y="612" on="0"/>
        <pt x="156" y="701" on="0"/>
        <pt x="228" y="701" on="1"/>
        <pt x="274" y="701" on="0"/>
        <pt x="309" y="678" on="1"/>
        <pt x="368" y="638" on="0"/>
        <pt x="368" y="569" on="1"/>
        <pt x="368" y="519" on="0"/>
        <pt x="334" y="488" on="1"/>
        <pt x="382" y="474" on="0"/>
        <pt x="448" y="395" on="0"/>
        <pt x="448" y="330" on="1"/>
        <pt x="448" y="146" on="1"/>
        <pt x="448" y="43" on="0"/>
        <pt x="370" y="6" on="1"/>
        <pt x="325" y="-15" on="0"/>
      </contour>
      <contour>
        <pt x="168" y="80" on="1"/>
        <pt x="228" y="71" on="0"/>
        <pt x="308" y="71" on="0"/>
        <pt x="358" y="124" on="0"/>
        <pt x="358" y="181" on="1"/>
        <pt x="358" y="307" on="1"/>
        <pt x="358" y="351" on="0"/>
        <pt x="323" y="403" on="0"/>
        <pt x="280" y="412" on="0"/>
        <pt x="264" y="412" on="1"/>
        <pt x="218" y="412" on="0"/>
        <pt x="168" y="388" on="1"/>
      </contour>
      <contour>
        <pt x="168" y="530" on="1"/>
        <pt x="168" y="478" on="1"/>
        <pt x="198" y="493" on="0"/>
        <pt x="239" y="505" on="1"/>
        <pt x="279" y="518" on="0"/>
        <pt x="279" y="558" on="1"/>
        <pt x="279" y="574" on="0"/>
        <pt x="254" y="610" on="0"/>
        <pt x="193" y="610" on="0"/>
        <pt x="168" y="570" on="0"/>
      </contour>
    </TTGlyph>
    <TTGlyph name="braceleft" xMin="78" yMin="-116" xMax="307" yMax="822">
      <contour>
        <pt x="307" y="-39" on="1"/>
        <pt x="281" y="-116" on="1"/>
        <pt x="229" y="-97" on="0"/>
        <pt x="177" y="-49" on="0"/>
        <pt x="152" y="44" on="0"/>
        <pt x="152" y="127" on="1"/>
        <pt x="152" y="247" on="1"/>
        <pt x="152" y="266" on="0"/>
        <pt x="120" y="315" on="0"/>
        <pt x="99" y="335" on="0"/>
        <pt x="78" y="354" on="1"/>
        <pt x="102" y="373" on="0"/>
        <pt x="150" y="435" on="0"/>
        <pt x="150" y="462" on="1"/>
        <pt x="150" y="567" on="1"/>
        <pt x="150" y="692" on="0"/>
        <pt x="204" y="801" on="0"/>
        <pt x="280" y="822" on="1"/>
        <pt x="305" y="749" on="1"/>
        <pt x="241" y="732" on="0"/>
        <pt x="241" y="631" on="1"/>
        <pt x="241" y="456" on="1"/>
        <pt x="241" y="413" on="0"/>
        <pt x="183" y="355" on="1"/>
        <pt x="243" y="295" on="0"/>
        <pt x="243" y="253" on="1"/>
        <pt x="243" y="79" on="1"/>
        <pt x="243" y="-22" on="0"/>
      </contour>
    </TTGlyph>
    <TTGlyph name="braceright" xMin="78" yMin="-116" xMax="307" yMax="822">
      <contour>
        <pt x="104" y="-116" on="1"/>
        <pt x="78" y="-39" on="1"/>
        <pt x="142" y="-22" on="0"/>
        <pt x="142" y="79" on="1"/>
        <pt x="142" y="253" on="1"/>
        <pt x="142" y="295" on="0"/>
        <pt x="202" y="355" on="1"/>
        <pt x="144" y="413" on="0"/>
        <pt x="144" y="456" on="1"/>
        <pt x="144" y="631" on="1"/>
        <pt x="144" y="732" on="0"/>
        <pt x="80" y="749" on="1"/>
        <pt x="105" y="822" on="1"/>
        <pt x="181" y="801" on="0"/>
        <pt x="235" y="692" on="0"/>
        <pt x="235" y="567" on="1"/>
        <pt x="235" y="462" on="1"/>
        <pt x="235" y="435" on="0"/>
        <pt x="283" y="373" on="0"/>
        <pt x="307" y="354" on="1"/>
        <pt x="286" y="335" on="0"/>
        <pt x="265" y="315" on="0"/>
        <pt x="233" y="266" on="0"/>
        <pt x="233" y="247" on="1"/>
        <pt x="233" y="127" on="1"/>
        <pt x="233" y="44" on="0"/>
        <pt x="208" y="-49" on="0"/>
        <pt x="156" y="-97" on="0"/>
      </contour>
    </TTGlyph>
    <TTGlyph name="bracketleft" xMin="78" yMin="-114" xMax="239" yMax="817">
      <contour>
        <pt x="239" y="-114" on="1"/>
        <pt x="78" y="-114" on="1"/>
        <pt x="78" y="817" on="1"/>
        <pt x="239" y="817" on="1"/>
        <pt x="239" y="733" on="1"/>
        <pt x="169" y="723" on="1"/>
        <pt x="169" y="-20" on="1"/>
        <pt x="239" y="-30" on="1"/>
      </contour>
    </TTGlyph>
    <TTGlyph name="bracketright" xMin="78" yMin="-114" xMax="239" yMax="817">
      <contour>
        <pt x="239" y="-114" on="1"/>
        <pt x="78" y="-114" on="1"/>
        <pt x="78" y="-30" on="1"/>
        <pt x="148" y="-20" on="1"/>
        <pt x="148" y="723" on="1"/>
        <pt x="78" y="733" on="1"/>
        <pt x="78" y="817" on="1"/>
        <pt x="239" y="817" on="1"/>
      </contour>
    </TTGlyph>
    <TTGlyph name="breve" xMin="46" yMin="582" xMax="272" yMax="700">
      <contour>
        <pt x="272" y="700" on="1"/>
        <pt x="272" y="695" on="1"/>
        <pt x="272" y="648" on="0"/>
        <pt x="206" y="582" on="0"/>
        <pt x="112" y="582" on="0"/>
        <pt x="46" y="648" on="0"/>
        <pt x="46" y="695" on="1"/>
        <pt x="46" y="700" on="1"/>
        <pt x="116" y="700" on="1"/>
        <pt x="116" y="695" on="1"/>
        <pt x="116" y="673" on="0"/>
        <pt x="140" y="648" on="0"/>
        <pt x="178" y="648" on="0"/>
        <pt x="203" y="674" on="0"/>
        <pt x="203" y="695" on="1"/>
        <pt x="203" y="700" on="1"/>
      </contour>
    </TTGlyph>
    <TTGlyph name="bullet" xMin="78" yMin="158" xMax="435" yMax="515">
      <contour>
        <pt x="330" y="158" on="0"/>
        <pt x="182" y="158" on="0"/>
        <pt x="78" y="263" on="0"/>
        <pt x="78" y="411" on="0"/>
        <pt x="182" y="515" on="0"/>
        <pt x="330" y="515" on="0"/>
        <pt x="435" y="411" on="0"/>
        <pt x="435" y="263" on="0"/>
      </contour>
    </TTGlyph>
    <TTGlyph name="c" xMin="36" yMin="-11" xMax="358" yMax="510">
      <contour>
        <pt x="247" y="79" on="1"/>
        <pt x="293" y="79" on="0"/>
        <pt x="334" y="92" on="1"/>
        <pt x="358" y="6" on="1"/>
        <pt x="294" y="-11" on="0"/>
        <pt x="190" y="-11" on="0"/>
        <pt x="140" y="5" on="1"/>
        <pt x="36" y="39" on="0"/>
        <pt x="36" y="180" on="1"/>
        <pt x="36" y="308" on="1"/>
        <pt x="36" y="379" on="0"/>
        <pt x="64" y="427" on="1"/>
        <pt x="112" y="510" on="0"/>
        <pt x="222" y="510" on="1"/>
        <pt x="288" y="510" on="0"/>
        <pt x="356" y="478" on="1"/>
        <pt x="331" y="402" on="1"/>
        <pt x="279" y="422" on="0"/>
        <pt x="208" y="422" on="0"/>
        <pt x="184" y="412" on="1"/>
        <pt x="127" y="387" on="0"/>
        <pt x="127" y="314" on="1"/>
        <pt x="127" y="169" on="1"/>
        <pt x="127" y="79" on="0"/>
      </contour>
    </TTGlyph>
</ttFont>
